<?xml version="1.0" encoding="UTF-8"?>
<svg xmlns="http://www.w3.org/2000/svg" xmlns:xlink="http://www.w3.org/1999/xlink" width="279.73056pt" height="180.73172pt" viewBox="0 0 279.73056 180.73172" version="1.1">
<defs>
<clipPath id="clip1">
  <path d="M 0 180 L 279.730469 180 L 279.730469 180.730469 L 0 180.730469 Z M 0 180 "/>
</clipPath>
<clipPath id="clip2">
  <path d="M 0 54 L 279.730469 54 L 279.730469 55 L 0 55 Z M 0 54 "/>
</clipPath>
<clipPath id="clip3">
  <path d="M 0 36 L 279.730469 36 L 279.730469 37 L 0 37 Z M 0 36 "/>
</clipPath>
<clipPath id="clip4">
  <path d="M 0 18 L 279.730469 18 L 279.730469 19 L 0 19 Z M 0 18 "/>
</clipPath>
<clipPath id="clip5">
  <path d="M 0 0 L 279.730469 0 L 279.730469 1 L 0 1 Z M 0 0 "/>
</clipPath>
<clipPath id="clip6">
  <path d="M 0 0 L 1 0 L 1 180.730469 L 0 180.730469 Z M 0 0 "/>
</clipPath>
<clipPath id="clip7">
  <path d="M 90 54 L 91 54 L 91 180.730469 L 90 180.730469 Z M 90 54 "/>
</clipPath>
<clipPath id="clip8">
  <path d="M 162 36 L 163 36 L 163 180.730469 L 162 180.730469 Z M 162 36 "/>
</clipPath>
<clipPath id="clip9">
  <path d="M 279 0 L 279.730469 0 L 279.730469 180.730469 L 279 180.730469 Z M 279 0 "/>
</clipPath>
</defs>
<g id="surface1">
<g clip-path="url(#clip1)" clip-rule="nonzero">
<path style="fill:none;stroke-width:0.720003;stroke-linecap:round;stroke-linejoin:round;stroke:rgb(0%,0%,0%);stroke-opacity:1;stroke-miterlimit:10;" d="M 279.367188 -180.367188 L 0.363281 -180.367188 " transform="matrix(1,0,0,-1,0,0)"/>
</g>
<g clip-path="url(#clip2)" clip-rule="nonzero">
<path style="fill:none;stroke-width:0.720003;stroke-linecap:round;stroke-linejoin:round;stroke:rgb(0%,0%,0%);stroke-opacity:1;stroke-miterlimit:10;" d="M 0.363281 -54.367188 L 279.367188 -54.367188 " transform="matrix(1,0,0,-1,0,0)"/>
</g>
<g clip-path="url(#clip3)" clip-rule="nonzero">
<path style="fill:none;stroke-width:0.720003;stroke-linecap:round;stroke-linejoin:round;stroke:rgb(0%,0%,0%);stroke-opacity:1;stroke-miterlimit:10;" d="M 0.363281 -36.367188 L 279.367188 -36.367188 " transform="matrix(1,0,0,-1,0,0)"/>
</g>
<g clip-path="url(#clip4)" clip-rule="nonzero">
<path style="fill:none;stroke-width:0.720003;stroke-linecap:round;stroke-linejoin:round;stroke:rgb(0%,0%,0%);stroke-opacity:1;stroke-miterlimit:10;" d="M 0.363281 -18.367188 L 279.367188 -18.367188 " transform="matrix(1,0,0,-1,0,0)"/>
</g>
<g clip-path="url(#clip5)" clip-rule="nonzero">
<path style="fill:none;stroke-width:0.720003;stroke-linecap:round;stroke-linejoin:round;stroke:rgb(0%,0%,0%);stroke-opacity:1;stroke-miterlimit:10;" d="M 0.363281 -0.363281 L 279.367188 -0.363281 " transform="matrix(1,0,0,-1,0,0)"/>
</g>
<path style="fill:none;stroke-width:0.480001;stroke-linecap:round;stroke-linejoin:round;stroke:rgb(0%,0%,0%);stroke-opacity:1;stroke-miterlimit:10;" d="M 171.125 -43.085938 L 170.765625 -42.125 L 169.804688 -41.285156 L 168.964844 -40.925781 L 167.285156 -40.925781 L 166.445312 -41.285156 L 165.605469 -42.125 L 165.125 -43.085938 L 164.765625 -44.285156 L 164.765625 -46.445312 L 165.125 -47.765625 L 165.605469 -48.605469 L 166.445312 -49.445312 L 167.285156 -49.925781 L 168.964844 -49.925781 L 169.804688 -49.445312 L 170.765625 -48.605469 L 171.125 -47.765625 " transform="matrix(1,0,0,-1,0,0)"/>
<path style="fill:none;stroke-width:0.480001;stroke-linecap:round;stroke-linejoin:round;stroke:rgb(0%,0%,0%);stroke-opacity:1;stroke-miterlimit:10;" d="M 174.125 -40.925781 L 174.125 -49.925781 " transform="matrix(1,0,0,-1,0,0)"/>
<path style="fill:none;stroke-width:0.480001;stroke-linecap:round;stroke-linejoin:round;stroke:rgb(0%,0%,0%);stroke-opacity:1;stroke-miterlimit:10;" d="M 177.605469 -49.925781 L 177.605469 -40.925781 L 181.445312 -40.925781 L 182.765625 -41.285156 L 183.125 -41.765625 L 183.605469 -42.605469 L 183.605469 -43.445312 L 183.125 -44.285156 L 182.765625 -44.765625 L 181.445312 -45.125 L 177.605469 -45.125 " transform="matrix(1,0,0,-1,0,0)"/>
<path style="fill:none;stroke-width:0.480001;stroke-linecap:round;stroke-linejoin:round;stroke:rgb(0%,0%,0%);stroke-opacity:1;stroke-miterlimit:10;" d="M 180.605469 -45.125 L 183.605469 -49.925781 " transform="matrix(1,0,0,-1,0,0)"/>
<path style="fill:none;stroke-width:0.480001;stroke-linecap:round;stroke-linejoin:round;stroke:rgb(0%,0%,0%);stroke-opacity:1;stroke-miterlimit:10;" d="M 192.605469 -43.085938 L 192.125 -42.125 L 191.285156 -41.285156 L 190.445312 -40.925781 L 188.765625 -40.925781 L 187.804688 -41.285156 L 186.964844 -42.125 L 186.605469 -43.085938 L 186.125 -44.285156 L 186.125 -46.445312 L 186.605469 -47.765625 L 186.964844 -48.605469 L 187.804688 -49.445312 L 188.765625 -49.925781 L 190.445312 -49.925781 L 191.285156 -49.445312 L 192.125 -48.605469 L 192.605469 -47.765625 " transform="matrix(1,0,0,-1,0,0)"/>
<path style="fill:none;stroke-width:0.480001;stroke-linecap:round;stroke-linejoin:round;stroke:rgb(0%,0%,0%);stroke-opacity:1;stroke-miterlimit:10;" d="M 195.605469 -40.925781 L 195.605469 -47.285156 L 195.964844 -48.605469 L 196.804688 -49.445312 L 198.125 -49.925781 L 198.964844 -49.925781 L 200.285156 -49.445312 L 201.125 -48.605469 L 201.605469 -47.285156 L 201.605469 -40.925781 " transform="matrix(1,0,0,-1,0,0)"/>
<path style="fill:none;stroke-width:0.480001;stroke-linecap:round;stroke-linejoin:round;stroke:rgb(0%,0%,0%);stroke-opacity:1;stroke-miterlimit:10;" d="M 204.964844 -40.925781 L 204.964844 -49.925781 " transform="matrix(1,0,0,-1,0,0)"/>
<path style="fill:none;stroke-width:0.480001;stroke-linecap:round;stroke-linejoin:round;stroke:rgb(0%,0%,0%);stroke-opacity:1;stroke-miterlimit:10;" d="M 210.125 -40.925781 L 210.125 -49.925781 " transform="matrix(1,0,0,-1,0,0)"/>
<path style="fill:none;stroke-width:0.480001;stroke-linecap:round;stroke-linejoin:round;stroke:rgb(0%,0%,0%);stroke-opacity:1;stroke-miterlimit:10;" d="M 207.125 -40.925781 L 213.125 -40.925781 " transform="matrix(1,0,0,-1,0,0)"/>
<path style="fill:none;stroke-width:0.480001;stroke-linecap:round;stroke-linejoin:round;stroke:rgb(0%,0%,0%);stroke-opacity:1;stroke-miterlimit:10;" d="M 224.285156 -49.925781 L 224.285156 -40.925781 L 227.285156 -40.925781 L 228.605469 -41.285156 L 229.445312 -42.125 L 229.804688 -43.085938 L 230.285156 -44.285156 L 230.285156 -46.445312 L 229.804688 -47.765625 L 229.445312 -48.605469 L 228.605469 -49.445312 L 227.285156 -49.925781 Z M 224.285156 -49.925781 " transform="matrix(1,0,0,-1,0,0)"/>
<path style="fill:none;stroke-width:0.480001;stroke-linecap:round;stroke-linejoin:round;stroke:rgb(0%,0%,0%);stroke-opacity:1;stroke-miterlimit:10;" d="M 233.285156 -40.925781 L 233.285156 -49.925781 " transform="matrix(1,0,0,-1,0,0)"/>
<path style="fill:none;stroke-width:0.480001;stroke-linecap:round;stroke-linejoin:round;stroke:rgb(0%,0%,0%);stroke-opacity:1;stroke-miterlimit:10;" d="M 235.445312 -49.925781 L 238.804688 -40.925781 L 242.285156 -49.925781 " transform="matrix(1,0,0,-1,0,0)"/>
<path style="fill:none;stroke-width:0.480001;stroke-linecap:round;stroke-linejoin:round;stroke:rgb(0%,0%,0%);stroke-opacity:1;stroke-miterlimit:10;" d="M 236.765625 -46.925781 L 240.964844 -46.925781 " transform="matrix(1,0,0,-1,0,0)"/>
<path style="fill:none;stroke-width:0.480001;stroke-linecap:round;stroke-linejoin:round;stroke:rgb(0%,0%,0%);stroke-opacity:1;stroke-miterlimit:10;" d="M 250.445312 -43.085938 L 249.964844 -42.125 L 249.125 -41.285156 L 248.285156 -40.925781 L 246.605469 -40.925781 L 245.765625 -41.285156 L 244.804688 -42.125 L 244.445312 -43.085938 L 243.964844 -44.285156 L 243.964844 -46.445312 L 244.445312 -47.765625 L 244.804688 -48.605469 L 245.765625 -49.445312 L 246.605469 -49.925781 L 248.285156 -49.925781 L 249.125 -49.445312 L 249.964844 -48.605469 L 250.445312 -47.765625 L 250.445312 -46.445312 L 248.285156 -46.445312 " transform="matrix(1,0,0,-1,0,0)"/>
<path style="fill:none;stroke-width:0.480001;stroke-linecap:round;stroke-linejoin:round;stroke:rgb(0%,0%,0%);stroke-opacity:1;stroke-miterlimit:10;" d="M 253.445312 -49.925781 L 253.445312 -40.925781 L 257.285156 -40.925781 L 258.605469 -41.285156 L 258.964844 -41.765625 L 259.445312 -42.605469 L 259.445312 -43.445312 L 258.964844 -44.285156 L 258.605469 -44.765625 L 257.285156 -45.125 L 253.445312 -45.125 " transform="matrix(1,0,0,-1,0,0)"/>
<path style="fill:none;stroke-width:0.480001;stroke-linecap:round;stroke-linejoin:round;stroke:rgb(0%,0%,0%);stroke-opacity:1;stroke-miterlimit:10;" d="M 256.445312 -45.125 L 259.445312 -49.925781 " transform="matrix(1,0,0,-1,0,0)"/>
<path style="fill:none;stroke-width:0.480001;stroke-linecap:round;stroke-linejoin:round;stroke:rgb(0%,0%,0%);stroke-opacity:1;stroke-miterlimit:10;" d="M 261.125 -49.925781 L 264.605469 -40.925781 L 267.964844 -49.925781 " transform="matrix(1,0,0,-1,0,0)"/>
<path style="fill:none;stroke-width:0.480001;stroke-linecap:round;stroke-linejoin:round;stroke:rgb(0%,0%,0%);stroke-opacity:1;stroke-miterlimit:10;" d="M 262.445312 -46.925781 L 266.765625 -46.925781 " transform="matrix(1,0,0,-1,0,0)"/>
<path style="fill:none;stroke-width:0.480001;stroke-linecap:round;stroke-linejoin:round;stroke:rgb(0%,0%,0%);stroke-opacity:1;stroke-miterlimit:10;" d="M 270.125 -49.925781 L 270.125 -40.925781 L 273.605469 -49.925781 L 276.964844 -40.925781 L 276.964844 -49.925781 " transform="matrix(1,0,0,-1,0,0)"/>
<path style="fill:none;stroke-width:0.480001;stroke-linecap:round;stroke-linejoin:round;stroke:rgb(0%,0%,0%);stroke-opacity:1;stroke-miterlimit:10;" d="M 17.523438 -2.523438 L 16.683594 -3.367188 L 15.84375 -4.6875 L 15.003906 -6.367188 L 14.523438 -8.527344 L 14.523438 -10.207031 L 15.003906 -12.363281 L 15.84375 -14.046875 L 16.683594 -15.367188 L 17.523438 -16.207031 " transform="matrix(1,0,0,-1,0,0)"/>
<path style="fill:none;stroke-width:0.480001;stroke-linecap:round;stroke-linejoin:round;stroke:rgb(0%,0%,0%);stroke-opacity:1;stroke-miterlimit:10;" d="M 29.042969 -2.523438 L 30.003906 -3.367188 L 30.84375 -4.6875 L 31.683594 -6.367188 L 32.042969 -8.527344 L 32.042969 -10.207031 L 31.683594 -12.363281 L 30.84375 -14.046875 L 30.003906 -15.367188 L 29.042969 -16.207031 " transform="matrix(1,0,0,-1,0,0)"/>
<path style="fill:none;stroke-width:0.480001;stroke-linecap:round;stroke-linejoin:round;stroke:rgb(0%,0%,0%);stroke-opacity:1;stroke-miterlimit:10;" d="M 35.523438 -9.363281 L 43.203125 -9.363281 " transform="matrix(1,0,0,-1,0,0)"/>
<path style="fill:none;stroke-width:0.480001;stroke-linecap:round;stroke-linejoin:round;stroke:rgb(0%,0%,0%);stroke-opacity:1;stroke-miterlimit:10;" d="M 46.683594 -4.207031 L 46.683594 -13.207031 " transform="matrix(1,0,0,-1,0,0)"/>
<path style="fill:none;stroke-width:0.480001;stroke-linecap:round;stroke-linejoin:round;stroke:rgb(0%,0%,0%);stroke-opacity:1;stroke-miterlimit:10;" d="M 50.042969 -13.207031 L 50.042969 -4.207031 L 56.046875 -13.207031 L 56.046875 -4.207031 " transform="matrix(1,0,0,-1,0,0)"/>
<path style="fill:none;stroke-width:0.480001;stroke-linecap:round;stroke-linejoin:round;stroke:rgb(0%,0%,0%);stroke-opacity:1;stroke-miterlimit:10;" d="M 59.523438 -13.207031 L 59.523438 -4.207031 L 62.523438 -4.207031 L 63.84375 -4.6875 L 64.683594 -5.523438 L 65.042969 -6.367188 L 65.523438 -7.6875 L 65.523438 -9.847656 L 65.042969 -11.046875 L 64.683594 -12.003906 L 63.84375 -12.847656 L 62.523438 -13.207031 Z M 59.523438 -13.207031 " transform="matrix(1,0,0,-1,0,0)"/>
<path style="fill:none;stroke-width:0.480001;stroke-linecap:round;stroke-linejoin:round;stroke:rgb(0%,0%,0%);stroke-opacity:1;stroke-miterlimit:10;" d="M 68.523438 -4.207031 L 68.523438 -13.207031 " transform="matrix(1,0,0,-1,0,0)"/>
<path style="fill:none;stroke-width:0.480001;stroke-linecap:round;stroke-linejoin:round;stroke:rgb(0%,0%,0%);stroke-opacity:1;stroke-miterlimit:10;" d="M 78.003906 -6.367188 L 77.523438 -5.523438 L 76.683594 -4.6875 L 75.84375 -4.207031 L 74.046875 -4.207031 L 73.203125 -4.6875 L 72.363281 -5.523438 L 72.003906 -6.367188 L 71.523438 -7.6875 L 71.523438 -9.847656 L 72.003906 -11.046875 L 72.363281 -12.003906 L 73.203125 -12.847656 L 74.046875 -13.207031 L 75.84375 -13.207031 L 76.683594 -12.847656 L 77.523438 -12.003906 L 78.003906 -11.046875 " transform="matrix(1,0,0,-1,0,0)"/>
<path style="fill:none;stroke-width:0.480001;stroke-linecap:round;stroke-linejoin:round;stroke:rgb(0%,0%,0%);stroke-opacity:1;stroke-miterlimit:10;" d="M 79.683594 -13.207031 L 83.042969 -4.207031 L 86.523438 -13.207031 " transform="matrix(1,0,0,-1,0,0)"/>
<path style="fill:none;stroke-width:0.480001;stroke-linecap:round;stroke-linejoin:round;stroke:rgb(0%,0%,0%);stroke-opacity:1;stroke-miterlimit:10;" d="M 81.003906 -10.207031 L 85.203125 -10.207031 " transform="matrix(1,0,0,-1,0,0)"/>
<path style="fill:none;stroke-width:0.480001;stroke-linecap:round;stroke-linejoin:round;stroke:rgb(0%,0%,0%);stroke-opacity:1;stroke-miterlimit:10;" d="M 90.363281 -4.207031 L 90.363281 -13.207031 " transform="matrix(1,0,0,-1,0,0)"/>
<path style="fill:none;stroke-width:0.480001;stroke-linecap:round;stroke-linejoin:round;stroke:rgb(0%,0%,0%);stroke-opacity:1;stroke-miterlimit:10;" d="M 87.363281 -4.207031 L 93.363281 -4.207031 " transform="matrix(1,0,0,-1,0,0)"/>
<path style="fill:none;stroke-width:0.480001;stroke-linecap:round;stroke-linejoin:round;stroke:rgb(0%,0%,0%);stroke-opacity:1;stroke-miterlimit:10;" d="M 95.523438 -13.207031 L 95.523438 -4.207031 L 101.042969 -4.207031 " transform="matrix(1,0,0,-1,0,0)"/>
<path style="fill:none;stroke-width:0.480001;stroke-linecap:round;stroke-linejoin:round;stroke:rgb(0%,0%,0%);stroke-opacity:1;stroke-miterlimit:10;" d="M 95.523438 -8.527344 L 99.003906 -8.527344 " transform="matrix(1,0,0,-1,0,0)"/>
<path style="fill:none;stroke-width:0.480001;stroke-linecap:round;stroke-linejoin:round;stroke:rgb(0%,0%,0%);stroke-opacity:1;stroke-miterlimit:10;" d="M 95.523438 -13.207031 L 101.042969 -13.207031 " transform="matrix(1,0,0,-1,0,0)"/>
<path style="fill:none;stroke-width:0.480001;stroke-linecap:round;stroke-linejoin:round;stroke:rgb(0%,0%,0%);stroke-opacity:1;stroke-miterlimit:10;" d="M 109.207031 -5.523438 L 108.363281 -4.6875 L 107.042969 -4.207031 L 105.363281 -4.207031 L 104.042969 -4.6875 L 103.203125 -5.523438 L 103.203125 -6.367188 L 103.683594 -7.207031 L 104.042969 -7.6875 L 104.882812 -8.046875 L 107.523438 -9.003906 L 108.363281 -9.363281 L 108.84375 -9.847656 L 109.207031 -10.6875 L 109.207031 -12.003906 L 108.363281 -12.847656 L 107.042969 -13.207031 L 105.363281 -13.207031 L 104.042969 -12.847656 L 103.203125 -12.003906 " transform="matrix(1,0,0,-1,0,0)"/>
<path style="fill:none;stroke-width:0.480001;stroke-linecap:round;stroke-linejoin:round;stroke:rgb(0%,0%,0%);stroke-opacity:1;stroke-miterlimit:10;" d="M 121.207031 -13.207031 L 121.207031 -4.207031 L 124.683594 -13.207031 L 128.046875 -4.207031 L 128.046875 -13.207031 " transform="matrix(1,0,0,-1,0,0)"/>
<path style="fill:none;stroke-width:0.480001;stroke-linecap:round;stroke-linejoin:round;stroke:rgb(0%,0%,0%);stroke-opacity:1;stroke-miterlimit:10;" d="M 133.683594 -4.207031 L 132.84375 -4.6875 L 131.882812 -5.523438 L 131.523438 -6.367188 L 131.046875 -7.6875 L 131.046875 -9.847656 L 131.523438 -11.046875 L 131.882812 -12.003906 L 132.84375 -12.847656 L 133.683594 -13.207031 L 135.363281 -13.207031 L 136.203125 -12.847656 L 137.046875 -12.003906 L 137.523438 -11.046875 L 137.886719 -9.847656 L 137.886719 -7.6875 L 137.523438 -6.367188 L 137.046875 -5.523438 L 136.203125 -4.6875 L 135.363281 -4.207031 Z M 133.683594 -4.207031 " transform="matrix(1,0,0,-1,0,0)"/>
<path style="fill:none;stroke-width:0.480001;stroke-linecap:round;stroke-linejoin:round;stroke:rgb(0%,0%,0%);stroke-opacity:1;stroke-miterlimit:10;" d="M 140.886719 -13.207031 L 140.886719 -4.207031 L 144.363281 -13.207031 L 147.84375 -4.207031 L 147.84375 -13.207031 " transform="matrix(1,0,0,-1,0,0)"/>
<path style="fill:none;stroke-width:0.480001;stroke-linecap:round;stroke-linejoin:round;stroke:rgb(0%,0%,0%);stroke-opacity:1;stroke-miterlimit:10;" d="M 151.203125 -13.207031 L 151.203125 -4.207031 L 156.84375 -4.207031 " transform="matrix(1,0,0,-1,0,0)"/>
<path style="fill:none;stroke-width:0.480001;stroke-linecap:round;stroke-linejoin:round;stroke:rgb(0%,0%,0%);stroke-opacity:1;stroke-miterlimit:10;" d="M 151.203125 -8.527344 L 154.683594 -8.527344 " transform="matrix(1,0,0,-1,0,0)"/>
<path style="fill:none;stroke-width:0.480001;stroke-linecap:round;stroke-linejoin:round;stroke:rgb(0%,0%,0%);stroke-opacity:1;stroke-miterlimit:10;" d="M 151.203125 -13.207031 L 156.84375 -13.207031 " transform="matrix(1,0,0,-1,0,0)"/>
<path style="fill:none;stroke-width:0.480001;stroke-linecap:round;stroke-linejoin:round;stroke:rgb(0%,0%,0%);stroke-opacity:1;stroke-miterlimit:10;" d="M 159.367188 -13.207031 L 159.367188 -4.207031 L 165.367188 -13.207031 L 165.367188 -4.207031 " transform="matrix(1,0,0,-1,0,0)"/>
<path style="fill:none;stroke-width:0.480001;stroke-linecap:round;stroke-linejoin:round;stroke:rgb(0%,0%,0%);stroke-opacity:1;stroke-miterlimit:10;" d="M 170.523438 -4.207031 L 170.523438 -13.207031 " transform="matrix(1,0,0,-1,0,0)"/>
<path style="fill:none;stroke-width:0.480001;stroke-linecap:round;stroke-linejoin:round;stroke:rgb(0%,0%,0%);stroke-opacity:1;stroke-miterlimit:10;" d="M 167.523438 -4.207031 L 173.523438 -4.207031 " transform="matrix(1,0,0,-1,0,0)"/>
<path style="fill:none;stroke-width:0.480001;stroke-linecap:round;stroke-linejoin:round;stroke:rgb(0%,0%,0%);stroke-opacity:1;stroke-miterlimit:10;" d="M 174.363281 -13.207031 L 177.84375 -4.207031 L 181.207031 -13.207031 " transform="matrix(1,0,0,-1,0,0)"/>
<path style="fill:none;stroke-width:0.480001;stroke-linecap:round;stroke-linejoin:round;stroke:rgb(0%,0%,0%);stroke-opacity:1;stroke-miterlimit:10;" d="M 175.683594 -10.207031 L 179.886719 -10.207031 " transform="matrix(1,0,0,-1,0,0)"/>
<path style="fill:none;stroke-width:0.480001;stroke-linecap:round;stroke-linejoin:round;stroke:rgb(0%,0%,0%);stroke-opacity:1;stroke-miterlimit:10;" d="M 183.363281 -13.207031 L 183.363281 -4.207031 L 187.203125 -4.207031 L 188.523438 -4.6875 L 188.886719 -5.046875 L 189.363281 -6.003906 L 189.363281 -6.847656 L 188.886719 -7.6875 L 188.523438 -8.046875 L 187.203125 -8.527344 L 183.363281 -8.527344 " transform="matrix(1,0,0,-1,0,0)"/>
<path style="fill:none;stroke-width:0.480001;stroke-linecap:round;stroke-linejoin:round;stroke:rgb(0%,0%,0%);stroke-opacity:1;stroke-miterlimit:10;" d="M 186.363281 -8.527344 L 189.363281 -13.207031 " transform="matrix(1,0,0,-1,0,0)"/>
<path style="fill:none;stroke-width:0.480001;stroke-linecap:round;stroke-linejoin:round;stroke:rgb(0%,0%,0%);stroke-opacity:1;stroke-miterlimit:10;" d="M 191.046875 -4.207031 L 194.523438 -8.527344 L 194.523438 -13.207031 " transform="matrix(1,0,0,-1,0,0)"/>
<path style="fill:none;stroke-width:0.480001;stroke-linecap:round;stroke-linejoin:round;stroke:rgb(0%,0%,0%);stroke-opacity:1;stroke-miterlimit:10;" d="M 197.886719 -4.207031 L 194.523438 -8.527344 " transform="matrix(1,0,0,-1,0,0)"/>
<path style="fill:none;stroke-width:0.480001;stroke-linecap:round;stroke-linejoin:round;stroke:rgb(0%,0%,0%);stroke-opacity:1;stroke-miterlimit:10;" d="M 209.042969 -13.207031 L 209.042969 -4.207031 L 212.882812 -4.207031 L 214.203125 -4.6875 L 214.683594 -5.046875 L 215.046875 -6.003906 L 215.046875 -7.207031 L 214.683594 -8.046875 L 214.203125 -8.527344 L 212.882812 -9.003906 L 209.042969 -9.003906 " transform="matrix(1,0,0,-1,0,0)"/>
<path style="fill:none;stroke-width:0.480001;stroke-linecap:round;stroke-linejoin:round;stroke:rgb(0%,0%,0%);stroke-opacity:1;stroke-miterlimit:10;" d="M 220.207031 -4.207031 L 219.367188 -4.6875 L 218.523438 -5.523438 L 218.042969 -6.367188 L 217.683594 -7.6875 L 217.683594 -9.847656 L 218.042969 -11.046875 L 218.523438 -12.003906 L 219.367188 -12.847656 L 220.207031 -13.207031 L 221.886719 -13.207031 L 222.84375 -12.847656 L 223.683594 -12.003906 L 224.042969 -11.046875 L 224.523438 -9.847656 L 224.523438 -7.6875 L 224.042969 -6.367188 L 223.683594 -5.523438 L 222.84375 -4.6875 L 221.886719 -4.207031 Z M 220.207031 -4.207031 " transform="matrix(1,0,0,-1,0,0)"/>
<path style="fill:none;stroke-width:0.480001;stroke-linecap:round;stroke-linejoin:round;stroke:rgb(0%,0%,0%);stroke-opacity:1;stroke-miterlimit:10;" d="M 233.046875 -5.523438 L 232.207031 -4.6875 L 230.882812 -4.207031 L 229.207031 -4.207031 L 227.882812 -4.6875 L 227.046875 -5.523438 L 227.046875 -6.367188 L 227.523438 -7.207031 L 227.882812 -7.6875 L 228.722656 -8.046875 L 231.363281 -9.003906 L 232.207031 -9.363281 L 232.683594 -9.847656 L 233.046875 -10.6875 L 233.046875 -12.003906 L 232.207031 -12.847656 L 230.882812 -13.207031 L 229.207031 -13.207031 L 227.882812 -12.847656 L 227.046875 -12.003906 " transform="matrix(1,0,0,-1,0,0)"/>
<path style="fill:none;stroke-width:0.480001;stroke-linecap:round;stroke-linejoin:round;stroke:rgb(0%,0%,0%);stroke-opacity:1;stroke-miterlimit:10;" d="M 236.046875 -4.207031 L 236.046875 -13.207031 " transform="matrix(1,0,0,-1,0,0)"/>
<path style="fill:none;stroke-width:0.480001;stroke-linecap:round;stroke-linejoin:round;stroke:rgb(0%,0%,0%);stroke-opacity:1;stroke-miterlimit:10;" d="M 241.207031 -4.207031 L 241.207031 -13.207031 " transform="matrix(1,0,0,-1,0,0)"/>
<path style="fill:none;stroke-width:0.480001;stroke-linecap:round;stroke-linejoin:round;stroke:rgb(0%,0%,0%);stroke-opacity:1;stroke-miterlimit:10;" d="M 238.207031 -4.207031 L 244.203125 -4.207031 " transform="matrix(1,0,0,-1,0,0)"/>
<path style="fill:none;stroke-width:0.480001;stroke-linecap:round;stroke-linejoin:round;stroke:rgb(0%,0%,0%);stroke-opacity:1;stroke-miterlimit:10;" d="M 246.363281 -4.207031 L 246.363281 -13.207031 " transform="matrix(1,0,0,-1,0,0)"/>
<path style="fill:none;stroke-width:0.480001;stroke-linecap:round;stroke-linejoin:round;stroke:rgb(0%,0%,0%);stroke-opacity:1;stroke-miterlimit:10;" d="M 251.886719 -4.207031 L 251.046875 -4.6875 L 250.203125 -5.523438 L 249.726562 -6.367188 L 249.363281 -7.6875 L 249.363281 -9.847656 L 249.726562 -11.046875 L 250.203125 -12.003906 L 251.046875 -12.847656 L 251.886719 -13.207031 L 253.683594 -13.207031 L 254.527344 -12.847656 L 255.363281 -12.003906 L 255.726562 -11.046875 L 256.203125 -9.847656 L 256.203125 -7.6875 L 255.726562 -6.367188 L 255.363281 -5.523438 L 254.527344 -4.6875 L 253.683594 -4.207031 Z M 251.886719 -4.207031 " transform="matrix(1,0,0,-1,0,0)"/>
<path style="fill:none;stroke-width:0.480001;stroke-linecap:round;stroke-linejoin:round;stroke:rgb(0%,0%,0%);stroke-opacity:1;stroke-miterlimit:10;" d="M 259.203125 -13.207031 L 259.203125 -4.207031 L 265.207031 -13.207031 L 265.207031 -4.207031 " transform="matrix(1,0,0,-1,0,0)"/>
<path style="fill:none;stroke-width:0.720003;stroke-linecap:round;stroke-linejoin:round;stroke:rgb(0%,0%,0%);stroke-opacity:1;stroke-miterlimit:10;" d="M 238.804688 -101.644531 L 256.804688 -101.644531 " transform="matrix(1,0,0,-1,0,0)"/>
<g clip-path="url(#clip6)" clip-rule="nonzero">
<path style="fill:none;stroke-width:0.720003;stroke-linecap:round;stroke-linejoin:round;stroke:rgb(0%,0%,0%);stroke-opacity:1;stroke-miterlimit:10;" d="M 0.363281 -180.367188 L 0.363281 -0.363281 " transform="matrix(1,0,0,-1,0,0)"/>
</g>
<path style="fill:none;stroke-width:0.480001;stroke-linecap:round;stroke-linejoin:round;stroke:rgb(0%,0%,0%);stroke-opacity:1;stroke-miterlimit:10;" d="M 28.203125 -43.085938 L 27.726562 -42.125 L 26.886719 -41.285156 L 26.042969 -40.925781 L 24.246094 -40.925781 L 23.402344 -41.285156 L 22.5625 -42.125 L 22.203125 -43.085938 L 21.722656 -44.285156 L 21.722656 -46.445312 L 22.203125 -47.765625 L 22.5625 -48.605469 L 23.402344 -49.445312 L 24.246094 -49.925781 L 26.042969 -49.925781 L 26.886719 -49.445312 L 27.726562 -48.605469 L 28.203125 -47.765625 " transform="matrix(1,0,0,-1,0,0)"/>
<path style="fill:none;stroke-width:0.480001;stroke-linecap:round;stroke-linejoin:round;stroke:rgb(0%,0%,0%);stroke-opacity:1;stroke-miterlimit:10;" d="M 33.242188 -40.925781 L 32.402344 -41.285156 L 31.5625 -42.125 L 31.203125 -43.085938 L 30.726562 -44.285156 L 30.726562 -46.445312 L 31.203125 -47.765625 L 31.5625 -48.605469 L 32.402344 -49.445312 L 33.242188 -49.925781 L 35.042969 -49.925781 L 35.882812 -49.445312 L 36.726562 -48.605469 L 37.203125 -47.765625 L 37.566406 -46.445312 L 37.566406 -44.285156 L 37.203125 -43.085938 L 36.726562 -42.125 L 35.882812 -41.285156 L 35.042969 -40.925781 Z M 33.242188 -40.925781 " transform="matrix(1,0,0,-1,0,0)"/>
<path style="fill:none;stroke-width:0.480001;stroke-linecap:round;stroke-linejoin:round;stroke:rgb(0%,0%,0%);stroke-opacity:1;stroke-miterlimit:10;" d="M 40.566406 -49.925781 L 40.566406 -40.925781 L 46.566406 -49.925781 L 46.566406 -40.925781 " transform="matrix(1,0,0,-1,0,0)"/>
<path style="fill:none;stroke-width:0.480001;stroke-linecap:round;stroke-linejoin:round;stroke:rgb(0%,0%,0%);stroke-opacity:1;stroke-miterlimit:10;" d="M 51.722656 -40.925781 L 51.722656 -49.925781 " transform="matrix(1,0,0,-1,0,0)"/>
<path style="fill:none;stroke-width:0.480001;stroke-linecap:round;stroke-linejoin:round;stroke:rgb(0%,0%,0%);stroke-opacity:1;stroke-miterlimit:10;" d="M 48.722656 -40.925781 L 54.722656 -40.925781 " transform="matrix(1,0,0,-1,0,0)"/>
<path style="fill:none;stroke-width:0.480001;stroke-linecap:round;stroke-linejoin:round;stroke:rgb(0%,0%,0%);stroke-opacity:1;stroke-miterlimit:10;" d="M 55.566406 -49.925781 L 59.042969 -40.925781 L 62.40625 -49.925781 " transform="matrix(1,0,0,-1,0,0)"/>
<path style="fill:none;stroke-width:0.480001;stroke-linecap:round;stroke-linejoin:round;stroke:rgb(0%,0%,0%);stroke-opacity:1;stroke-miterlimit:10;" d="M 56.882812 -46.925781 L 61.207031 -46.925781 " transform="matrix(1,0,0,-1,0,0)"/>
<path style="fill:none;stroke-width:0.480001;stroke-linecap:round;stroke-linejoin:round;stroke:rgb(0%,0%,0%);stroke-opacity:1;stroke-miterlimit:10;" d="M 70.5625 -43.085938 L 70.203125 -42.125 L 69.246094 -41.285156 L 68.40625 -40.925781 L 66.722656 -40.925781 L 65.886719 -41.285156 L 65.042969 -42.125 L 64.5625 -43.085938 L 64.207031 -44.285156 L 64.207031 -46.445312 L 64.5625 -47.765625 L 65.042969 -48.605469 L 65.886719 -49.445312 L 66.722656 -49.925781 L 68.40625 -49.925781 L 69.246094 -49.445312 L 70.203125 -48.605469 L 70.5625 -47.765625 " transform="matrix(1,0,0,-1,0,0)"/>
<path style="fill:none;stroke-width:0.480001;stroke-linecap:round;stroke-linejoin:round;stroke:rgb(0%,0%,0%);stroke-opacity:1;stroke-miterlimit:10;" d="M 75.246094 -40.925781 L 75.246094 -49.925781 " transform="matrix(1,0,0,-1,0,0)"/>
<path style="fill:none;stroke-width:0.480001;stroke-linecap:round;stroke-linejoin:round;stroke:rgb(0%,0%,0%);stroke-opacity:1;stroke-miterlimit:10;" d="M 72.246094 -40.925781 L 78.246094 -40.925781 " transform="matrix(1,0,0,-1,0,0)"/>
<path style="fill:none;stroke-width:0.480001;stroke-linecap:round;stroke-linejoin:round;stroke:rgb(0%,0%,0%);stroke-opacity:1;stroke-miterlimit:10;" d="M 89.40625 -49.925781 L 89.40625 -40.925781 L 93.246094 -40.925781 L 94.566406 -41.285156 L 95.042969 -41.765625 L 95.402344 -42.605469 L 95.402344 -43.925781 L 95.042969 -44.765625 L 94.566406 -45.125 L 93.246094 -45.605469 L 89.40625 -45.605469 " transform="matrix(1,0,0,-1,0,0)"/>
<path style="fill:none;stroke-width:0.480001;stroke-linecap:round;stroke-linejoin:round;stroke:rgb(0%,0%,0%);stroke-opacity:1;stroke-miterlimit:10;" d="M 100.566406 -40.925781 L 99.726562 -41.285156 L 98.882812 -42.125 L 98.40625 -43.085938 L 98.042969 -44.285156 L 98.042969 -46.445312 L 98.40625 -47.765625 L 98.882812 -48.605469 L 99.726562 -49.445312 L 100.566406 -49.925781 L 102.246094 -49.925781 L 103.085938 -49.445312 L 104.042969 -48.605469 L 104.40625 -47.765625 L 104.882812 -46.445312 L 104.882812 -44.285156 L 104.40625 -43.085938 L 104.042969 -42.125 L 103.085938 -41.285156 L 102.246094 -40.925781 Z M 100.566406 -40.925781 " transform="matrix(1,0,0,-1,0,0)"/>
<path style="fill:none;stroke-width:0.480001;stroke-linecap:round;stroke-linejoin:round;stroke:rgb(0%,0%,0%);stroke-opacity:1;stroke-miterlimit:10;" d="M 113.40625 -42.125 L 112.566406 -41.285156 L 111.246094 -40.925781 L 109.566406 -40.925781 L 108.246094 -41.285156 L 107.40625 -42.125 L 107.40625 -43.085938 L 107.882812 -43.925781 L 108.246094 -44.285156 L 109.085938 -44.765625 L 111.722656 -45.605469 L 112.566406 -46.085938 L 113.046875 -46.445312 L 113.40625 -47.285156 L 113.40625 -48.605469 L 112.566406 -49.445312 L 111.246094 -49.925781 L 109.566406 -49.925781 L 108.246094 -49.445312 L 107.40625 -48.605469 " transform="matrix(1,0,0,-1,0,0)"/>
<path style="fill:none;stroke-width:0.480001;stroke-linecap:round;stroke-linejoin:round;stroke:rgb(0%,0%,0%);stroke-opacity:1;stroke-miterlimit:10;" d="M 116.40625 -40.925781 L 116.40625 -49.925781 " transform="matrix(1,0,0,-1,0,0)"/>
<path style="fill:none;stroke-width:0.480001;stroke-linecap:round;stroke-linejoin:round;stroke:rgb(0%,0%,0%);stroke-opacity:1;stroke-miterlimit:10;" d="M 121.5625 -40.925781 L 121.5625 -49.925781 " transform="matrix(1,0,0,-1,0,0)"/>
<path style="fill:none;stroke-width:0.480001;stroke-linecap:round;stroke-linejoin:round;stroke:rgb(0%,0%,0%);stroke-opacity:1;stroke-miterlimit:10;" d="M 118.5625 -40.925781 L 124.5625 -40.925781 " transform="matrix(1,0,0,-1,0,0)"/>
<path style="fill:none;stroke-width:0.480001;stroke-linecap:round;stroke-linejoin:round;stroke:rgb(0%,0%,0%);stroke-opacity:1;stroke-miterlimit:10;" d="M 126.722656 -40.925781 L 126.722656 -49.925781 " transform="matrix(1,0,0,-1,0,0)"/>
<path style="fill:none;stroke-width:0.480001;stroke-linecap:round;stroke-linejoin:round;stroke:rgb(0%,0%,0%);stroke-opacity:1;stroke-miterlimit:10;" d="M 132.246094 -40.925781 L 131.402344 -41.285156 L 130.5625 -42.125 L 130.085938 -43.085938 L 129.726562 -44.285156 L 129.726562 -46.445312 L 130.085938 -47.765625 L 130.5625 -48.605469 L 131.402344 -49.445312 L 132.246094 -49.925781 L 134.046875 -49.925781 L 134.886719 -49.445312 L 135.726562 -48.605469 L 136.085938 -47.765625 L 136.566406 -46.445312 L 136.566406 -44.285156 L 136.085938 -43.085938 L 135.726562 -42.125 L 134.886719 -41.285156 L 134.046875 -40.925781 Z M 132.246094 -40.925781 " transform="matrix(1,0,0,-1,0,0)"/>
<path style="fill:none;stroke-width:0.480001;stroke-linecap:round;stroke-linejoin:round;stroke:rgb(0%,0%,0%);stroke-opacity:1;stroke-miterlimit:10;" d="M 139.566406 -49.925781 L 139.566406 -40.925781 L 145.566406 -49.925781 L 145.566406 -40.925781 " transform="matrix(1,0,0,-1,0,0)"/>
<path style="fill:none;stroke-width:0.720003;stroke-linecap:round;stroke-linejoin:round;stroke:rgb(0%,0%,0%);stroke-opacity:1;stroke-miterlimit:10;" d="M 74.046875 -97.445312 L 64.5625 -86.167969 L 71.523438 -63.605469 L 53.285156 -63.605469 " transform="matrix(1,0,0,-1,0,0)"/>
<path style="fill:none;stroke-width:0.720003;stroke-linecap:round;stroke-linejoin:round;stroke:rgb(0%,0%,0%);stroke-opacity:1;stroke-miterlimit:10;" d="M 75.246094 -117.605469 L 53.285156 -117.605469 " transform="matrix(1,0,0,-1,0,0)"/>
<path style="fill:none;stroke-width:0.720003;stroke-linecap:round;stroke-linejoin:round;stroke:rgb(0%,0%,0%);stroke-opacity:1;stroke-miterlimit:10;" d="M 162.367188 -126.367188 L 0.363281 -126.367188 " transform="matrix(1,0,0,-1,0,0)"/>
<path style="fill:none;stroke-width:0.480001;stroke-linecap:round;stroke-linejoin:round;stroke:rgb(0%,0%,0%);stroke-opacity:1;stroke-miterlimit:10;" d="M 60.125 -25.085938 L 59.765625 -24.125 L 58.921875 -23.285156 L 57.964844 -22.925781 L 56.285156 -22.925781 L 55.445312 -23.285156 L 54.605469 -24.125 L 54.125 -25.085938 L 53.765625 -26.285156 L 53.765625 -28.445312 L 54.125 -29.765625 L 54.605469 -30.605469 L 55.445312 -31.445312 L 56.285156 -31.925781 L 57.964844 -31.925781 L 58.921875 -31.445312 L 59.765625 -30.605469 L 60.125 -29.765625 " transform="matrix(1,0,0,-1,0,0)"/>
<path style="fill:none;stroke-width:0.480001;stroke-linecap:round;stroke-linejoin:round;stroke:rgb(0%,0%,0%);stroke-opacity:1;stroke-miterlimit:10;" d="M 63.125 -22.925781 L 63.125 -31.925781 " transform="matrix(1,0,0,-1,0,0)"/>
<path style="fill:none;stroke-width:0.480001;stroke-linecap:round;stroke-linejoin:round;stroke:rgb(0%,0%,0%);stroke-opacity:1;stroke-miterlimit:10;" d="M 66.605469 -31.925781 L 66.605469 -22.925781 L 70.445312 -22.925781 L 71.765625 -23.285156 L 72.125 -23.765625 L 72.605469 -24.605469 L 72.605469 -25.445312 L 72.125 -26.285156 L 71.765625 -26.765625 L 70.445312 -27.125 L 66.605469 -27.125 " transform="matrix(1,0,0,-1,0,0)"/>
<path style="fill:none;stroke-width:0.480001;stroke-linecap:round;stroke-linejoin:round;stroke:rgb(0%,0%,0%);stroke-opacity:1;stroke-miterlimit:10;" d="M 69.605469 -27.125 L 72.605469 -31.925781 " transform="matrix(1,0,0,-1,0,0)"/>
<path style="fill:none;stroke-width:0.480001;stroke-linecap:round;stroke-linejoin:round;stroke:rgb(0%,0%,0%);stroke-opacity:1;stroke-miterlimit:10;" d="M 81.605469 -25.085938 L 81.125 -24.125 L 80.285156 -23.285156 L 79.445312 -22.925781 L 77.765625 -22.925781 L 76.925781 -23.285156 L 75.964844 -24.125 L 75.605469 -25.085938 L 75.125 -26.285156 L 75.125 -28.445312 L 75.605469 -29.765625 L 75.964844 -30.605469 L 76.925781 -31.445312 L 77.765625 -31.925781 L 79.445312 -31.925781 L 80.285156 -31.445312 L 81.125 -30.605469 L 81.605469 -29.765625 " transform="matrix(1,0,0,-1,0,0)"/>
<path style="fill:none;stroke-width:0.480001;stroke-linecap:round;stroke-linejoin:round;stroke:rgb(0%,0%,0%);stroke-opacity:1;stroke-miterlimit:10;" d="M 84.605469 -22.925781 L 84.605469 -29.285156 L 84.964844 -30.605469 L 85.925781 -31.445312 L 87.125 -31.925781 L 87.964844 -31.925781 L 89.285156 -31.445312 L 90.125 -30.605469 L 90.605469 -29.285156 L 90.605469 -22.925781 " transform="matrix(1,0,0,-1,0,0)"/>
<path style="fill:none;stroke-width:0.480001;stroke-linecap:round;stroke-linejoin:round;stroke:rgb(0%,0%,0%);stroke-opacity:1;stroke-miterlimit:10;" d="M 93.964844 -22.925781 L 93.964844 -31.925781 " transform="matrix(1,0,0,-1,0,0)"/>
<path style="fill:none;stroke-width:0.480001;stroke-linecap:round;stroke-linejoin:round;stroke:rgb(0%,0%,0%);stroke-opacity:1;stroke-miterlimit:10;" d="M 99.125 -22.925781 L 99.125 -31.925781 " transform="matrix(1,0,0,-1,0,0)"/>
<path style="fill:none;stroke-width:0.480001;stroke-linecap:round;stroke-linejoin:round;stroke:rgb(0%,0%,0%);stroke-opacity:1;stroke-miterlimit:10;" d="M 96.125 -22.925781 L 102.125 -22.925781 " transform="matrix(1,0,0,-1,0,0)"/>
<path style="fill:none;stroke-width:0.480001;stroke-linecap:round;stroke-linejoin:round;stroke:rgb(0%,0%,0%);stroke-opacity:1;stroke-miterlimit:10;" d="M 119.285156 -25.085938 L 118.925781 -24.125 L 117.964844 -23.285156 L 117.125 -22.925781 L 115.445312 -22.925781 L 114.605469 -23.285156 L 113.765625 -24.125 L 113.285156 -25.085938 L 112.925781 -26.285156 L 112.925781 -28.445312 L 113.285156 -29.765625 L 113.765625 -30.605469 L 114.605469 -31.445312 L 115.445312 -31.925781 L 117.125 -31.925781 L 117.964844 -31.445312 L 118.925781 -30.605469 L 119.285156 -29.765625 " transform="matrix(1,0,0,-1,0,0)"/>
<path style="fill:none;stroke-width:0.480001;stroke-linecap:round;stroke-linejoin:round;stroke:rgb(0%,0%,0%);stroke-opacity:1;stroke-miterlimit:10;" d="M 122.285156 -22.925781 L 122.285156 -31.925781 " transform="matrix(1,0,0,-1,0,0)"/>
<path style="fill:none;stroke-width:0.480001;stroke-linecap:round;stroke-linejoin:round;stroke:rgb(0%,0%,0%);stroke-opacity:1;stroke-miterlimit:10;" d="M 128.285156 -22.925781 L 128.285156 -31.925781 " transform="matrix(1,0,0,-1,0,0)"/>
<path style="fill:none;stroke-width:0.480001;stroke-linecap:round;stroke-linejoin:round;stroke:rgb(0%,0%,0%);stroke-opacity:1;stroke-miterlimit:10;" d="M 122.285156 -27.125 L 128.285156 -27.125 " transform="matrix(1,0,0,-1,0,0)"/>
<path style="fill:none;stroke-width:0.480001;stroke-linecap:round;stroke-linejoin:round;stroke:rgb(0%,0%,0%);stroke-opacity:1;stroke-miterlimit:10;" d="M 130.445312 -31.925781 L 133.925781 -22.925781 L 137.285156 -31.925781 " transform="matrix(1,0,0,-1,0,0)"/>
<path style="fill:none;stroke-width:0.480001;stroke-linecap:round;stroke-linejoin:round;stroke:rgb(0%,0%,0%);stroke-opacity:1;stroke-miterlimit:10;" d="M 131.765625 -28.925781 L 135.964844 -28.925781 " transform="matrix(1,0,0,-1,0,0)"/>
<path style="fill:none;stroke-width:0.480001;stroke-linecap:round;stroke-linejoin:round;stroke:rgb(0%,0%,0%);stroke-opacity:1;stroke-miterlimit:10;" d="M 139.445312 -31.925781 L 139.445312 -22.925781 L 143.285156 -22.925781 L 144.605469 -23.285156 L 144.964844 -23.765625 L 145.445312 -24.605469 L 145.445312 -25.445312 L 144.964844 -26.285156 L 144.605469 -26.765625 L 143.285156 -27.125 L 139.445312 -27.125 " transform="matrix(1,0,0,-1,0,0)"/>
<path style="fill:none;stroke-width:0.480001;stroke-linecap:round;stroke-linejoin:round;stroke:rgb(0%,0%,0%);stroke-opacity:1;stroke-miterlimit:10;" d="M 142.445312 -27.125 L 145.445312 -31.925781 " transform="matrix(1,0,0,-1,0,0)"/>
<path style="fill:none;stroke-width:0.480001;stroke-linecap:round;stroke-linejoin:round;stroke:rgb(0%,0%,0%);stroke-opacity:1;stroke-miterlimit:10;" d="M 147.125 -31.925781 L 150.605469 -22.925781 L 153.964844 -31.925781 " transform="matrix(1,0,0,-1,0,0)"/>
<path style="fill:none;stroke-width:0.480001;stroke-linecap:round;stroke-linejoin:round;stroke:rgb(0%,0%,0%);stroke-opacity:1;stroke-miterlimit:10;" d="M 148.445312 -28.925781 L 152.765625 -28.925781 " transform="matrix(1,0,0,-1,0,0)"/>
<path style="fill:none;stroke-width:0.480001;stroke-linecap:round;stroke-linejoin:round;stroke:rgb(0%,0%,0%);stroke-opacity:1;stroke-miterlimit:10;" d="M 162.125 -25.085938 L 161.765625 -24.125 L 160.925781 -23.285156 L 159.964844 -22.925781 L 158.285156 -22.925781 L 157.445312 -23.285156 L 156.605469 -24.125 L 156.125 -25.085938 L 155.765625 -26.285156 L 155.765625 -28.445312 L 156.125 -29.765625 L 156.605469 -30.605469 L 157.445312 -31.445312 L 158.285156 -31.925781 L 159.964844 -31.925781 L 160.925781 -31.445312 L 161.765625 -30.605469 L 162.125 -29.765625 " transform="matrix(1,0,0,-1,0,0)"/>
<path style="fill:none;stroke-width:0.480001;stroke-linecap:round;stroke-linejoin:round;stroke:rgb(0%,0%,0%);stroke-opacity:1;stroke-miterlimit:10;" d="M 166.804688 -22.925781 L 166.804688 -31.925781 " transform="matrix(1,0,0,-1,0,0)"/>
<path style="fill:none;stroke-width:0.480001;stroke-linecap:round;stroke-linejoin:round;stroke:rgb(0%,0%,0%);stroke-opacity:1;stroke-miterlimit:10;" d="M 163.804688 -22.925781 L 169.804688 -22.925781 " transform="matrix(1,0,0,-1,0,0)"/>
<path style="fill:none;stroke-width:0.480001;stroke-linecap:round;stroke-linejoin:round;stroke:rgb(0%,0%,0%);stroke-opacity:1;stroke-miterlimit:10;" d="M 171.964844 -31.925781 L 171.964844 -22.925781 L 177.605469 -22.925781 " transform="matrix(1,0,0,-1,0,0)"/>
<path style="fill:none;stroke-width:0.480001;stroke-linecap:round;stroke-linejoin:round;stroke:rgb(0%,0%,0%);stroke-opacity:1;stroke-miterlimit:10;" d="M 171.964844 -27.125 L 175.445312 -27.125 " transform="matrix(1,0,0,-1,0,0)"/>
<path style="fill:none;stroke-width:0.480001;stroke-linecap:round;stroke-linejoin:round;stroke:rgb(0%,0%,0%);stroke-opacity:1;stroke-miterlimit:10;" d="M 171.964844 -31.925781 L 177.605469 -31.925781 " transform="matrix(1,0,0,-1,0,0)"/>
<path style="fill:none;stroke-width:0.480001;stroke-linecap:round;stroke-linejoin:round;stroke:rgb(0%,0%,0%);stroke-opacity:1;stroke-miterlimit:10;" d="M 180.125 -31.925781 L 180.125 -22.925781 L 183.964844 -22.925781 L 185.285156 -23.285156 L 185.765625 -23.765625 L 186.125 -24.605469 L 186.125 -25.445312 L 185.765625 -26.285156 L 185.285156 -26.765625 L 183.964844 -27.125 L 180.125 -27.125 " transform="matrix(1,0,0,-1,0,0)"/>
<path style="fill:none;stroke-width:0.480001;stroke-linecap:round;stroke-linejoin:round;stroke:rgb(0%,0%,0%);stroke-opacity:1;stroke-miterlimit:10;" d="M 183.125 -27.125 L 186.125 -31.925781 " transform="matrix(1,0,0,-1,0,0)"/>
<path style="fill:none;stroke-width:0.480001;stroke-linecap:round;stroke-linejoin:round;stroke:rgb(0%,0%,0%);stroke-opacity:1;stroke-miterlimit:10;" d="M 189.125 -22.925781 L 189.125 -31.925781 " transform="matrix(1,0,0,-1,0,0)"/>
<path style="fill:none;stroke-width:0.480001;stroke-linecap:round;stroke-linejoin:round;stroke:rgb(0%,0%,0%);stroke-opacity:1;stroke-miterlimit:10;" d="M 198.125 -24.125 L 197.285156 -23.285156 L 195.964844 -22.925781 L 194.285156 -22.925781 L 192.964844 -23.285156 L 192.125 -24.125 L 192.125 -25.085938 L 192.605469 -25.925781 L 192.964844 -26.285156 L 193.804688 -26.765625 L 196.445312 -27.605469 L 197.285156 -28.085938 L 197.765625 -28.445312 L 198.125 -29.285156 L 198.125 -30.605469 L 197.285156 -31.445312 L 195.964844 -31.925781 L 194.285156 -31.925781 L 192.964844 -31.445312 L 192.125 -30.605469 " transform="matrix(1,0,0,-1,0,0)"/>
<path style="fill:none;stroke-width:0.480001;stroke-linecap:round;stroke-linejoin:round;stroke:rgb(0%,0%,0%);stroke-opacity:1;stroke-miterlimit:10;" d="M 202.804688 -22.925781 L 202.804688 -31.925781 " transform="matrix(1,0,0,-1,0,0)"/>
<path style="fill:none;stroke-width:0.480001;stroke-linecap:round;stroke-linejoin:round;stroke:rgb(0%,0%,0%);stroke-opacity:1;stroke-miterlimit:10;" d="M 199.804688 -22.925781 L 205.804688 -22.925781 " transform="matrix(1,0,0,-1,0,0)"/>
<path style="fill:none;stroke-width:0.480001;stroke-linecap:round;stroke-linejoin:round;stroke:rgb(0%,0%,0%);stroke-opacity:1;stroke-miterlimit:10;" d="M 207.964844 -22.925781 L 207.964844 -31.925781 " transform="matrix(1,0,0,-1,0,0)"/>
<path style="fill:none;stroke-width:0.480001;stroke-linecap:round;stroke-linejoin:round;stroke:rgb(0%,0%,0%);stroke-opacity:1;stroke-miterlimit:10;" d="M 217.445312 -25.085938 L 216.964844 -24.125 L 216.125 -23.285156 L 215.285156 -22.925781 L 213.605469 -22.925781 L 212.765625 -23.285156 L 211.804688 -24.125 L 211.445312 -25.085938 L 210.964844 -26.285156 L 210.964844 -28.445312 L 211.445312 -29.765625 L 211.804688 -30.605469 L 212.765625 -31.445312 L 213.605469 -31.925781 L 215.285156 -31.925781 L 216.125 -31.445312 L 216.964844 -30.605469 L 217.445312 -29.765625 " transform="matrix(1,0,0,-1,0,0)"/>
<path style="fill:none;stroke-width:0.480001;stroke-linecap:round;stroke-linejoin:round;stroke:rgb(0%,0%,0%);stroke-opacity:1;stroke-miterlimit:10;" d="M 225.964844 -24.125 L 225.125 -23.285156 L 223.804688 -22.925781 L 222.125 -22.925781 L 220.804688 -23.285156 L 219.964844 -24.125 L 219.964844 -25.085938 L 220.445312 -25.925781 L 220.804688 -26.285156 L 221.765625 -26.765625 L 224.285156 -27.605469 L 225.125 -28.085938 L 225.605469 -28.445312 L 225.964844 -29.285156 L 225.964844 -30.605469 L 225.125 -31.445312 L 223.804688 -31.925781 L 222.125 -31.925781 L 220.804688 -31.445312 L 219.964844 -30.605469 " transform="matrix(1,0,0,-1,0,0)"/>
<path style="fill:none;stroke-width:0.480001;stroke-linecap:round;stroke-linejoin:round;stroke:rgb(0%,0%,0%);stroke-opacity:1;stroke-miterlimit:10;" d="M 36.363281 -134.644531 L 35.523438 -135.003906 L 34.683594 -135.84375 L 34.203125 -136.804688 L 33.84375 -138.003906 L 33.84375 -140.167969 L 34.203125 -141.484375 L 34.683594 -142.328125 L 35.523438 -143.167969 L 36.363281 -143.644531 L 38.042969 -143.644531 L 39.003906 -143.167969 L 39.84375 -142.328125 L 40.203125 -141.484375 L 40.683594 -140.167969 L 40.683594 -138.003906 L 40.203125 -136.804688 L 39.84375 -135.84375 L 39.003906 -135.003906 L 38.042969 -134.644531 Z M 36.363281 -134.644531 " transform="matrix(1,0,0,-1,0,0)"/>
<path style="fill:none;stroke-width:0.480001;stroke-linecap:round;stroke-linejoin:round;stroke:rgb(0%,0%,0%);stroke-opacity:1;stroke-miterlimit:10;" d="M 43.683594 -143.644531 L 43.683594 -134.644531 L 49.207031 -134.644531 " transform="matrix(1,0,0,-1,0,0)"/>
<path style="fill:none;stroke-width:0.480001;stroke-linecap:round;stroke-linejoin:round;stroke:rgb(0%,0%,0%);stroke-opacity:1;stroke-miterlimit:10;" d="M 43.683594 -138.847656 L 47.042969 -138.847656 " transform="matrix(1,0,0,-1,0,0)"/>
<path style="fill:none;stroke-width:0.480001;stroke-linecap:round;stroke-linejoin:round;stroke:rgb(0%,0%,0%);stroke-opacity:1;stroke-miterlimit:10;" d="M 51.363281 -143.644531 L 51.363281 -134.644531 L 57.003906 -134.644531 " transform="matrix(1,0,0,-1,0,0)"/>
<path style="fill:none;stroke-width:0.480001;stroke-linecap:round;stroke-linejoin:round;stroke:rgb(0%,0%,0%);stroke-opacity:1;stroke-miterlimit:10;" d="M 51.363281 -138.847656 L 54.84375 -138.847656 " transform="matrix(1,0,0,-1,0,0)"/>
<path style="fill:none;stroke-width:0.720003;stroke-linecap:round;stroke-linejoin:round;stroke:rgb(0%,0%,0%);stroke-opacity:1;stroke-miterlimit:10;" d="M 53.285156 -63.605469 L 53.285156 -117.605469 " transform="matrix(1,0,0,-1,0,0)"/>
<path style="fill:none;stroke-width:0.720003;stroke-linecap:round;stroke-linejoin:bevel;stroke:rgb(0%,0%,0%);stroke-opacity:1;stroke-miterlimit:10;" d="M 24.484375 -72.726562 L 22.683594 -72.847656 L 21.003906 -73.445312 L 19.445312 -74.164062 L 18.125 -75.367188 L 17.046875 -76.6875 L 16.203125 -78.246094 L 15.605469 -79.925781 L 15.484375 -81.605469 " transform="matrix(1,0,0,-1,0,0)"/>
<path style="fill:none;stroke-width:0.720003;stroke-linecap:round;stroke-linejoin:bevel;stroke:rgb(0%,0%,0%);stroke-opacity:1;stroke-miterlimit:10;" d="M 15.484375 -99.605469 L 15.605469 -101.285156 L 16.203125 -102.96875 L 17.046875 -104.523438 L 18.125 -105.847656 L 19.445312 -107.046875 L 21.003906 -107.765625 L 22.683594 -108.367188 L 24.484375 -108.484375 " transform="matrix(1,0,0,-1,0,0)"/>
<path style="fill:none;stroke-width:0.720003;stroke-linecap:round;stroke-linejoin:round;stroke:rgb(0%,0%,0%);stroke-opacity:1;stroke-miterlimit:10;" d="M 15.484375 -81.605469 L 15.484375 -99.605469 " transform="matrix(1,0,0,-1,0,0)"/>
<path style="fill:none;stroke-width:0.720003;stroke-linecap:round;stroke-linejoin:round;stroke:rgb(0%,0%,0%);stroke-opacity:1;stroke-miterlimit:10;" d="M 33.484375 -72.605469 L 24.484375 -72.605469 " transform="matrix(1,0,0,-1,0,0)"/>
<path style="fill:none;stroke-width:0.720003;stroke-linecap:round;stroke-linejoin:round;stroke:rgb(0%,0%,0%);stroke-opacity:1;stroke-miterlimit:10;" d="M 24.484375 -108.605469 L 33.484375 -108.605469 L 33.484375 -72.605469 " transform="matrix(1,0,0,-1,0,0)"/>
<path style="fill:none;stroke-width:0.720003;stroke-linecap:round;stroke-linejoin:round;stroke:rgb(0%,0%,0%);stroke-opacity:1;stroke-miterlimit:10;" d="M 53.285156 -99.605469 L 33.484375 -99.605469 " transform="matrix(1,0,0,-1,0,0)"/>
<path style="fill:none;stroke-width:0.720003;stroke-linecap:round;stroke-linejoin:round;stroke:rgb(0%,0%,0%);stroke-opacity:1;stroke-miterlimit:10;" d="M 53.285156 -81.605469 L 33.484375 -81.605469 " transform="matrix(1,0,0,-1,0,0)"/>
<g clip-path="url(#clip7)" clip-rule="nonzero">
<path style="fill:none;stroke-width:0.720003;stroke-linecap:round;stroke-linejoin:round;stroke:rgb(0%,0%,0%);stroke-opacity:1;stroke-miterlimit:10;" d="M 90.363281 -180.367188 L 90.363281 -54.367188 " transform="matrix(1,0,0,-1,0,0)"/>
</g>
<path style="fill:none;stroke-width:0.480001;stroke-linecap:round;stroke-linejoin:round;stroke:rgb(0%,0%,0%);stroke-opacity:1;stroke-miterlimit:10;" d="M 115.683594 -133.085938 L 114.84375 -133.925781 L 113.882812 -135.246094 L 113.046875 -136.925781 L 112.683594 -139.085938 L 112.683594 -140.765625 L 113.046875 -142.925781 L 113.882812 -144.605469 L 114.84375 -145.925781 L 115.683594 -146.765625 " transform="matrix(1,0,0,-1,0,0)"/>
<path style="fill:none;stroke-width:0.480001;stroke-linecap:round;stroke-linejoin:round;stroke:rgb(0%,0%,0%);stroke-opacity:1;stroke-miterlimit:10;" d="M 120.84375 -134.765625 L 119.882812 -135.246094 L 119.046875 -136.085938 L 118.683594 -136.925781 L 118.207031 -138.246094 L 118.207031 -140.285156 L 118.683594 -141.605469 L 119.046875 -142.445312 L 119.882812 -143.285156 L 120.84375 -143.765625 L 122.523438 -143.765625 L 123.363281 -143.285156 L 124.207031 -142.445312 L 124.683594 -141.605469 L 125.042969 -140.285156 L 125.042969 -138.246094 L 124.683594 -136.925781 L 124.207031 -136.085938 L 123.363281 -135.246094 L 122.523438 -134.765625 Z M 120.84375 -134.765625 " transform="matrix(1,0,0,-1,0,0)"/>
<path style="fill:none;stroke-width:0.480001;stroke-linecap:round;stroke-linejoin:round;stroke:rgb(0%,0%,0%);stroke-opacity:1;stroke-miterlimit:10;" d="M 128.046875 -143.765625 L 128.046875 -134.765625 L 134.046875 -143.765625 L 134.046875 -134.765625 " transform="matrix(1,0,0,-1,0,0)"/>
<path style="fill:none;stroke-width:0.480001;stroke-linecap:round;stroke-linejoin:round;stroke:rgb(0%,0%,0%);stroke-opacity:1;stroke-miterlimit:10;" d="M 137.046875 -133.085938 L 137.886719 -133.925781 L 138.84375 -135.246094 L 139.683594 -136.925781 L 140.042969 -139.085938 L 140.042969 -140.765625 L 139.683594 -142.925781 L 138.84375 -144.605469 L 137.886719 -145.925781 L 137.046875 -146.765625 " transform="matrix(1,0,0,-1,0,0)"/>
<path style="fill:none;stroke-width:0.480001;stroke-linecap:round;stroke-linejoin:round;stroke:rgb(0%,0%,0%);stroke-opacity:1;stroke-miterlimit:10;" d="M 114.125 -151.445312 L 114.964844 -151.085938 L 116.285156 -149.765625 L 116.285156 -158.765625 " transform="matrix(1,0,0,-1,0,0)"/>
<path style="fill:none;stroke-width:0.480001;stroke-linecap:round;stroke-linejoin:round;stroke:rgb(0%,0%,0%);stroke-opacity:1;stroke-miterlimit:10;" d="M 121.925781 -154.925781 L 129.605469 -154.925781 " transform="matrix(1,0,0,-1,0,0)"/>
<path style="fill:none;stroke-width:0.480001;stroke-linecap:round;stroke-linejoin:round;stroke:rgb(0%,0%,0%);stroke-opacity:1;stroke-miterlimit:10;" d="M 133.445312 -149.765625 L 138.125 -149.765625 L 135.605469 -153.246094 L 136.925781 -153.246094 L 137.765625 -153.605469 L 138.125 -154.085938 L 138.605469 -155.285156 L 138.605469 -156.246094 L 138.125 -157.445312 L 137.285156 -158.285156 L 135.964844 -158.765625 L 134.765625 -158.765625 L 133.445312 -158.285156 L 132.964844 -157.925781 L 132.605469 -157.085938 " transform="matrix(1,0,0,-1,0,0)"/>
<path style="fill:none;stroke-width:0.480001;stroke-linecap:round;stroke-linejoin:round;stroke:rgb(0%,0%,0%);stroke-opacity:1;stroke-miterlimit:10;" d="M 113.765625 -166.925781 L 113.765625 -166.445312 L 114.125 -165.605469 L 114.605469 -165.246094 L 115.445312 -164.765625 L 117.125 -164.765625 L 117.964844 -165.246094 L 118.445312 -165.605469 L 118.925781 -166.445312 L 118.925781 -167.285156 L 118.445312 -168.246094 L 117.605469 -169.445312 L 113.285156 -173.765625 L 119.285156 -173.765625 " transform="matrix(1,0,0,-1,0,0)"/>
<path style="fill:none;stroke-width:0.480001;stroke-linecap:round;stroke-linejoin:round;stroke:rgb(0%,0%,0%);stroke-opacity:1;stroke-miterlimit:10;" d="M 122.285156 -169.925781 L 129.964844 -169.925781 " transform="matrix(1,0,0,-1,0,0)"/>
<path style="fill:none;stroke-width:0.480001;stroke-linecap:round;stroke-linejoin:round;stroke:rgb(0%,0%,0%);stroke-opacity:1;stroke-miterlimit:10;" d="M 137.285156 -164.765625 L 132.964844 -170.765625 L 139.445312 -170.765625 " transform="matrix(1,0,0,-1,0,0)"/>
<path style="fill:none;stroke-width:0.480001;stroke-linecap:round;stroke-linejoin:round;stroke:rgb(0%,0%,0%);stroke-opacity:1;stroke-miterlimit:10;" d="M 137.285156 -164.765625 L 137.285156 -173.765625 " transform="matrix(1,0,0,-1,0,0)"/>
<g clip-path="url(#clip8)" clip-rule="nonzero">
<path style="fill:none;stroke-width:0.720003;stroke-linecap:round;stroke-linejoin:round;stroke:rgb(0%,0%,0%);stroke-opacity:1;stroke-miterlimit:10;" d="M 162.367188 -180.367188 L 162.367188 -36.367188 " transform="matrix(1,0,0,-1,0,0)"/>
</g>
<path style="fill:none;stroke-width:0.720003;stroke-linecap:round;stroke-linejoin:bevel;stroke:rgb(0%,0%,0%);stroke-opacity:1;stroke-miterlimit:10;" d="M 184.804688 -133.207031 L 183.964844 -133.328125 L 183.246094 -133.804688 L 182.765625 -134.527344 L 182.644531 -135.367188 L 182.765625 -136.207031 L 183.246094 -136.925781 L 183.964844 -137.40625 L 184.804688 -137.527344 L 185.644531 -137.40625 L 186.363281 -136.925781 L 186.84375 -136.207031 L 186.964844 -135.367188 L 186.84375 -134.527344 L 186.363281 -133.804688 L 185.644531 -133.328125 Z M 184.804688 -133.207031 " transform="matrix(1,0,0,-1,0,0)"/>
<path style="fill:none;stroke-width:0.720003;stroke-linecap:round;stroke-linejoin:round;stroke:rgb(0%,0%,0%);stroke-opacity:1;stroke-miterlimit:10;" d="M 174.363281 -136.804688 L 174.363281 -136.328125 L 174.84375 -135.488281 L 175.324219 -135.003906 L 176.164062 -134.644531 L 177.84375 -134.644531 L 178.683594 -135.003906 L 179.164062 -135.488281 L 179.523438 -136.328125 L 179.523438 -137.167969 L 179.164062 -138.003906 L 178.324219 -139.328125 L 174.003906 -143.644531 L 180.003906 -143.644531 " transform="matrix(1,0,0,-1,0,0)"/>
<path style="fill:none;stroke-width:0.720003;stroke-linecap:round;stroke-linejoin:round;stroke:rgb(0%,0%,0%);stroke-opacity:1;stroke-miterlimit:10;" d="M 147.125 -63.605469 L 140.164062 -86.167969 " transform="matrix(1,0,0,-1,0,0)"/>
<path style="fill:none;stroke-width:0.720003;stroke-linecap:round;stroke-linejoin:round;stroke:rgb(0%,0%,0%);stroke-opacity:1;stroke-miterlimit:10;" d="M 128.886719 -63.605469 L 128.886719 -117.605469 " transform="matrix(1,0,0,-1,0,0)"/>
<path style="fill:none;stroke-width:0.720003;stroke-linecap:round;stroke-linejoin:round;stroke:rgb(0%,0%,0%);stroke-opacity:1;stroke-miterlimit:10;" d="M 119.882812 -72.605469 L 110.882812 -72.605469 " transform="matrix(1,0,0,-1,0,0)"/>
<path style="fill:none;stroke-width:0.720003;stroke-linecap:round;stroke-linejoin:round;stroke:rgb(0%,0%,0%);stroke-opacity:1;stroke-miterlimit:10;" d="M 119.882812 -108.605469 L 110.882812 -108.605469 " transform="matrix(1,0,0,-1,0,0)"/>
<path style="fill:none;stroke-width:0.720003;stroke-linecap:round;stroke-linejoin:round;stroke:rgb(0%,0%,0%);stroke-opacity:1;stroke-miterlimit:10;" d="M 74.046875 -97.445312 L 67.683594 -106.324219 L 75.246094 -117.605469 " transform="matrix(1,0,0,-1,0,0)"/>
<path style="fill:none;stroke-width:0.720003;stroke-linecap:round;stroke-linejoin:round;stroke:rgb(0%,0%,0%);stroke-opacity:1;stroke-miterlimit:10;" d="M 101.882812 -81.605469 L 101.882812 -99.605469 " transform="matrix(1,0,0,-1,0,0)"/>
<path style="fill:none;stroke-width:0.720003;stroke-linecap:round;stroke-linejoin:bevel;stroke:rgb(0%,0%,0%);stroke-opacity:1;stroke-miterlimit:10;" d="M 110.882812 -72.726562 L 109.085938 -72.847656 L 107.40625 -73.445312 L 105.84375 -74.164062 L 104.523438 -75.367188 L 103.445312 -76.6875 L 102.605469 -78.246094 L 102.003906 -79.925781 L 101.882812 -81.605469 " transform="matrix(1,0,0,-1,0,0)"/>
<path style="fill:none;stroke-width:0.720003;stroke-linecap:round;stroke-linejoin:bevel;stroke:rgb(0%,0%,0%);stroke-opacity:1;stroke-miterlimit:10;" d="M 101.882812 -99.605469 L 102.003906 -101.285156 L 102.605469 -102.96875 L 103.445312 -104.523438 L 104.523438 -105.847656 L 105.84375 -107.046875 L 107.40625 -107.765625 L 109.085938 -108.367188 L 110.882812 -108.484375 " transform="matrix(1,0,0,-1,0,0)"/>
<path style="fill:none;stroke-width:0.720003;stroke-linecap:round;stroke-linejoin:round;stroke:rgb(0%,0%,0%);stroke-opacity:1;stroke-miterlimit:10;" d="M 143.285156 -106.324219 L 149.644531 -97.445312 L 140.164062 -86.167969 " transform="matrix(1,0,0,-1,0,0)"/>
<path style="fill:none;stroke-width:0.720003;stroke-linecap:round;stroke-linejoin:round;stroke:rgb(0%,0%,0%);stroke-opacity:1;stroke-miterlimit:10;" d="M 119.882812 -108.605469 L 119.882812 -72.605469 " transform="matrix(1,0,0,-1,0,0)"/>
<path style="fill:none;stroke-width:0.720003;stroke-linecap:round;stroke-linejoin:round;stroke:rgb(0%,0%,0%);stroke-opacity:1;stroke-miterlimit:10;" d="M 128.886719 -99.605469 L 119.882812 -99.605469 " transform="matrix(1,0,0,-1,0,0)"/>
<path style="fill:none;stroke-width:0.720003;stroke-linecap:round;stroke-linejoin:round;stroke:rgb(0%,0%,0%);stroke-opacity:1;stroke-miterlimit:10;" d="M 128.886719 -81.605469 L 119.882812 -81.605469 " transform="matrix(1,0,0,-1,0,0)"/>
<path style="fill:none;stroke-width:0.720003;stroke-linecap:round;stroke-linejoin:round;stroke:rgb(0%,0%,0%);stroke-opacity:1;stroke-miterlimit:10;" d="M 128.886719 -117.605469 L 150.84375 -117.605469 L 143.285156 -106.324219 " transform="matrix(1,0,0,-1,0,0)"/>
<path style="fill:none;stroke-width:0.720003;stroke-linecap:round;stroke-linejoin:round;stroke:rgb(0%,0%,0%);stroke-opacity:1;stroke-miterlimit:10;" d="M 128.886719 -63.605469 L 147.125 -63.605469 " transform="matrix(1,0,0,-1,0,0)"/>
<path style="fill:none;stroke-width:0.720003;stroke-linecap:round;stroke-linejoin:round;stroke:rgb(0%,0%,0%);stroke-opacity:1;stroke-miterlimit:10;" d="M 175.925781 -61.445312 L 176.765625 -60.964844 L 178.085938 -59.765625 L 178.085938 -68.765625 " transform="matrix(1,0,0,-1,0,0)"/>
<path style="fill:none;stroke-width:0.720003;stroke-linecap:round;stroke-linejoin:bevel;stroke:rgb(0%,0%,0%);stroke-opacity:1;stroke-miterlimit:10;" d="M 184.804688 -65.765625 L 183.964844 -65.886719 L 183.246094 -66.367188 L 182.765625 -67.085938 L 182.644531 -67.925781 L 182.765625 -68.765625 L 183.246094 -69.488281 L 183.964844 -69.964844 L 184.804688 -70.085938 L 185.644531 -69.964844 L 186.363281 -69.488281 L 186.84375 -68.765625 L 186.964844 -67.925781 L 186.84375 -67.085938 L 186.363281 -66.367188 L 185.644531 -65.886719 Z M 184.804688 -65.765625 " transform="matrix(1,0,0,-1,0,0)"/>
<path style="fill:none;stroke-width:0.720003;stroke-linecap:round;stroke-linejoin:bevel;stroke:rgb(0%,0%,0%);stroke-opacity:1;stroke-miterlimit:10;" d="M 205.085938 -99.484375 L 204.242188 -99.605469 L 203.523438 -100.085938 L 203.042969 -100.804688 L 202.925781 -101.644531 L 203.042969 -102.484375 L 203.523438 -103.207031 L 204.242188 -103.6875 L 205.085938 -103.804688 L 205.925781 -103.6875 L 206.644531 -103.207031 L 207.125 -102.484375 L 207.246094 -101.644531 L 207.125 -100.804688 L 206.644531 -100.085938 L 205.925781 -99.605469 Z M 205.085938 -99.484375 " transform="matrix(1,0,0,-1,0,0)"/>
<path style="fill:none;stroke-width:0.720003;stroke-linecap:round;stroke-linejoin:round;stroke:rgb(0%,0%,0%);stroke-opacity:1;stroke-miterlimit:10;" d="M 184.804688 -101.644531 L 202.804688 -101.644531 " transform="matrix(1,0,0,-1,0,0)"/>
<path style="fill:none;stroke-width:0.720003;stroke-linecap:round;stroke-linejoin:round;stroke:rgb(0%,0%,0%);stroke-opacity:1;stroke-miterlimit:10;" d="M 184.804688 -70.085938 L 184.804688 -133.085938 " transform="matrix(1,0,0,-1,0,0)"/>
<path style="fill:none;stroke-width:0.720003;stroke-linecap:round;stroke-linejoin:bevel;stroke:rgb(0%,0%,0%);stroke-opacity:1;stroke-miterlimit:10;" d="M 236.644531 -99.484375 L 235.804688 -99.605469 L 235.085938 -100.085938 L 234.605469 -100.804688 L 234.484375 -101.644531 L 234.605469 -102.484375 L 235.085938 -103.207031 L 235.804688 -103.6875 L 236.644531 -103.804688 L 237.484375 -103.6875 L 238.207031 -103.207031 L 238.683594 -102.484375 L 238.804688 -101.644531 L 238.683594 -100.804688 L 238.207031 -100.085938 L 237.484375 -99.605469 Z M 236.644531 -99.484375 " transform="matrix(1,0,0,-1,0,0)"/>
<path style="fill:none;stroke-width:0.720003;stroke-linecap:round;stroke-linejoin:round;stroke:rgb(0%,0%,0%);stroke-opacity:1;stroke-miterlimit:10;" d="M 206.644531 -100.085938 L 225.84375 -80.886719 " transform="matrix(1,0,0,-1,0,0)"/>
<g clip-path="url(#clip9)" clip-rule="nonzero">
<path style="fill:none;stroke-width:0.720003;stroke-linecap:round;stroke-linejoin:round;stroke:rgb(0%,0%,0%);stroke-opacity:1;stroke-miterlimit:10;" d="M 279.367188 -180.367188 L 279.367188 -0.363281 " transform="matrix(1,0,0,-1,0,0)"/>
</g>
<path style="fill:none;stroke-width:0.720003;stroke-linecap:round;stroke-linejoin:bevel;stroke:rgb(0%,0%,0%);stroke-opacity:1;stroke-miterlimit:10;" d="M 256.804688 -133.207031 L 255.964844 -133.328125 L 255.246094 -133.804688 L 254.765625 -134.527344 L 254.644531 -135.367188 L 254.765625 -136.207031 L 255.246094 -136.925781 L 255.964844 -137.40625 L 256.804688 -137.527344 L 257.644531 -137.40625 L 258.367188 -136.925781 L 258.84375 -136.207031 L 258.964844 -135.367188 L 258.84375 -134.527344 L 258.367188 -133.804688 L 257.644531 -133.328125 Z M 256.804688 -133.207031 " transform="matrix(1,0,0,-1,0,0)"/>
<path style="fill:none;stroke-width:0.720003;stroke-linecap:round;stroke-linejoin:round;stroke:rgb(0%,0%,0%);stroke-opacity:1;stroke-miterlimit:10;" d="M 266.164062 -134.644531 L 261.84375 -140.644531 L 268.324219 -140.644531 " transform="matrix(1,0,0,-1,0,0)"/>
<path style="fill:none;stroke-width:0.720003;stroke-linecap:round;stroke-linejoin:round;stroke:rgb(0%,0%,0%);stroke-opacity:1;stroke-miterlimit:10;" d="M 266.164062 -134.644531 L 266.164062 -143.644531 " transform="matrix(1,0,0,-1,0,0)"/>
<path style="fill:none;stroke-width:0.720003;stroke-linecap:round;stroke-linejoin:round;stroke:rgb(0%,0%,0%);stroke-opacity:1;stroke-miterlimit:10;" d="M 262.925781 -59.765625 L 267.605469 -59.765625 L 265.085938 -63.125 L 266.40625 -63.125 L 267.246094 -63.605469 L 267.605469 -63.964844 L 268.085938 -65.285156 L 268.085938 -66.125 L 267.605469 -67.445312 L 266.765625 -68.285156 L 265.445312 -68.765625 L 264.246094 -68.765625 L 262.925781 -68.285156 L 262.445312 -67.804688 L 262.085938 -66.964844 " transform="matrix(1,0,0,-1,0,0)"/>
<path style="fill:none;stroke-width:0.720003;stroke-linecap:round;stroke-linejoin:bevel;stroke:rgb(0%,0%,0%);stroke-opacity:1;stroke-miterlimit:10;" d="M 256.804688 -65.765625 L 255.964844 -65.886719 L 255.246094 -66.367188 L 254.765625 -67.085938 L 254.644531 -67.925781 L 254.765625 -68.765625 L 255.246094 -69.488281 L 255.964844 -69.964844 L 256.804688 -70.085938 L 257.644531 -69.964844 L 258.367188 -69.488281 L 258.84375 -68.765625 L 258.964844 -67.925781 L 258.84375 -67.085938 L 258.367188 -66.367188 L 257.644531 -65.886719 Z M 256.804688 -65.765625 " transform="matrix(1,0,0,-1,0,0)"/>
<path style="fill:none;stroke-width:0.720003;stroke-linecap:round;stroke-linejoin:round;stroke:rgb(0%,0%,0%);stroke-opacity:1;stroke-miterlimit:10;" d="M 256.804688 -70.085938 L 256.804688 -133.085938 " transform="matrix(1,0,0,-1,0,0)"/>
</g>
</svg>
