<?xml version="1.0" encoding="utf-8" standalone="no"?>
<!DOCTYPE svg PUBLIC "-//W3C//DTD SVG 1.1//EN"
  "http://www.w3.org/Graphics/SVG/1.1/DTD/svg11.dtd">
<!-- Created with matplotlib (https://matplotlib.org/) -->
<svg height="448.104pt" version="1.1" viewBox="0 0 357.12 448.104" width="357.12pt" xmlns="http://www.w3.org/2000/svg" xmlns:xlink="http://www.w3.org/1999/xlink">
 <defs>
  <style type="text/css">
*{stroke-linecap:butt;stroke-linejoin:round;}
  </style>
 </defs>
 <g id="figure_1">
  <g id="patch_1">
   <path d="M 0 448.104 
L 357.12 448.104 
L 357.12 0 
L 0 0 
z
" style="fill:none;"/>
  </g>
  <g id="axes_1">
   <g id="line2d_1">
    <path clip-path="url(#pba8041c71d)" d="M 117.36 418.26 
L 193.86 418.26 
L 270.36 418.26 
" style="fill:none;stroke:#ffffff;stroke-linecap:round;stroke-width:2;"/>
   </g>
   <g id="patch_2">
    <path clip-path="url(#pba8041c71d)" d="M 147.96 20.46 
L 157.5225 10.8975 
L 224.46 10.8975 
L 224.46 30.0225 
L 157.5225 30.0225 
z
" style="fill:#ffd700;stroke:#ffffff;stroke-linecap:round;stroke-width:2;"/>
   </g>
   <g id="patch_3">
    <path clip-path="url(#pba8041c71d)" d="M 147.96 51.06 
L 157.5225 41.4975 
L 224.46 41.4975 
L 224.46 60.6225 
L 157.5225 60.6225 
z
" style="fill:#4169e1;stroke:#ffffff;stroke-linecap:round;stroke-width:2;"/>
   </g>
   <g id="patch_4">
    <path clip-path="url(#pba8041c71d)" d="M 86.76 234.66 
L 77.1975 244.2225 
L 10.26 244.2225 
L 10.26 225.0975 
L 77.1975 225.0975 
z
" style="fill:#ff8c00;stroke:#ffffff;stroke-linecap:round;stroke-width:2;"/>
   </g>
   <g id="patch_5">
    <path clip-path="url(#pba8041c71d)" d="M 270.36 387.66 
L 279.9225 378.0975 
L 346.86 378.0975 
L 346.86 397.2225 
L 279.9225 397.2225 
z
" style="fill:#6495ed;stroke:#ffffff;stroke-linecap:round;stroke-width:2;"/>
   </g>
   <g id="patch_6">
    <path clip-path="url(#pba8041c71d)" d="M 270.36 357.06 
L 279.9225 347.4975 
L 346.86 347.4975 
L 346.86 366.6225 
L 279.9225 366.6225 
z
" style="fill:#ffa500;stroke:#ffffff;stroke-linecap:round;stroke-width:2;"/>
   </g>
   <g id="patch_7">
    <path clip-path="url(#pba8041c71d)" d="M 270.36 326.46 
L 279.9225 316.8975 
L 346.86 316.8975 
L 346.86 336.0225 
L 279.9225 336.0225 
z
" style="stroke:#ffffff;stroke-linecap:round;stroke-width:2;"/>
   </g>
   <g id="line2d_2">
    <path clip-path="url(#pba8041c71d)" d="M 147.96 20.46 
L 132.66 20.46 
L 117.36 20.46 
" style="fill:none;stroke:#000000;stroke-linecap:round;stroke-width:2;"/>
   </g>
   <g id="line2d_3">
    <path clip-path="url(#pba8041c71d)" d="M 117.36 20.46 
L 117.36 35.76 
L 117.36 51.06 
" style="fill:none;stroke:#000000;stroke-linecap:round;stroke-width:2;"/>
   </g>
   <g id="line2d_4">
    <path clip-path="url(#pba8041c71d)" d="M 117.36 51.06 
L 132.66 51.06 
L 147.96 51.06 
" style="fill:none;stroke:#000000;stroke-linecap:round;stroke-width:2;"/>
   </g>
   <g id="line2d_5">
    <path clip-path="url(#pba8041c71d)" d="M 147.96 51.06 
L 132.66 51.06 
L 117.36 51.06 
" style="fill:none;stroke:#000000;stroke-linecap:round;stroke-width:2;"/>
   </g>
   <g id="line2d_6">
    <path clip-path="url(#pba8041c71d)" d="M 117.36 51.06 
L 117.36 81.66 
L 125.01 84.21 
L 109.71 89.31 
L 125.01 94.41 
L 109.71 99.51 
L 125.01 104.61 
L 109.71 109.71 
L 117.36 112.26 
L 117.36 142.86 
" style="fill:none;stroke:#000000;stroke-linecap:round;stroke-width:2;"/>
   </g>
   <g id="line2d_7">
    <path clip-path="url(#pba8041c71d)" d="M 117.36 142.86 
L 117.36 173.46 
L 125.01 176.01 
L 109.71 181.11 
L 125.01 186.21 
L 109.71 191.31 
L 125.01 196.41 
L 109.71 201.51 
L 117.36 204.06 
L 117.36 234.66 
" style="fill:none;stroke:#000000;stroke-linecap:round;stroke-width:2;"/>
   </g>
   <g id="line2d_8">
    <path clip-path="url(#pba8041c71d)" d="M 117.36 234.66 
L 117.36 265.26 
L 125.01 267.81 
L 109.71 272.91 
L 125.01 278.01 
L 109.71 283.11 
L 125.01 288.21 
L 109.71 293.31 
L 117.36 295.86 
L 117.36 326.46 
" style="fill:none;stroke:#000000;stroke-linecap:round;stroke-width:2;"/>
   </g>
   <g id="line2d_9">
    <path clip-path="url(#pba8041c71d)" d="M 117.36 326.46 
L 117.36 357.06 
L 125.01 359.61 
L 109.71 364.71 
L 125.01 369.81 
L 109.71 374.91 
L 125.01 380.01 
L 109.71 385.11 
L 117.36 387.66 
L 117.36 418.26 
" style="fill:none;stroke:#000000;stroke-linecap:round;stroke-width:2;"/>
   </g>
   <g id="line2d_10">
    <path clip-path="url(#pba8041c71d)" d="M 117.36 418.26 
L 117.36 430.5 
L 109.71 430.5 
L 125.01 430.5 
M 112.005 434.172 
L 122.715 434.172 
M 115.83 437.844 
L 118.89 437.844 
" style="fill:none;stroke:#000000;stroke-linecap:round;stroke-width:2;"/>
   </g>
   <g id="line2d_11">
    <path clip-path="url(#pba8041c71d)" d="M 117.36 234.66 
L 102.06 234.66 
L 86.76 234.66 
" style="fill:none;stroke:#000000;stroke-linecap:round;stroke-width:2;"/>
   </g>
   <g id="line2d_12">
    <path clip-path="url(#pba8041c71d)" d="M 270.36 418.26 
L 270.36 430.5 
L 262.71 430.5 
L 278.01 430.5 
M 265.005 434.172 
L 275.715 434.172 
M 268.83 437.844 
L 271.89 437.844 
" style="fill:none;stroke:#000000;stroke-linecap:round;stroke-width:2;"/>
   </g>
   <g id="line2d_13">
    <path clip-path="url(#pba8041c71d)" d="M 270.36 418.26 
L 270.36 402.96 
L 270.36 387.66 
" style="fill:none;stroke:#000000;stroke-linecap:round;stroke-width:2;"/>
   </g>
   <g id="line2d_14">
    <path clip-path="url(#pba8041c71d)" d="M 270.36 387.66 
L 270.36 372.36 
L 270.36 357.06 
" style="fill:none;stroke:#000000;stroke-linecap:round;stroke-width:2;"/>
   </g>
   <g id="line2d_15">
    <path clip-path="url(#pba8041c71d)" d="M 270.36 357.06 
L 270.36 341.76 
L 270.36 326.46 
" style="fill:none;stroke:#000000;stroke-linecap:round;stroke-width:2;"/>
   </g>
   <g id="text_1">
    <!-- W1 -->
    <defs>
     <path d="M 3.328125 72.90625 
L 13.28125 72.90625 
L 28.609375 11.28125 
L 43.890625 72.90625 
L 54.984375 72.90625 
L 70.3125 11.28125 
L 85.59375 72.90625 
L 95.609375 72.90625 
L 77.296875 0 
L 64.890625 0 
L 49.515625 63.28125 
L 33.984375 0 
L 21.578125 0 
z
" id="DejaVuSans-87"/>
     <path d="M 12.40625 8.296875 
L 28.515625 8.296875 
L 28.515625 63.921875 
L 10.984375 60.40625 
L 10.984375 69.390625 
L 28.421875 72.90625 
L 38.28125 72.90625 
L 38.28125 8.296875 
L 54.390625 8.296875 
L 54.390625 0 
L 12.40625 0 
z
" id="DejaVuSans-49"/>
    </defs>
    <g style="fill:#ffffff;" transform="translate(176.46 23.77125)scale(0.12 -0.12)">
     <use xlink:href="#DejaVuSans-87"/>
     <use x="98.876953" xlink:href="#DejaVuSans-49"/>
    </g>
   </g>
   <g id="text_2">
    <!-- 2+ -->
    <defs>
     <path d="M 19.1875 8.296875 
L 53.609375 8.296875 
L 53.609375 0 
L 7.328125 0 
L 7.328125 8.296875 
Q 12.9375 14.109375 22.625 23.890625 
Q 32.328125 33.6875 34.8125 36.53125 
Q 39.546875 41.84375 41.421875 45.53125 
Q 43.3125 49.21875 43.3125 52.78125 
Q 43.3125 58.59375 39.234375 62.25 
Q 35.15625 65.921875 28.609375 65.921875 
Q 23.96875 65.921875 18.8125 64.3125 
Q 13.671875 62.703125 7.8125 59.421875 
L 7.8125 69.390625 
Q 13.765625 71.78125 18.9375 73 
Q 24.125 74.21875 28.421875 74.21875 
Q 39.75 74.21875 46.484375 68.546875 
Q 53.21875 62.890625 53.21875 53.421875 
Q 53.21875 48.921875 51.53125 44.890625 
Q 49.859375 40.875 45.40625 35.40625 
Q 44.1875 33.984375 37.640625 27.21875 
Q 31.109375 20.453125 19.1875 8.296875 
z
" id="DejaVuSans-50"/>
     <path d="M 46 62.703125 
L 46 35.5 
L 73.1875 35.5 
L 73.1875 27.203125 
L 46 27.203125 
L 46 0 
L 37.796875 0 
L 37.796875 27.203125 
L 10.59375 27.203125 
L 10.59375 35.5 
L 37.796875 35.5 
L 37.796875 62.703125 
z
" id="DejaVuSans-43"/>
    </defs>
    <g style="fill:#ffffff;" transform="translate(177.364688 54.37125)scale(0.12 -0.12)">
     <use xlink:href="#DejaVuSans-50"/>
     <use x="63.623047" xlink:href="#DejaVuSans-43"/>
    </g>
   </g>
   <g id="text_3">
    <!-- 220Ω -->
    <defs>
     <path d="M 31.78125 66.40625 
Q 24.171875 66.40625 20.328125 58.90625 
Q 16.5 51.421875 16.5 36.375 
Q 16.5 21.390625 20.328125 13.890625 
Q 24.171875 6.390625 31.78125 6.390625 
Q 39.453125 6.390625 43.28125 13.890625 
Q 47.125 21.390625 47.125 36.375 
Q 47.125 51.421875 43.28125 58.90625 
Q 39.453125 66.40625 31.78125 66.40625 
z
M 31.78125 74.21875 
Q 44.046875 74.21875 50.515625 64.515625 
Q 56.984375 54.828125 56.984375 36.375 
Q 56.984375 17.96875 50.515625 8.265625 
Q 44.046875 -1.421875 31.78125 -1.421875 
Q 19.53125 -1.421875 13.0625 8.265625 
Q 6.59375 17.96875 6.59375 36.375 
Q 6.59375 54.828125 13.0625 64.515625 
Q 19.53125 74.21875 31.78125 74.21875 
z
" id="DejaVuSans-48"/>
     <path d="M 72.609375 8.6875 
L 72.609375 0 
L 43.3125 0 
L 43.3125 8.6875 
Q 51.953125 13.421875 56.78125 21.53125 
Q 61.625 29.640625 61.625 39.5 
Q 61.625 51.21875 55.171875 58.296875 
Q 48.734375 65.375 38.1875 65.375 
Q 27.640625 65.375 21.171875 58.265625 
Q 14.703125 51.171875 14.703125 39.5 
Q 14.703125 29.640625 19.53125 21.53125 
Q 24.421875 13.421875 33.109375 8.6875 
L 33.109375 0 
L 3.8125 0 
L 3.8125 8.6875 
L 19.390625 8.6875 
Q 11.671875 15.484375 8.109375 22.75 
Q 4.59375 30.03125 4.59375 39.015625 
Q 4.59375 54.546875 13.96875 64.15625 
Q 23.296875 73.78125 38.1875 73.78125 
Q 52.984375 73.78125 62.40625 64.15625 
Q 71.78125 54.59375 71.78125 39.5 
Q 71.78125 30.03125 68.3125 22.796875 
Q 64.84375 15.578125 56.984375 8.6875 
z
" id="DejaVuSans-937"/>
    </defs>
    <g transform="translate(69.228437 100.823125)scale(0.14 -0.14)">
     <use xlink:href="#DejaVuSans-50"/>
     <use x="63.623047" xlink:href="#DejaVuSans-50"/>
     <use x="127.246094" xlink:href="#DejaVuSans-48"/>
     <use x="190.869141" xlink:href="#DejaVuSans-937"/>
    </g>
   </g>
   <g id="text_4">
    <!-- 1kΩ -->
    <defs>
     <path d="M 9.078125 75.984375 
L 18.109375 75.984375 
L 18.109375 31.109375 
L 44.921875 54.6875 
L 56.390625 54.6875 
L 27.390625 29.109375 
L 57.625 0 
L 45.90625 0 
L 18.109375 26.703125 
L 18.109375 0 
L 9.078125 0 
z
" id="DejaVuSans-107"/>
    </defs>
    <g transform="translate(78.936562 192.623125)scale(0.14 -0.14)">
     <use xlink:href="#DejaVuSans-49"/>
     <use x="63.623047" xlink:href="#DejaVuSans-107"/>
     <use x="121.533203" xlink:href="#DejaVuSans-937"/>
    </g>
   </g>
   <g id="text_5">
    <!-- 1kΩ -->
    <g transform="translate(78.936562 284.423125)scale(0.14 -0.14)">
     <use xlink:href="#DejaVuSans-49"/>
     <use x="63.623047" xlink:href="#DejaVuSans-107"/>
     <use x="121.533203" xlink:href="#DejaVuSans-937"/>
    </g>
   </g>
   <g id="text_6">
    <!-- 1kΩ -->
    <g transform="translate(78.936562 376.223125)scale(0.14 -0.14)">
     <use xlink:href="#DejaVuSans-49"/>
     <use x="63.623047" xlink:href="#DejaVuSans-107"/>
     <use x="121.533203" xlink:href="#DejaVuSans-937"/>
    </g>
   </g>
   <g id="text_7">
    <!-- 1+ -->
    <g style="fill:#ffffff;" transform="translate(39.664687 237.97125)scale(0.12 -0.12)">
     <use xlink:href="#DejaVuSans-49"/>
     <use x="63.623047" xlink:href="#DejaVuSans-43"/>
    </g>
   </g>
   <g id="text_8">
    <!-- 2- -->
    <defs>
     <path d="M 4.890625 31.390625 
L 31.203125 31.390625 
L 31.203125 23.390625 
L 4.890625 23.390625 
z
" id="DejaVuSans-45"/>
    </defs>
    <g style="fill:#ffffff;" transform="translate(302.627812 390.97125)scale(0.12 -0.12)">
     <use xlink:href="#DejaVuSans-50"/>
     <use x="63.623047" xlink:href="#DejaVuSans-45"/>
    </g>
   </g>
   <g id="text_9">
    <!-- 1- -->
    <g style="fill:#ffffff;" transform="translate(302.627812 360.37125)scale(0.12 -0.12)">
     <use xlink:href="#DejaVuSans-49"/>
     <use x="63.623047" xlink:href="#DejaVuSans-45"/>
    </g>
   </g>
   <g id="text_10">
    <!-- ⬇ GND -->
    <defs>
     <path d="M 17.09375 22.3125 
L 30.421875 22.3125 
L 30.421875 72.90625 
L 53.375 72.90625 
L 53.375 22.3125 
L 66.703125 22.3125 
L 41.890625 -2.484375 
z
" id="DejaVuSans-11015"/>
     <path id="DejaVuSans-32"/>
     <path d="M 59.515625 10.40625 
L 59.515625 29.984375 
L 43.40625 29.984375 
L 43.40625 38.09375 
L 69.28125 38.09375 
L 69.28125 6.78125 
Q 63.578125 2.734375 56.6875 0.65625 
Q 49.8125 -1.421875 42 -1.421875 
Q 24.90625 -1.421875 15.25 8.5625 
Q 5.609375 18.5625 5.609375 36.375 
Q 5.609375 54.25 15.25 64.234375 
Q 24.90625 74.21875 42 74.21875 
Q 49.125 74.21875 55.546875 72.453125 
Q 61.96875 70.703125 67.390625 67.28125 
L 67.390625 56.78125 
Q 61.921875 61.421875 55.765625 63.765625 
Q 49.609375 66.109375 42.828125 66.109375 
Q 29.4375 66.109375 22.71875 58.640625 
Q 16.015625 51.171875 16.015625 36.375 
Q 16.015625 21.625 22.71875 14.15625 
Q 29.4375 6.6875 42.828125 6.6875 
Q 48.046875 6.6875 52.140625 7.59375 
Q 56.25 8.5 59.515625 10.40625 
z
" id="DejaVuSans-71"/>
     <path d="M 9.8125 72.90625 
L 23.09375 72.90625 
L 55.421875 11.921875 
L 55.421875 72.90625 
L 64.984375 72.90625 
L 64.984375 0 
L 51.703125 0 
L 19.390625 60.984375 
L 19.390625 0 
L 9.8125 0 
z
" id="DejaVuSans-78"/>
     <path d="M 19.671875 64.796875 
L 19.671875 8.109375 
L 31.59375 8.109375 
Q 46.6875 8.109375 53.6875 14.9375 
Q 60.6875 21.78125 60.6875 36.53125 
Q 60.6875 51.171875 53.6875 57.984375 
Q 46.6875 64.796875 31.59375 64.796875 
z
M 9.8125 72.90625 
L 30.078125 72.90625 
Q 51.265625 72.90625 61.171875 64.09375 
Q 71.09375 55.28125 71.09375 36.53125 
Q 71.09375 17.671875 61.125 8.828125 
Q 51.171875 0 30.078125 0 
L 9.8125 0 
z
" id="DejaVuSans-68"/>
    </defs>
    <g style="fill:#ffffff;" transform="translate(287.9175 329.77125)scale(0.12 -0.12)">
     <use xlink:href="#DejaVuSans-11015"/>
     <use x="83.789062" xlink:href="#DejaVuSans-32"/>
     <use x="115.576172" xlink:href="#DejaVuSans-71"/>
     <use x="193.066406" xlink:href="#DejaVuSans-78"/>
     <use x="267.871094" xlink:href="#DejaVuSans-68"/>
    </g>
   </g>
   <g id="patch_8">
    <path clip-path="url(#pba8041c71d)" d="M 117.36 53.355 
C 117.968641 53.355 118.552436 53.113184 118.98281 52.68281 
C 119.413184 52.252436 119.655 51.668641 119.655 51.06 
C 119.655 50.451359 119.413184 49.867564 118.98281 49.43719 
C 118.552436 49.006816 117.968641 48.765 117.36 48.765 
C 116.751359 48.765 116.167564 49.006816 115.73719 49.43719 
C 115.306816 49.867564 115.065 50.451359 115.065 51.06 
C 115.065 51.668641 115.306816 52.252436 115.73719 52.68281 
C 116.167564 53.113184 116.751359 53.355 117.36 53.355 
z
" style="stroke:#000000;stroke-linejoin:miter;stroke-width:2;"/>
   </g>
   <g id="patch_9">
    <path clip-path="url(#pba8041c71d)" d="M 117.36 236.955 
C 117.968641 236.955 118.552436 236.713184 118.98281 236.28281 
C 119.413184 235.852436 119.655 235.268641 119.655 234.66 
C 119.655 234.051359 119.413184 233.467564 118.98281 233.03719 
C 118.552436 232.606816 117.968641 232.365 117.36 232.365 
C 116.751359 232.365 116.167564 232.606816 115.73719 233.03719 
C 115.306816 233.467564 115.065 234.051359 115.065 234.66 
C 115.065 235.268641 115.306816 235.852436 115.73719 236.28281 
C 116.167564 236.713184 116.751359 236.955 117.36 236.955 
z
" style="stroke:#000000;stroke-linejoin:miter;stroke-width:2;"/>
   </g>
  </g>
 </g>
 <defs>
  <clipPath id="pba8041c71d">
   <rect height="433.704" width="342.72" x="7.2" y="7.2"/>
  </clipPath>
 </defs>
</svg>
