<?xml version="1.0" encoding="UTF-8" standalone="no"?>
<!-- Created with Inkscape (http://www.inkscape.org/) -->

<svg
   xmlns:dc="http://purl.org/dc/elements/1.1/"
   xmlns:cc="http://creativecommons.org/ns#"
   xmlns:rdf="http://www.w3.org/1999/02/22-rdf-syntax-ns#"
   xmlns:svg="http://www.w3.org/2000/svg"
   xmlns="http://www.w3.org/2000/svg"
   xmlns:sodipodi="http://sodipodi.sourceforge.net/DTD/sodipodi-0.dtd"
   xmlns:inkscape="http://www.inkscape.org/namespaces/inkscape"
   version="1.1"
   id="svg1964"
   xml:space="preserve"
   width="654.31024"
   height="649.91138"
   viewBox="0 0 654.31024 649.91135"
   sodipodi:docname="4-bit-SPLC780.svg"
   inkscape:version="0.92.5 (2060ec1f9f, 2020-04-08)"><metadata
     id="metadata1970"><rdf:RDF><cc:Work
         rdf:about=""><dc:format>image/svg+xml</dc:format><dc:type
           rdf:resource="http://purl.org/dc/dcmitype/StillImage" /><dc:title></dc:title></cc:Work></rdf:RDF></metadata><defs
     id="defs1968" /><sodipodi:namedview
     pagecolor="#ffffff"
     bordercolor="#666666"
     borderopacity="1"
     objecttolerance="10"
     gridtolerance="10"
     guidetolerance="10"
     inkscape:pageopacity="0"
     inkscape:pageshadow="2"
     inkscape:window-width="1848"
     inkscape:window-height="1136"
     id="namedview1966"
     showgrid="false"
     fit-margin-top="0"
     fit-margin-left="0"
     fit-margin-right="0"
     fit-margin-bottom="0"
     inkscape:zoom="1"
     inkscape:cx="328.36438"
     inkscape:cy="266.81865"
     inkscape:window-x="72"
     inkscape:window-y="27"
     inkscape:window-maximized="1"
     inkscape:current-layer="g1972" /><g
     id="g1972"
     inkscape:groupmode="layer"
     inkscape:label="SPLC780"
     transform="matrix(1.3333333,0,0,-1.3333333,-68.302276,981.7719)"><g
       id="g1974" /><path
       d="M 52.2,735.56 H 541.14 V 249.92 H 52.2 Z"
       style="fill:#ffffff;fill-opacity:1;fill-rule:nonzero;stroke:none"
       id="path2028"
       inkscape:connector-curvature="0" /><g
       id="g2030"
       transform="scale(1.0382996,-0.9631042)"><path
         d="m 126.493,-724.495 h 71.712 v -20.995 h -71.712 z"
         style="fill:none;stroke:#000000;stroke-width:0.63700002;stroke-linecap:round;stroke-linejoin:round;stroke-miterlimit:10;stroke-dasharray:none;stroke-opacity:1"
         id="path2032"
         inkscape:connector-curvature="0" /></g><text
       transform="matrix(1,0,0,-1,147.778,705.3109)"
       style="font-variant:normal;font-weight:normal;font-size:8.48569965px;font-family:Arial;-inkscape-font-specification:Arial;writing-mode:lr-tb;fill:#000000;fill-opacity:1;fill-rule:nonzero;stroke:none"
       id="text2036"><tspan
         x="0 6.0655785 11.104387 17.636679 22.675488 25.796528 28.317629 35.52029"
         y="0"
         sodipodi:role="line"
         id="tspan2034">Power On</tspan></text>
<g
       id="g2038"
       transform="scale(1.0382843,-0.963089)"><path
         d="m 119.386,-675.466 h 86.043 v -35.012 h -86.043 z"
         style="fill:none;stroke:#000000;stroke-width:0.63700002;stroke-linecap:round;stroke-linejoin:round;stroke-miterlimit:10;stroke-dasharray:none;stroke-opacity:1"
         id="path2040"
         inkscape:connector-curvature="0" /></g><text
       transform="matrix(1,0,0,-1,130.4365,670.2025)"
       style="font-variant:normal;font-weight:normal;font-size:8.48560047px;font-family:Arial;-inkscape-font-specification:Arial;writing-mode:lr-tb;fill:#000000;fill-opacity:1;fill-rule:nonzero;stroke:none"
       id="text2046"><tspan
         x="0 9.1822681 14.223563 16.201555 18.782026 21.303099 23.824171 25.802164 33.660679 38.701973 41.282444 46.561337 49.082409 54.183102 59.224396 61.804867 69.603981"
         y="0"
         sodipodi:role="line"
         id="tspan2042">Wait time &gt; 15 ms</tspan><tspan
         x="4.2003722 9.2985201 11.935845 14.454371 19.552519 22.614124 25.135197 31.192217 37.851715 44.451817 46.972889 52.308632 54.829704 59.868454 62.446381 67.48513"
         y="10.802169"
         sodipodi:role="line"
         id="tspan2044">after VDD &gt; 4.5V</tspan></text>
<g
       id="g2048"
       transform="scale(1.038269,-0.9630737)"><path
         d="M 92.458,-633.414 H 232.3 v -28.034 H 92.458 Z"
         style="fill:none;stroke:#000000;stroke-width:0.63700002;stroke-linecap:round;stroke-linejoin:round;stroke-miterlimit:10;stroke-dasharray:none;stroke-opacity:1"
         id="path2050"
         inkscape:connector-curvature="0" /></g><text
       transform="matrix(1,0,0,-1,102.9559,627.2953)"
       style="font-variant:normal;font-weight:normal;font-size:8.48550034px;font-family:Arial;-inkscape-font-specification:Arial;writing-mode:lr-tb;fill:#000000;fill-opacity:1;fill-rule:nonzero;stroke:none"
       id="text2056"><tspan
         x="0 6.6585717 12.714673 17.756758 24.415329 26.932978 36.052345 41.153828 47.752998 53.809101 58.906342 64.00782 70.606995 76.663101 81.760338 86.802422 93.460991 99.517097 104.55494 109.65642 116.25559 122.31169"
         y="0"
         sodipodi:role="line"
         id="tspan2052">RS R/W DB7 DB6 DB5 DB4</tspan><tspan
         x="-1.0776585 1.4433836 16.43811 21.539593 47.455158 66.769005 74.33213 79.432762 97.19886 102.29949 120.06558"
         y="12.176693"
         sodipodi:role="line"
         id="tspan2054"> 0 00 0 1 1</tspan></text>
<g
       id="g2058"
       transform="scale(1.0382538,-0.9630585)"><path
         d="m 119.386,-598.34 h 86.043 v -21.057 h -86.043 z"
         style="fill:none;stroke:#000000;stroke-width:0.63700002;stroke-linecap:round;stroke-linejoin:round;stroke-miterlimit:10;stroke-dasharray:none;stroke-opacity:1"
         id="path2060"
         inkscape:connector-curvature="0" /></g><text
       transform="matrix(1,0,0,-1,129.1131,583.8493)"
       style="font-variant:normal;font-weight:normal;font-size:8.48530006px;font-family:Arial;-inkscape-font-specification:Arial;writing-mode:lr-tb;fill:#000000;fill-opacity:1;fill-rule:nonzero;stroke:none"
       id="text2064"><tspan
         x="0 9.1802464 14.219666 16.195892 18.774574 21.295557 23.814842 25.791069 33.64761 38.687027 41.267406 46.544415 49.065399 54.164215 56.683502 61.782318 64.303299 72.100441"
         y="0"
         sodipodi:role="line"
         id="tspan2062">Wait time &gt; 4.1 ms</tspan></text>
<g
       id="g2066"
       transform="scale(1.0382385,-0.9630432)"><path
         d="m 119.386,-521.276 h 86.043 v -21.057 h -86.043 z"
         style="fill:none;stroke:#000000;stroke-width:0.63700002;stroke-linecap:round;stroke-linejoin:round;stroke-miterlimit:10;stroke-dasharray:none;stroke-opacity:1"
         id="path2068"
         inkscape:connector-curvature="0" /></g><text
       transform="matrix(1,0,0,-1,129.2314,509.5665)"
       style="font-variant:normal;font-weight:normal;font-size:8.48519993px;font-family:Arial;-inkscape-font-specification:Arial;writing-mode:lr-tb;fill:#000000;fill-opacity:1;fill-rule:nonzero;stroke:none"
       id="text2072"><tspan
         x="0 9.1215897 14.221195 16.198246 18.718351 21.299549 23.819653 25.796705 33.653999 38.69421 41.216011 46.5532 49.075005 54.174606 59.214817 64.314423 66.83622 71.935829"
         y="0"
         sodipodi:role="line"
         id="tspan2070">Wait time &gt; 100 us</tspan></text>
<g
       id="g2074"
       transform="scale(1.0382385,-0.9630432)"><path
         d="M 273.501,-568.623 H 477.717 V -582.64 H 273.501 Z"
         style="fill:none;stroke:#000000;stroke-width:0.63700002;stroke-linecap:round;stroke-linejoin:round;stroke-miterlimit:10;stroke-dasharray:none;stroke-opacity:1"
         id="path2076"
         inkscape:connector-curvature="0" /></g><text
       transform="matrix(1,0,0,-1,292.5967,551.7964)"
       style="font-variant:normal;font-weight:normal;font-size:8.48509979px;font-family:Arial;-inkscape-font-specification:Arial;writing-mode:lr-tb;fill:#000000;fill-opacity:1;fill-rule:nonzero;stroke:none"
       id="text2082"><tspan
         x="0 6.0592098 11.70265 14.223573 18.840317 23.94071 28.973223 34.073616 39.106129 41.686447 44.207371 49.307766 54.348763 56.869686 61.545826 66.586823 71.687218 76.303955 81.03949 86.139885 91.172401 93.752716 98.785233 103.88563 106.55928 111.59179 114.73213 119.76464 122.34496 124.86588 129.96628 131.94415 136.5609 139.08182 141.05969 146.1601 150.77684 153.29776 156.4381 161.47061 166.14674 168.66766 170.64554 175.74594 180.77844 183.29938"
         y="0"
         sodipodi:role="line"
         id="tspan2078">BF cannot be checked before this instruction .</tspan><tspan
         x="-0.66183782 4.9222064 10.0226 15.122993 19.739737 22.26066 24.238537 29.33893 34.379929 36.960247 41.576988 46.617989 49.198307 51.719231 54.842594 57.363518 59.884441 64.984833 67.50576 72.606155 75.661636 78.301353 83.401749 88.018486 93.059486 95.639801 97.617683 102.23442 104.75535 109.85574 112.37666 117.47706 119.45493 121.97586 126.5926 129.17291 131.1508 136.19179 141.29219 146.39258 148.9135 153.9545 156.53482 159.05574 161.57668"
         y="13.499794"
         sodipodi:role="line"
         id="tspan2080">Function set ( Interface is 8 bits length . )</tspan></text>
<g
       id="g2084"
       transform="scale(1.0382233,-0.963028)"><g
         id="g2086"
         transform="translate(266.278,-584.385)"><path
           d="m 0,0 -3.583,3.551 v 8.785 l -3.525,1.682 3.525,1.744 v 8.784 L 0,28.035 M 7.223,-61.302 H 211.439 V -75.319 H 7.223 Z"
           style="fill:none;stroke:#000000;stroke-width:0.63700002;stroke-linecap:round;stroke-linejoin:round;stroke-miterlimit:10;stroke-dasharray:none;stroke-opacity:1"
           id="path2088"
           inkscape:connector-curvature="0" /></g></g><text
       transform="matrix(1,0,0,-1,292.5928,626.0021)"
       style="font-variant:normal;font-weight:normal;font-size:8.48499966px;font-family:Arial;-inkscape-font-specification:Arial;writing-mode:lr-tb;fill:#000000;fill-opacity:1;fill-rule:nonzero;stroke:none"
       id="text2094"><tspan
         x="0 6.0591383 11.702512 14.223406 18.840094 23.940428 28.972881 34.073215 39.105667 41.685955 44.206848 49.307182 54.348122 56.869015 61.545097 66.586037 71.686371 76.303062 81.038536 86.13887 91.171326 93.75161 98.784065 103.8844 106.55802 111.59048 114.73077 119.76323 122.34352 124.86441 129.96475 131.9426 136.55928 139.08018 141.05803 146.15837 150.77505 153.29594 156.43625 161.4687 166.14479 168.66568 170.64354 175.74387 180.77632 183.29721"
         y="0"
         sodipodi:role="line"
         id="tspan2090">BF cannot be checked before this instruction .</tspan><tspan
         x="-0.66183001 4.9221487 10.022482 15.122815 19.739504 22.260397 24.238251 29.338585 34.379524 36.959812 41.5765 46.617439 49.197727 51.71862 54.841949 57.362843 59.883736 64.98407 67.504967 72.605293 75.660744 78.30043 83.400764 88.017448 93.058388 95.63868 97.616531 102.23322 104.75411 109.85445 112.37534 117.47567 119.45353 121.97442 126.59111 129.1714 131.14925 136.19019 141.29053 146.39085 148.91174 153.95268 156.53297 159.05386 161.57477"
         y="13.499635"
         sodipodi:role="line"
         id="tspan2092">Function set ( Interface is 8 bits length . )</tspan></text>
<g
       id="g2096"
       transform="scale(1.038208,-0.9630127)"><g
         id="g2098"
         transform="translate(266.278,-661.448)"><path
           d="m 0,0 -3.583,3.551 v 8.784 l -3.525,1.682 3.525,1.744 v 8.784 L 0,28.034 M 7.223,169.889 H 211.439 V 155.872 H 7.223 Z"
           style="fill:none;stroke:#000000;stroke-width:0.63700002;stroke-linecap:round;stroke-linejoin:round;stroke-miterlimit:10;stroke-dasharray:none;stroke-opacity:1"
           id="path2100"
           inkscape:connector-curvature="0" /></g></g><text
       transform="matrix(1,0,0,-1,292.5889,477.5696)"
       style="font-variant:normal;font-weight:normal;font-size:8.48490047px;font-family:Arial;-inkscape-font-specification:Arial;writing-mode:lr-tb;fill:#000000;fill-opacity:1;fill-rule:nonzero;stroke:none"
       id="text2106"><tspan
         x="0 6.0590672 11.702374 14.223238 18.839872 23.940145 28.97254 34.072811 39.105206 41.685467 44.206329 49.306602 54.347481 56.868347 61.544373 66.585251 71.685524 76.302162 81.037582 86.137856 91.17025 93.750511 98.782906 103.88318 106.55677 111.58916 114.72942 119.76182 122.34208 124.86294 129.96321 131.94104 136.55768 139.07854 141.05637 146.15665 150.77328 153.29414 156.4344 161.4668 166.14282 168.6637 170.64153 175.74179 180.77419 183.29506"
         y="0"
         sodipodi:role="line"
         id="tspan2102">BF cannot be checked before this instruction .</tspan><tspan
         x="-0.6618222 4.9220905 10.022364 15.122637 19.739271 22.260136 24.237965 29.33824 34.379116 36.959377 41.576012 46.61689 49.197147 51.71801 54.841301 57.362167 59.88303 64.983307 67.504166 72.604439 75.659851 78.299507 83.39978 88.016411 93.057289 95.63755 97.615379 102.23202 104.75288 109.85315 112.37402 117.47429 119.45212 121.97298 126.58961 129.16988 131.14771 136.18858 141.28886 146.38913 148.90999 153.95087 156.53113 159.052 161.57286"
         y="13.499476"
         sodipodi:role="line"
         id="tspan2104">Function set ( Interface is 8 bits length . )</tspan></text>
<g
       id="g2108"
       transform="scale(1.0381927,-0.9629974)"><g
         id="g2110"
         transform="translate(266.278,-507.259)"><path
           d="m 0,0 -3.583,3.489 v 8.784 l -3.525,1.682 3.525,1.745 v 8.784 L 0,27.973 M 7.223,77.064 H 211.439 V 49.03 H 7.223 Z"
           style="fill:none;stroke:#000000;stroke-width:0.63700002;stroke-linecap:round;stroke-linejoin:round;stroke-miterlimit:10;stroke-dasharray:none;stroke-opacity:1"
           id="path2112"
           inkscape:connector-curvature="0" /></g></g><text
       transform="matrix(1,0,0,-1,299.1843,430.6489)"
       style="font-variant:normal;font-weight:normal;font-size:8.48480034px;font-family:Arial;-inkscape-font-specification:Arial;writing-mode:lr-tb;fill:#000000;fill-opacity:1;fill-rule:nonzero;stroke:none"
       id="text2132"><tspan
         x="0 6.0547533 11.693751 14.214585 18.835407 23.931379 29.027349 31.548183 36.593246 41.689217 44.210049 48.890266 53.926842 59.022816 63.643635 68.383247 73.479218 78.524277 81.045113 86.141083 88.78495 91.301537 96.397507 99.45713 102.03735 104.55395 109.64992 114.69498 117.21581 119.9021 124.94717 126.92921 128.91127 134.00723 140.46077 142.50221 147.54727"
         y="0"
         sodipodi:role="line"
         id="tspan2114">BF can be checked after the following</tspan><tspan
         x="-3.0036192 -0.96387327 4.0710073 8.6901321 11.272905 14.330827 19.4251 24.044226 26.567606 28.547958 33.642231 38.677113 43.355633 45.876465"
         y="10.860544"
         sodipodi:role="line"
         id="tspan2116">instructions .</tspan><tspan
         x="1.018176 6.6020226 11.702236 16.80245 21.419029 23.939863 25.917669 31.017883 36.058704 38.638931 43.255512 48.296329 50.876556 53.397392 56.452766 59.032997 65.091995 70.132812 72.713036 75.233871 77.211678 82.31189 84.832726 89.87355 92.996803 95.636421 100.73663 105.35322 110.39404 112.97427 115.49509 120.59531 123.11614 128.15697 133.25717 135.77802 140.87822 143.39906 148.49927 150.47708 152.99791 157.61449 160.19472 162.17253 167.21335 172.31357 177.35439 179.9346 184.97543"
         y="25.675005"
         sodipodi:role="line"
         id="tspan2118">Function set ( Set interface to be 4 bits length)</tspan><tspan
         x="-1.5612032 1.018176 6.0581474 8.5781326 13.677498 16.816874 19.489586 24.521072 29.136803 34.236168 36.757004 38.733959 43.409084 45.92992 50.961407 53.541634 58.57312 60.550079 63.129456 67.745186 70.266022 72.242981 77.342346 82.373833 87.473198 89.993179 95.092545 97.61338"
         y="35.754948"
         sodipodi:role="line"
         id="tspan2120">Interface is 8 bits length .</tspan><tspan
         x="0.53454238 6.2914791 11.327208 16.422331 18.943165 24.038286 29.074017 36.935184 42.030304 47.066032 50.209652 52.730488 57.766216 60.443169 62.964005 67.999733 70.040329 74.660301 79.69603 81.677231 86.772354 91.09536 93.616196 95.597397 97.57859 102.67371 107.70944 112.38881 114.90965 119.94537 125.0405 130.13562 132.65645 137.27643 142.37155 147.40727 150.5509 155.58662 160.26599 162.79022 167.82594"
         y="93.103706"
         sodipodi:role="line"
         id="tspan2122">The number of display lines and character</tspan><tspan
         x="-0.30545279 2.3316231 7.3698974 12.467566 14.985854 17.506687 22.188601 27.226875 32.324543 37.362816 42.460484 44.978775 47.499607 52.597275 57.694942 60.215778 64.838295 69.935966 74.974236 80.071907 85.110184 90.207848 95.305519 97.826347 102.86462 105.5611 108.07938 113.11765 116.23837 122.71906 127.81673 130.87804 135.97571 140.59822 143.17845"
         y="103.24305"
         sodipodi:role="line"
         id="tspan2124">font cannot be changed afterwards .</tspan><tspan
         x="0.53454238 7.192565 9.1669779 13.788649 18.826075 20.85988 25.897306 30.213524 32.73436 37.831177 40.475891"
         y="123.46232"
         sodipodi:role="line"
         id="tspan2126">Display off</tspan><tspan
         x="1.018176 7.5989871 9.5810366 14.201859 19.297829 21.279879 26.316456 30.631824 33.15266 37.849846 39.831894 44.868469 49.964443"
         y="143.741"
         sodipodi:role="line"
         id="tspan2128">Display clear</tspan><tspan
         x="1.018176 7.0737777 12.111203 14.696522 17.748505 22.064722 24.585556 32.448421 37.485847 42.582664 47.62009 50.200317 54.821991 59.859417"
         y="163.96028"
         sodipodi:role="line"
         id="tspan2130">Entry mode set</tspan></text>
<g
       id="g2134"
       transform="scale(1.0381775,-0.9629822)"><g
         id="g2136"
         transform="translate(162.378,-521.276)"><path
           d="m 0,0 v 14.017 m 0,-49.091 v 14.017 m 0,-56.007 v 13.955 m 0,-49.029 v 14.017 m 0,-56.069 v 14.018 m 0,-63.047 v 14.017 M 0,41.99 v 35.074"
           style="fill:none;stroke:#000000;stroke-width:0.63700002;stroke-linecap:round;stroke-linejoin:round;stroke-miterlimit:10;stroke-dasharray:none;stroke-opacity:1"
           id="path2138"
           inkscape:connector-curvature="0" /></g></g><text
       transform="matrix(1,0,0,-1,255.7461,718.7249)"
       style="font-variant:normal;font-weight:bold;font-size:8.4847002px;font-family:Arial;-inkscape-font-specification:'Arial Bold';writing-mode:lr-tb;fill:#000000;fill-opacity:1;fill-rule:nonzero;stroke:none"
       id="text2142"><tspan
         x="0 3.0595827 8.1605844 13.188618 16.324562 22.922266 25.438828 28.574772 31.095577 33.612141 39.251072 42.387016 47.415051 50.949776 54.068752 59.096783 64.192696 69.220726 74.321732"
         y="0"
         sodipodi:role="line"
         id="tspan2140">[ 4-Bit Interface ]</tspan></text>
<text
       transform="matrix(1,0,0,-1,299.29807,377.97086)"
       style="font-variant:normal;font-weight:normal;font-size:8.4847002px;font-family:Arial;-inkscape-font-specification:Arial;writing-mode:lr-tb;fill:#000000;fill-opacity:1;fill-rule:nonzero;stroke:none"
       id="text2150"><tspan
         x="0 5.6431742 10.683934 15.784087 20.400612 22.921417 24.8992 29.999353 35.099506 37.620312 42.236835 47.33699 49.857796 54.958797 58.014137 60.534939 63.115139 68.155899 70.676704 75.776855 78.832199 81.531181 86.571938 91.188461 96.28862 98.809425 100.78721 105.46313 107.98392 113.02469 115.60489 120.64565 122.62343 125.20363 129.82016 132.34096 134.31874 139.4189 144.45966 149.55981 152.08061 157.18077 159.70157"
         y="0"
         sodipodi:role="line"
         id="tspan2144">Function set ( Interface is 4 bits length .</tspan><tspan
         x="0.2969645 6.4127364 11.450952 16.548559 21.171024 23.146261 25.783306 30.100321 32.621124 35.139385 40.236992 45.334602 47.855404 52.89362 57.991226 65.846359 70.884575 75.982185 79.043465 81.56427 86.66188 89.29892 91.819725 94.397377 99.435593 104.5332 107.05401 112.15161 114.12685 118.74931 123.84692 125.82216 130.86038 135.1774 137.6982 139.67343 141.64867 146.74628 151.84389"
         y="10.079824"
         sodipodi:role="line"
         id="tspan2146">Specify the number of the display lines</tspan><tspan
         x="-2.3417771 2.7558305 7.7940454 12.891653 15.412457 20.094315 25.13253 30.230137 33.291416 38.389027 43.01149 45.529747 50.627357 53.688637 56.268833 58.90588 63.944092 69.041702 71.559959 74.080765 76.658417 79.179222"
         y="20.21904"
         sodipodi:role="line"
         id="tspan2148">and character font . )</tspan></text>
<g
       id="g2152"
       transform="scale(1.0381622,-0.9629669)"><path
         d="M 92.458,-556.35 H 232.3 v -28.034 H 92.458 Z"
         style="fill:none;stroke:#000000;stroke-width:0.63700002;stroke-linecap:round;stroke-linejoin:round;stroke-miterlimit:10;stroke-dasharray:none;stroke-opacity:1"
         id="path2154"
         inkscape:connector-curvature="0" /></g><text
       transform="matrix(1,0,0,-1,102.945,553.0196)"
       style="font-variant:normal;font-weight:normal;font-size:8.48460007px;font-family:Arial;-inkscape-font-specification:Arial;writing-mode:lr-tb;fill:#000000;fill-opacity:1;fill-rule:nonzero;stroke:none"
       id="text2160"><tspan
         x="0 6.6578655 12.713325 17.754873 24.412739 26.93012 36.048519 41.14946 47.747936 53.803394 58.900093 64.001038 70.59951 76.654968 81.751663 86.793213 93.45108 99.506538 104.54385 109.64479 116.24326 122.29872"
         y="0"
         sodipodi:role="line"
         id="tspan2156">RS R/W DB7 DB6 DB5 DB4</tspan><tspan
         x="-1.0775442 1.4432305 16.436367 21.537308 47.450127 66.761925 74.324249 79.424339 97.188545 102.28864 120.05285"
         y="12.175401"
         sodipodi:role="line"
         id="tspan2158"> 0 00 0 1 1</tspan></text>
<g
       id="g2162"
       transform="scale(1.038147,-0.9629669)"><path
         d="M 92.458,-479.286 H 232.3 v -27.972 H 92.458 Z"
         style="fill:none;stroke:#000000;stroke-width:0.63700002;stroke-linecap:round;stroke-linejoin:round;stroke-miterlimit:10;stroke-dasharray:none;stroke-opacity:1"
         id="path2164"
         inkscape:connector-curvature="0" /></g><text
       transform="matrix(1,0,0,-1,102.9436,478.804)"
       style="font-variant:normal;font-weight:normal;font-size:8.4843998px;font-family:Arial;-inkscape-font-specification:Arial;writing-mode:lr-tb;fill:#000000;fill-opacity:1;fill-rule:nonzero;stroke:none"
       id="text2170"><tspan
         x="0 6.6577086 12.713025 17.754456 24.412165 26.929485 36.047668 41.148491 47.746811 53.802124 58.898705 63.999527 70.597847 76.65316 81.749741 86.791168 93.448875 99.504196 104.54138 109.6422 116.24052 122.29584"
         y="0"
         sodipodi:role="line"
         id="tspan2166">RS R/W DB7 DB6 DB5 DB4</tspan><tspan
         x="-1.0775188 1.4431964 16.43598 21.5368 47.449005 66.760353 74.322495 79.42247 97.186256 102.28623 120.05002"
         y="12.175114"
         sodipodi:role="line"
         id="tspan2168"> 0 00 0 1 1</tspan></text>
<g
       id="g2172"
       transform="scale(1.0381317,-0.9629517)"><path
         d="M 92.458,-416.178 H 232.3 v -28.034 H 92.458 Z"
         style="fill:none;stroke:#000000;stroke-width:0.63700002;stroke-linecap:round;stroke-linejoin:round;stroke-miterlimit:10;stroke-dasharray:none;stroke-opacity:1"
         id="path2174"
         inkscape:connector-curvature="0" /></g><text
       transform="matrix(1,0,0,-1,102.9422,418.0282)"
       style="font-variant:normal;font-weight:normal;font-size:8.48429966px;font-family:Arial;-inkscape-font-specification:Arial;writing-mode:lr-tb;fill:#000000;fill-opacity:1;fill-rule:nonzero;stroke:none"
       id="text2184"><tspan
         x="0 6.6576304 12.712875 17.754246 24.411877 26.929169 36.047245 41.148006 47.746246 53.801491 58.89801 63.998772 70.597015 76.65226 81.748779 86.790146 93.447777 99.503021 104.54015 109.64091 116.23915 122.2944"
         y="0"
         sodipodi:role="line"
         id="tspan2176">RS R/W DB7 DB6 DB5 DB4</tspan><tspan
         x="-1.0775061 1.4431795 16.435785 21.536547 47.448448 66.75956 74.321617 79.421532 97.185112 102.28503 120.0486"
         y="12.11558"
         sodipodi:role="line"
         id="tspan2178"> 0 00 0 1 0</tspan><tspan
         x="1.2047706 19.862595 22.442671 27.483192 45.246773 69.597565 74.698326 79.798233 97.561813 102.60233 120.36591"
         y="26.572828"
         sodipodi:role="line"
         id="tspan2180">0 0 0 0 1 0</tspan><tspan
         x="1.2047706 19.319599 21.840284 46.555901 68.751678 73.793045 79.435959 97.199532 116.6973 119.27738"
         y="40.07135"
         sodipodi:role="line"
         id="tspan2182">0 0N F X X</tspan></text>
<g
       id="g2186"
       transform="scale(1.0381165,-0.9629364)"><path
         d="M 92.458,-388.206 H 232.3 v -27.972 H 92.458 Z"
         style="fill:none;stroke:#000000;stroke-width:0.63700002;stroke-linecap:round;stroke-linejoin:round;stroke-miterlimit:10;stroke-dasharray:none;stroke-opacity:1"
         id="path2188"
         inkscape:connector-curvature="0" /></g><text
       transform="matrix(1,0,0,-1,104.1407,364.5126)"
       style="font-variant:normal;font-weight:normal;font-size:8.48419952px;font-family:Arial;-inkscape-font-specification:Arial;writing-mode:lr-tb;fill:#000000;fill-opacity:1;fill-rule:nonzero;stroke:none"
       id="text2194"><tspan
         x="0 18.657604 21.23765 26.278112 44.041481 68.391983 73.492683 78.592537 96.355911 101.39637 119.15974"
         y="0"
         sodipodi:role="line"
         id="tspan2190">0 0 0 0 0 0</tspan><tspan
         x="0 18.114614 20.635271 45.706932 73.120232 78.220085 95.983452 118.47591"
         y="13.498362"
         sodipodi:role="line"
         id="tspan2192">0 010 00</tspan></text>
<g
       id="g2196"
       transform="scale(1.0381012,-0.9629211)"><path
         d="M 92.458,-360.171 H 232.3 v -28.034 H 92.458 Z"
         style="fill:none;stroke:#000000;stroke-width:0.63700002;stroke-linecap:round;stroke-linejoin:round;stroke-miterlimit:10;stroke-dasharray:none;stroke-opacity:1"
         id="path2198"
         inkscape:connector-curvature="0" /></g><text
       transform="matrix(1,0,0,-1,104.1393,337.5132)"
       style="font-variant:normal;font-weight:normal;font-size:8.48410034px;font-family:Arial;-inkscape-font-specification:Arial;writing-mode:lr-tb;fill:#000000;fill-opacity:1;fill-rule:nonzero;stroke:none"
       id="text2204"><tspan
         x="0 18.657385 21.2374 26.277803 44.040962 67.313698 72.414337 92.446144 97.546791 102.58719 117.82973"
         y="0"
         sodipodi:role="line"
         id="tspan2200">0 0 0 0 0 0</tspan><tspan
         x="0 18.114403 20.635029 45.765781 73.11937 78.219162 95.982323 118.71207"
         y="13.498203"
         sodipodi:role="line"
         id="tspan2202">0 000 01</tspan></text>
<g
       id="g2206"
       transform="scale(1.0380859,-0.9629059)"><path
         d="M 92.458,-332.137 H 232.3 v -28.034 H 92.458 Z"
         style="fill:none;stroke:#000000;stroke-width:0.63700002;stroke-linecap:round;stroke-linejoin:round;stroke-miterlimit:10;stroke-dasharray:none;stroke-opacity:1"
         id="path2208"
         inkscape:connector-curvature="0" /></g><text
       transform="matrix(1,0,0,-1,104.1379,310.5145)"
       style="font-variant:normal;font-weight:normal;font-size:8.48400021px;font-family:Arial;-inkscape-font-specification:Arial;writing-mode:lr-tb;fill:#000000;fill-opacity:1;fill-rule:nonzero;stroke:none"
       id="text2214"><tspan
         x="0 18.657164 21.237148 26.277493 44.040443 68.390373 73.490952 78.590683 96.353638 101.39398 119.15693"
         y="0"
         sodipodi:role="line"
         id="tspan2210">0 0 0 0 0 0</tspan><tspan
         x="0 18.114189 20.634785 46.248829 73.237282 78.337013 93.579369 96.099968 98.62056 118.47397"
         y="13.498044"
         sodipodi:role="line"
         id="tspan2212">0 001 I/DS</tspan></text>
<g
       id="g2216"
       transform="scale(1.0380859,-0.9628906)"><path
         d="M 92.458,-304.102 H 232.3 v -28.035 H 92.458 Z"
         style="fill:none;stroke:#000000;stroke-width:0.63700002;stroke-linecap:round;stroke-linejoin:round;stroke-miterlimit:10;stroke-dasharray:none;stroke-opacity:1"
         id="path2218"
         inkscape:connector-curvature="0" /></g><text
       transform="matrix(1,0,0,-1,129.6308,261.5614)"
       style="font-variant:normal;font-weight:normal;font-size:8.48390007px;font-family:Arial;-inkscape-font-specification:Arial;writing-mode:lr-tb;fill:#000000;fill-opacity:1;fill-rule:nonzero;stroke:none"
       id="text2222"><tspan
         x="0 2.5808024 7.6219358 9.6003809 12.121797 14.159629 19.200762 21.179209 23.157654 27.59643 32.637562 35.218365 37.196812 42.237946 47.338467 49.859032 55.918232 61.018753 66.119278"
         y="0"
         sodipodi:role="line"
         id="tspan2220">Initialization Ends</tspan></text>
<g
       id="g2224"
       transform="scale(1.0380707,-0.9628754)"><g
         id="g2226"
         transform="translate(162.378,-304.102)"><path
           d="M 0,0 V 18.378"
           style="fill:none;stroke:#000000;stroke-width:0.63700002;stroke-linecap:round;stroke-linejoin:round;stroke-miterlimit:10;stroke-dasharray:none;stroke-opacity:1"
           id="path2228"
           inkscape:connector-curvature="0" /></g></g><g
       id="g2230"
       transform="scale(0.9997559)"><g
         id="g2232"
         transform="translate(171.24,275.78)"><path
           d="M 0,0 -2.64,-4.86 -5.4,0 H 0"
           style="fill:#000000;fill-opacity:1;fill-rule:evenodd;stroke:none"
           id="path2234"
           inkscape:connector-curvature="0" /></g></g><text
       transform="matrix(1,0,0,-1,283.3723,672.9395)"
       style="font-variant:normal;font-weight:normal;font-size:8.48379993px;font-family:Arial;-inkscape-font-specification:Arial;writing-mode:lr-tb;fill:#000000;fill-opacity:1;fill-rule:nonzero;stroke:none"
       id="text2240"><tspan
         x="0 9.1811686 14.222242 16.200665 18.781437 21.301973 23.823359 25.801781 33.659477 38.70055 41.280476 46.559093 49.079632 54.180092 59.221165 67.078865"
         y="0"
         sodipodi:role="line"
         id="tspan2236">Wait time &gt; 40ms</tspan><tspan
         x="0 6.0523429 8.6941986 11.276667 16.310953 19.427902 21.948439 28.000782 34.596088 41.250782 43.771317 49.051636 51.631557 56.665844 59.188927 64.299568"
         y="10.197528"
         sodipodi:role="line"
         id="tspan2238">After VDD &gt; 2.7V</tspan></text>
<g
       id="g2242"
       transform="scale(1.0380554,-0.9628754)"><g
         id="g2244"
         transform="translate(266.74,-708.796)"><path
           d="m 0,0 -1.098,0.125 -1.04,0.623 -0.983,0.872 -0.924,1.246 -0.751,1.62 -0.636,1.807 -0.404,1.931 -0.347,2.118 -0.116,2.181 0.116,2.055 0.347,1.994 0.404,1.931 0.636,1.682 0.751,1.495 0.867,1.246 1.04,1.06 1.04,0.685 L 0,25.107 m 78.415,0 1.156,-0.249 1.04,-0.499 0.983,-0.996 0.809,-1.246 0.866,-1.496 0.636,-1.806 0.462,-1.994 0.289,-2.118 V 10.404 L 84.367,8.535 83.905,6.604 83.269,4.797 82.518,3.302 81.594,2.056 80.611,1.06 79.571,0.374 78.415,0"
           style="fill:none;stroke:#000000;stroke-width:0.63700002;stroke-linecap:round;stroke-linejoin:round;stroke-miterlimit:10;stroke-dasharray:none;stroke-opacity:1"
           id="path2246"
           inkscape:connector-curvature="0" /></g></g><g
       id="g2248"
       transform="scale(0.9997406)"><path
         d="m 51.24,736.52 h 0.96 v -0.96 h -0.96 z"
         style="fill:#000000;fill-opacity:1;fill-rule:nonzero;stroke:none"
         id="path2250"
         inkscape:connector-curvature="0" /></g><g
       id="g2252"
       transform="scale(0.9997406)"><path
         d="M 51.24,736.52 H 542.1 v -0.96 H 51.24 Z"
         style="fill:#000000;fill-opacity:1;fill-rule:nonzero;stroke:none"
         id="path2254"
         inkscape:connector-curvature="0" /></g><g
       id="g2256"
       transform="scale(0.9997406)"><path
         d="m 541.14,736.52 h 0.96 v -0.96 h -0.96 z"
         style="fill:#000000;fill-opacity:1;fill-rule:nonzero;stroke:none"
         id="path2258"
         inkscape:connector-curvature="0" /></g><g
       id="g2260"
       transform="scale(0.9997406)"><path
         d="m 51.24,249.92 h 0.96 v -0.96 h -0.96 z"
         style="fill:#000000;fill-opacity:1;fill-rule:nonzero;stroke:none"
         id="path2262"
         inkscape:connector-curvature="0" /></g><g
       id="g2264"
       transform="scale(0.9997406)"><path
         d="M 51.24,249.92 H 542.1 v -0.96 H 51.24 Z"
         style="fill:#000000;fill-opacity:1;fill-rule:nonzero;stroke:none"
         id="path2266"
         inkscape:connector-curvature="0" /></g><g
       id="g2268"
       transform="scale(0.9997406)"><path
         d="m 541.14,249.92 h 0.96 v -0.96 h -0.96 z"
         style="fill:#000000;fill-opacity:1;fill-rule:nonzero;stroke:none"
         id="path2270"
         inkscape:connector-curvature="0" /></g><g
       id="g2272"
       transform="scale(0.9997406)"><path
         d="M 51.24,735.56 H 52.2 V 249.92 h -0.96 z"
         style="fill:#000000;fill-opacity:1;fill-rule:nonzero;stroke:none"
         id="path2274"
         inkscape:connector-curvature="0" /></g><g
       id="g2276"
       transform="scale(0.9997406)"><path
         d="m 541.14,735.56 h 0.96 V 249.92 h -0.96 z"
         style="fill:#000000;fill-opacity:1;fill-rule:nonzero;stroke:none"
         id="path2278"
         inkscape:connector-curvature="0" /></g></g></svg>