<?xml version="1.0" encoding="UTF-8" standalone="no"?>
<!-- Created with Inkscape (http://www.inkscape.org/) -->

<svg
   xmlns:dc="http://purl.org/dc/elements/1.1/"
   xmlns:cc="http://creativecommons.org/ns#"
   xmlns:rdf="http://www.w3.org/1999/02/22-rdf-syntax-ns#"
   xmlns:svg="http://www.w3.org/2000/svg"
   xmlns="http://www.w3.org/2000/svg"
   xmlns:sodipodi="http://sodipodi.sourceforge.net/DTD/sodipodi-0.dtd"
   xmlns:inkscape="http://www.inkscape.org/namespaces/inkscape"
   version="1.1"
   id="svg2"
   xml:space="preserve"
   width="658.39996"
   height="270.33551"
   viewBox="0 0 658.39996 270.3355"
   sodipodi:docname="selected-commands-SPLC780.svg"
   inkscape:version="0.92.5 (2060ec1f9f, 2020-04-08)"><metadata
     id="metadata8"><rdf:RDF><cc:Work
         rdf:about=""><dc:format>image/svg+xml</dc:format><dc:type
           rdf:resource="http://purl.org/dc/dcmitype/StillImage" /><dc:title></dc:title></cc:Work></rdf:RDF></metadata><defs
     id="defs6" /><sodipodi:namedview
     pagecolor="#ffffff"
     bordercolor="#666666"
     borderopacity="1"
     objecttolerance="10"
     gridtolerance="10"
     guidetolerance="10"
     inkscape:pageopacity="0"
     inkscape:pageshadow="2"
     inkscape:window-width="1848"
     inkscape:window-height="1136"
     id="namedview4"
     showgrid="false"
     fit-margin-top="0"
     fit-margin-left="0"
     fit-margin-right="0"
     fit-margin-bottom="0"
     inkscape:zoom="1"
     inkscape:cx="328"
     inkscape:cy="97.205175"
     inkscape:window-x="72"
     inkscape:window-y="27"
     inkscape:window-maximized="1"
     inkscape:current-layer="g10" /><g
     id="g10"
     inkscape:groupmode="layer"
     inkscape:label="SPLC780"
     transform="matrix(1.3333333,0,0,-1.3333333,-67.359998,813.56337)"><g
       id="g12" /><text
       transform="matrix(1,0,0,-1,51.3,603.6203)"
       style="font-variant:normal;font-weight:bold;font-size:9px;font-family:Arial;-inkscape-font-specification:'Arial Bold';writing-mode:lr-tb;fill:#000000;fill-opacity:1;fill-rule:nonzero;stroke:none"
       id="text60"><tspan
         x="0 4.9967999 7.4916 12.4884 14.9832 19.98 22.4748 25.476299 31.9671 34.461899 39.458698 44.455502 47.949299 50.473801 55.992599 58.5144 63.5112 69.029999 71.524803 76.566597 81.5634"
         y="0"
         sodipodi:role="line"
         id="tspan58">5.2.1. Clear display </tspan></text>
<text
       transform="matrix(1,0,0,-1,51.3,525.73934)"
       style="font-variant:normal;font-weight:normal;font-size:7.98000002px;font-family:Arial;-inkscape-font-specification:Arial;writing-mode:lr-tb;fill:#000000;fill-opacity:1;fill-rule:nonzero;stroke:none"
       id="text66"><tspan
         x="0 2.2280159 4.4560318 7.3376098 11.337186 13.118322 17.564777 22.011234 24.67815 28.677727 31.559303 33.787319 38.233776 42.680233 45.56181 50.008266 54.454723 56.682739 58.463875 61.043011 65.489464 68.37104 72.817497 74.598633 78.598213 83.04467 84.825806 89.272263 93.168098 96.049675 100.49613 104.94259 109.38905 112.27062 116.2702 120.71665 122.81699 126.84051 129.72208 135.49323 137.27435 141.27393 145.72038 147.50153 151.94798 155.84381 158.72539 164.49652 168.94298 171.04332 175.4818 178.36337 184.13451 189.46675 196.12366 199.00523 204.33748 208.78394 213.23039 215.89731 220.34377 224.34334 228.34291 231.22449 235.67094"
         y="0"
         sodipodi:role="line"
         id="tspan62">It clears the entire display and sets Display Data RAM Address 0 </tspan><tspan
         x="0 1.778742 6.2228041 8.0238895 13.353732 17.797794 22.241856 24.906378 29.350439 33.347622 37.344803 39.568829 45.33757 49.781635 54.225697 58.669758 60.895378 65.339439 67.557083 69.782707"
         y="13.98096"
         sodipodi:role="line"
         id="tspan64">in Address Counter. </tspan></text>
<text
       transform="matrix(1,0,0,-1,51.3,483.9803)"
       style="font-variant:normal;font-weight:bold;font-size:9px;font-family:Arial;-inkscape-font-specification:'Arial Bold';writing-mode:lr-tb;fill:#000000;fill-opacity:1;fill-rule:nonzero;stroke:none"
       id="text70"><tspan
         x="0 4.9949999 7.4879999 12.483 14.976 19.971001 22.464001 25.4655 31.9545 36.949501 39.9375 45.454498 48.946499 54.463501 56.987999 62.505001 68.022003 75.996002 80.990997"
         y="0"
         sodipodi:role="line"
         id="tspan68">5.2.2. Return home </tspan></text>
<text
       transform="matrix(1,0,0,-1,51.3,409.1003)"
       style="font-variant:normal;font-weight:normal;font-size:7.98000002px;font-family:Arial;-inkscape-font-specification:Arial;writing-mode:lr-tb;fill:#000000;fill-opacity:1;fill-rule:nonzero;stroke:none"
       id="text84"><tspan
         x="0 5.3218622 7.5395041 9.7611361 15.521898 19.957979 22.179611 26.615694 31.051777 33.269417 35.491051 39.480251 43.916332 46.572876 51.008957 53.286449 55.942993 60.442913 62.664547 67.100632 69.757172 71.978806 76.414886 79.071426"
         y="0"
         sodipodi:role="line"
         id="tspan72">X: Do not care (0 or 1) </tspan><tspan
         sodipodi:role="line"
         id="tspan82"
         x="0"
         y="9.9750004" /></text>
<path
       d="M 51.48,597.56 H 284.4 v -44.7 H 51.48 Z"
       style="fill:#ffffff;fill-opacity:1;fill-rule:nonzero;stroke:none"
       id="path358"
       inkscape:connector-curvature="0" /><text
       transform="matrix(1,0,0,-0.99158804,129.84,582.3803)"
       style="font-variant:normal;font-weight:normal;font-size:6.74039984px;font-family:Arial;-inkscape-font-specification:Arial;writing-mode:lr-tb;fill:#000000;fill-opacity:1;fill-rule:nonzero;stroke:none"
       id="text366"><tspan
         x="0 4.8665686 9.3624153"
         y="0"
         sodipodi:role="line"
         id="tspan360">DB7</tspan><tspan
         x="-65.577354 -60.710781 -56.96312 -53.215458"
         y="13.676272"
         sodipodi:role="line"
         id="tspan362">Code</tspan><tspan
         x="-35.157925 -30.291357 -18.118195 -13.251626 -11.377795"
         y="0"
         sodipodi:role="line"
         id="tspan364">RSR/W</tspan></text>
<path
       d="m 253.92,561.74 h 18.06 v 18.12 h -18.06 z"
       style="fill:none;stroke:#000000;stroke-width:0.56300002;stroke-linecap:round;stroke-linejoin:round;stroke-miterlimit:10;stroke-dasharray:none;stroke-opacity:1"
       id="path368"
       inkscape:connector-curvature="0" /><text
       transform="matrix(1,0,0,-0.99158804,261.06,568.8203)"
       style="font-variant:normal;font-weight:normal;font-size:6.74039984px;font-family:Arial;-inkscape-font-specification:Arial;writing-mode:lr-tb;fill:#000000;fill-opacity:1;fill-rule:nonzero;stroke:none"
       id="text374"><tspan
         x="0"
         y="0"
         id="tspan370">1</tspan><tspan
         x="-113.52182 -108.65525 -104.1594 -95.046379 -90.17981 -85.683968 -76.988846 -72.122276 -67.626434 -58.870655 -54.004086 -49.50824 -40.813122 -35.946552 -31.450706 -22.694927 -17.828358 -13.332511 -4.5767317 0.28983721 4.7856841"
         y="-13.676272"
         sodipodi:role="line"
         id="tspan372">DB6DB5DB4DB3DB2DB1DB0</tspan></text>
<path
       d="m 91.08,561.74 h 18.06 v 18.12 H 91.08 Z"
       style="fill:none;stroke:#000000;stroke-width:0.56300002;stroke-linecap:round;stroke-linejoin:round;stroke-miterlimit:10;stroke-dasharray:none;stroke-opacity:1"
       id="path376"
       inkscape:connector-curvature="0" /><text
       transform="matrix(1,0,0,-0.99158804,98.22,568.8203)"
       style="font-variant:normal;font-weight:normal;font-size:6.74039984px;font-family:Arial;-inkscape-font-specification:Arial;writing-mode:lr-tb;fill:#000000;fill-opacity:1;fill-rule:nonzero;stroke:none"
       id="text380"><tspan
         x="0"
         y="0"
         id="tspan378">0</tspan></text>
<path
       d="m 109.14,561.74 h 18.12 v 18.12 h -18.12 z"
       style="fill:none;stroke:#000000;stroke-width:0.56300002;stroke-linecap:round;stroke-linejoin:round;stroke-miterlimit:10;stroke-dasharray:none;stroke-opacity:1"
       id="path382"
       inkscape:connector-curvature="0" /><text
       transform="matrix(1,0,0,-0.99158804,116.34,568.8203)"
       style="font-variant:normal;font-weight:normal;font-size:6.74039984px;font-family:Arial;-inkscape-font-specification:Arial;writing-mode:lr-tb;fill:#000000;fill-opacity:1;fill-rule:nonzero;stroke:none"
       id="text386"><tspan
         x="0"
         y="0"
         id="tspan384">0</tspan></text>
<path
       d="m 127.26,561.74 h 18.06 v 18.12 h -18.06 z"
       style="fill:none;stroke:#000000;stroke-width:0.56300002;stroke-linecap:round;stroke-linejoin:round;stroke-miterlimit:10;stroke-dasharray:none;stroke-opacity:1"
       id="path388"
       inkscape:connector-curvature="0" /><text
       transform="matrix(1,0,0,-0.99158804,134.4,568.8203)"
       style="font-variant:normal;font-weight:normal;font-size:6.74039984px;font-family:Arial;-inkscape-font-specification:Arial;writing-mode:lr-tb;fill:#000000;fill-opacity:1;fill-rule:nonzero;stroke:none"
       id="text392"><tspan
         x="0"
         y="0"
         id="tspan390">0</tspan></text>
<path
       d="m 145.32,561.74 h 18.12 v 18.12 h -18.12 z"
       style="fill:none;stroke:#000000;stroke-width:0.56300002;stroke-linecap:round;stroke-linejoin:round;stroke-miterlimit:10;stroke-dasharray:none;stroke-opacity:1"
       id="path394"
       inkscape:connector-curvature="0" /><text
       transform="matrix(1,0,0,-0.99158804,152.52,568.8203)"
       style="font-variant:normal;font-weight:normal;font-size:6.74039984px;font-family:Arial;-inkscape-font-specification:Arial;writing-mode:lr-tb;fill:#000000;fill-opacity:1;fill-rule:nonzero;stroke:none"
       id="text398"><tspan
         x="0"
         y="0"
         id="tspan396">0</tspan></text>
<path
       d="m 163.44,561.74 h 18.06 v 18.12 h -18.06 z"
       style="fill:none;stroke:#000000;stroke-width:0.56300002;stroke-linecap:round;stroke-linejoin:round;stroke-miterlimit:10;stroke-dasharray:none;stroke-opacity:1"
       id="path400"
       inkscape:connector-curvature="0" /><text
       transform="matrix(1,0,0,-0.99158804,170.58,568.8203)"
       style="font-variant:normal;font-weight:normal;font-size:6.74039984px;font-family:Arial;-inkscape-font-specification:Arial;writing-mode:lr-tb;fill:#000000;fill-opacity:1;fill-rule:nonzero;stroke:none"
       id="text404"><tspan
         x="0"
         y="0"
         id="tspan402">0</tspan></text>
<path
       d="m 181.5,561.74 h 18.12 v 18.12 H 181.5 Z"
       style="fill:none;stroke:#000000;stroke-width:0.56300002;stroke-linecap:round;stroke-linejoin:round;stroke-miterlimit:10;stroke-dasharray:none;stroke-opacity:1"
       id="path406"
       inkscape:connector-curvature="0" /><text
       transform="matrix(1,0,0,-0.99158804,188.7,568.8203)"
       style="font-variant:normal;font-weight:normal;font-size:6.74039984px;font-family:Arial;-inkscape-font-specification:Arial;writing-mode:lr-tb;fill:#000000;fill-opacity:1;fill-rule:nonzero;stroke:none"
       id="text410"><tspan
         x="0"
         y="0"
         id="tspan408">0</tspan></text>
<path
       d="m 199.62,561.74 h 18.12 v 18.12 h -18.12 z"
       style="fill:none;stroke:#000000;stroke-width:0.56300002;stroke-linecap:round;stroke-linejoin:round;stroke-miterlimit:10;stroke-dasharray:none;stroke-opacity:1"
       id="path412"
       inkscape:connector-curvature="0" /><text
       transform="matrix(1,0,0,-0.99158804,206.76,568.8203)"
       style="font-variant:normal;font-weight:normal;font-size:6.74039984px;font-family:Arial;-inkscape-font-specification:Arial;writing-mode:lr-tb;fill:#000000;fill-opacity:1;fill-rule:nonzero;stroke:none"
       id="text416"><tspan
         x="0"
         y="0"
         id="tspan414">0</tspan></text>
<path
       d="m 217.74,561.74 h 18.06 v 18.12 h -18.06 z"
       style="fill:none;stroke:#000000;stroke-width:0.56300002;stroke-linecap:round;stroke-linejoin:round;stroke-miterlimit:10;stroke-dasharray:none;stroke-opacity:1"
       id="path418"
       inkscape:connector-curvature="0" /><text
       transform="matrix(1,0,0,-0.99158804,224.88,568.8203)"
       style="font-variant:normal;font-weight:normal;font-size:6.74039984px;font-family:Arial;-inkscape-font-specification:Arial;writing-mode:lr-tb;fill:#000000;fill-opacity:1;fill-rule:nonzero;stroke:none"
       id="text422"><tspan
         x="0"
         y="0"
         id="tspan420">0</tspan></text>
<path
       d="m 235.8,561.74 h 18.12 v 18.12 H 235.8 Z"
       style="fill:none;stroke:#000000;stroke-width:0.56300002;stroke-linecap:round;stroke-linejoin:round;stroke-miterlimit:10;stroke-dasharray:none;stroke-opacity:1"
       id="path424"
       inkscape:connector-curvature="0" /><text
       transform="matrix(1,0,0,-0.99158804,242.94,568.8203)"
       style="font-variant:normal;font-weight:normal;font-size:6.74039984px;font-family:Arial;-inkscape-font-specification:Arial;writing-mode:lr-tb;fill:#000000;fill-opacity:1;fill-rule:nonzero;stroke:none"
       id="text428"><tspan
         x="0"
         y="0"
         id="tspan426">0</tspan></text>
<path
       d="m 50.52,598.52 h 0.96 v -0.96 h -0.96 z"
       style="fill:#000000;fill-opacity:1;fill-rule:nonzero;stroke:none"
       id="path430"
       inkscape:connector-curvature="0" /><path
       d="m 50.52,598.52 h 234.84 v -0.96 H 50.52 Z"
       style="fill:#000000;fill-opacity:1;fill-rule:nonzero;stroke:none"
       id="path432"
       inkscape:connector-curvature="0" /><path
       d="m 284.4,598.52 h 0.96 v -0.96 h -0.96 z"
       style="fill:#000000;fill-opacity:1;fill-rule:nonzero;stroke:none"
       id="path434"
       inkscape:connector-curvature="0" /><path
       d="m 50.52,552.86 h 0.96 v -0.96 h -0.96 z"
       style="fill:#000000;fill-opacity:1;fill-rule:nonzero;stroke:none"
       id="path436"
       inkscape:connector-curvature="0" /><path
       d="M 50.52,552.86 H 285.36 V 551.9 H 50.52 Z"
       style="fill:#000000;fill-opacity:1;fill-rule:nonzero;stroke:none"
       id="path438"
       inkscape:connector-curvature="0" /><path
       d="m 284.4,552.86 h 0.96 v -0.96 h -0.96 z"
       style="fill:#000000;fill-opacity:1;fill-rule:nonzero;stroke:none"
       id="path440"
       inkscape:connector-curvature="0" /><path
       d="m 50.52,597.56 h 0.96 v -44.7 h -0.96 z"
       style="fill:#000000;fill-opacity:1;fill-rule:nonzero;stroke:none"
       id="path442"
       inkscape:connector-curvature="0" /><path
       d="m 284.4,597.56 h 0.96 v -44.7 h -0.96 z"
       style="fill:#000000;fill-opacity:1;fill-rule:nonzero;stroke:none"
       id="path444"
       inkscape:connector-curvature="0" /><path
       d="m 52.62,477.92 h 231.9 v -44.7 H 52.62 Z"
       style="fill:#ffffff;fill-opacity:1;fill-rule:nonzero;stroke:none"
       id="path446"
       inkscape:connector-curvature="0" /><text
       transform="matrix(1,0,0,-0.99158804,130.98,462.7403)"
       style="font-variant:normal;font-weight:normal;font-size:6.74039984px;font-family:Arial;-inkscape-font-specification:Arial;writing-mode:lr-tb;fill:#000000;fill-opacity:1;fill-rule:nonzero;stroke:none"
       id="text454"><tspan
         x="0 4.8665686 9.3624153"
         y="0"
         sodipodi:role="line"
         id="tspan448">DB7</tspan><tspan
         x="-65.577354 -60.710781 -56.96312 -53.215458"
         y="13.676272"
         sodipodi:role="line"
         id="tspan450">Code</tspan><tspan
         x="-35.157925 -30.291357 -18.118195 -13.251626 -11.377795"
         y="0"
         sodipodi:role="line"
         id="tspan452">RSR/W</tspan></text>
<path
       d="m 255.06,442.1 h 18.06 v 18.12 h -18.06 z"
       style="fill:none;stroke:#000000;stroke-width:0.56300002;stroke-linecap:round;stroke-linejoin:round;stroke-miterlimit:10;stroke-dasharray:none;stroke-opacity:1"
       id="path456"
       inkscape:connector-curvature="0" /><text
       transform="matrix(1,0,0,-0.99158804,261.9,449.1803)"
       style="font-variant:normal;font-weight:normal;font-size:6.74039984px;font-family:Arial;-inkscape-font-specification:Arial;writing-mode:lr-tb;fill:#000000;fill-opacity:1;fill-rule:nonzero;stroke:none"
       id="text462"><tspan
         x="0"
         y="0"
         id="tspan458">X</tspan><tspan
         x="-113.2185 -108.35193 -103.85609 -94.743065 -89.876495 -85.380646 -76.685532 -71.818962 -67.323112 -58.567337 -53.700768 -49.204922 -40.509804 -35.643234 -31.147388 -22.391609 -17.52504 -13.029193 -4.2734137 0.59315521 5.0890021"
         y="-13.676272"
         sodipodi:role="line"
         id="tspan460">DB6DB5DB4DB3DB2DB1DB0</tspan></text>
<path
       d="m 92.22,442.1 h 18.06 v 18.12 H 92.22 Z"
       style="fill:none;stroke:#000000;stroke-width:0.56300002;stroke-linecap:round;stroke-linejoin:round;stroke-miterlimit:10;stroke-dasharray:none;stroke-opacity:1"
       id="path464"
       inkscape:connector-curvature="0" /><text
       transform="matrix(1,0,0,-0.99158804,99.36,449.1803)"
       style="font-variant:normal;font-weight:normal;font-size:6.74039984px;font-family:Arial;-inkscape-font-specification:Arial;writing-mode:lr-tb;fill:#000000;fill-opacity:1;fill-rule:nonzero;stroke:none"
       id="text468"><tspan
         x="0"
         y="0"
         id="tspan466">0</tspan></text>
<path
       d="m 110.28,442.1 h 18.12 v 18.12 h -18.12 z"
       style="fill:none;stroke:#000000;stroke-width:0.56300002;stroke-linecap:round;stroke-linejoin:round;stroke-miterlimit:10;stroke-dasharray:none;stroke-opacity:1"
       id="path470"
       inkscape:connector-curvature="0" /><text
       transform="matrix(1,0,0,-0.99158804,117.48,449.1803)"
       style="font-variant:normal;font-weight:normal;font-size:6.74039984px;font-family:Arial;-inkscape-font-specification:Arial;writing-mode:lr-tb;fill:#000000;fill-opacity:1;fill-rule:nonzero;stroke:none"
       id="text474"><tspan
         x="0"
         y="0"
         id="tspan472">0</tspan></text>
<path
       d="m 128.4,442.1 h 18.06 v 18.12 H 128.4 Z"
       style="fill:none;stroke:#000000;stroke-width:0.56300002;stroke-linecap:round;stroke-linejoin:round;stroke-miterlimit:10;stroke-dasharray:none;stroke-opacity:1"
       id="path476"
       inkscape:connector-curvature="0" /><text
       transform="matrix(1,0,0,-0.99158804,135.54,449.1803)"
       style="font-variant:normal;font-weight:normal;font-size:6.74039984px;font-family:Arial;-inkscape-font-specification:Arial;writing-mode:lr-tb;fill:#000000;fill-opacity:1;fill-rule:nonzero;stroke:none"
       id="text480"><tspan
         x="0"
         y="0"
         id="tspan478">0</tspan></text>
<path
       d="m 146.46,442.1 h 18.12 v 18.12 h -18.12 z"
       style="fill:none;stroke:#000000;stroke-width:0.56300002;stroke-linecap:round;stroke-linejoin:round;stroke-miterlimit:10;stroke-dasharray:none;stroke-opacity:1"
       id="path482"
       inkscape:connector-curvature="0" /><text
       transform="matrix(1,0,0,-0.99158804,153.66,449.1803)"
       style="font-variant:normal;font-weight:normal;font-size:6.74039984px;font-family:Arial;-inkscape-font-specification:Arial;writing-mode:lr-tb;fill:#000000;fill-opacity:1;fill-rule:nonzero;stroke:none"
       id="text486"><tspan
         x="0"
         y="0"
         id="tspan484">0</tspan></text>
<path
       d="m 164.58,442.1 h 18.06 v 18.12 h -18.06 z"
       style="fill:none;stroke:#000000;stroke-width:0.56300002;stroke-linecap:round;stroke-linejoin:round;stroke-miterlimit:10;stroke-dasharray:none;stroke-opacity:1"
       id="path488"
       inkscape:connector-curvature="0" /><text
       transform="matrix(1,0,0,-0.99158804,171.72,449.1803)"
       style="font-variant:normal;font-weight:normal;font-size:6.74039984px;font-family:Arial;-inkscape-font-specification:Arial;writing-mode:lr-tb;fill:#000000;fill-opacity:1;fill-rule:nonzero;stroke:none"
       id="text492"><tspan
         x="0"
         y="0"
         id="tspan490">0</tspan></text>
<path
       d="m 182.64,442.1 h 18.12 v 18.12 h -18.12 z"
       style="fill:none;stroke:#000000;stroke-width:0.56300002;stroke-linecap:round;stroke-linejoin:round;stroke-miterlimit:10;stroke-dasharray:none;stroke-opacity:1"
       id="path494"
       inkscape:connector-curvature="0" /><text
       transform="matrix(1,0,0,-0.99158804,189.84,449.1803)"
       style="font-variant:normal;font-weight:normal;font-size:6.74039984px;font-family:Arial;-inkscape-font-specification:Arial;writing-mode:lr-tb;fill:#000000;fill-opacity:1;fill-rule:nonzero;stroke:none"
       id="text498"><tspan
         x="0"
         y="0"
         id="tspan496">0</tspan></text>
<path
       d="m 200.76,442.1 h 18.12 v 18.12 h -18.12 z"
       style="fill:none;stroke:#000000;stroke-width:0.56300002;stroke-linecap:round;stroke-linejoin:round;stroke-miterlimit:10;stroke-dasharray:none;stroke-opacity:1"
       id="path500"
       inkscape:connector-curvature="0" /><text
       transform="matrix(1,0,0,-0.99158804,207.9,449.1803)"
       style="font-variant:normal;font-weight:normal;font-size:6.74039984px;font-family:Arial;-inkscape-font-specification:Arial;writing-mode:lr-tb;fill:#000000;fill-opacity:1;fill-rule:nonzero;stroke:none"
       id="text504"><tspan
         x="0"
         y="0"
         id="tspan502">0</tspan></text>
<path
       d="m 218.88,442.1 h 18.06 v 18.12 h -18.06 z"
       style="fill:none;stroke:#000000;stroke-width:0.56300002;stroke-linecap:round;stroke-linejoin:round;stroke-miterlimit:10;stroke-dasharray:none;stroke-opacity:1"
       id="path506"
       inkscape:connector-curvature="0" /><text
       transform="matrix(1,0,0,-0.99158804,226.02,449.1803)"
       style="font-variant:normal;font-weight:normal;font-size:6.74039984px;font-family:Arial;-inkscape-font-specification:Arial;writing-mode:lr-tb;fill:#000000;fill-opacity:1;fill-rule:nonzero;stroke:none"
       id="text510"><tspan
         x="0"
         y="0"
         id="tspan508">0</tspan></text>
<path
       d="m 236.94,442.1 h 18.12 v 18.12 h -18.12 z"
       style="fill:none;stroke:#000000;stroke-width:0.56300002;stroke-linecap:round;stroke-linejoin:round;stroke-miterlimit:10;stroke-dasharray:none;stroke-opacity:1"
       id="path512"
       inkscape:connector-curvature="0" /><text
       transform="matrix(1,0,0,-0.99158804,244.08,449.1803)"
       style="font-variant:normal;font-weight:normal;font-size:6.74039984px;font-family:Arial;-inkscape-font-specification:Arial;writing-mode:lr-tb;fill:#000000;fill-opacity:1;fill-rule:nonzero;stroke:none"
       id="text516"><tspan
         x="0"
         y="0"
         id="tspan514">1</tspan></text>
<path
       d="m 51.66,478.88 h 0.96 v -0.96 h -0.96 z"
       style="fill:#000000;fill-opacity:1;fill-rule:nonzero;stroke:none"
       id="path518"
       inkscape:connector-curvature="0" /><path
       d="m 51.66,478.88 h 233.82 v -0.96 H 51.66 Z"
       style="fill:#000000;fill-opacity:1;fill-rule:nonzero;stroke:none"
       id="path520"
       inkscape:connector-curvature="0" /><path
       d="m 284.52,478.88 h 0.96 v -0.96 h -0.96 z"
       style="fill:#000000;fill-opacity:1;fill-rule:nonzero;stroke:none"
       id="path522"
       inkscape:connector-curvature="0" /><path
       d="m 51.66,433.22 h 0.96 v -0.96 h -0.96 z"
       style="fill:#000000;fill-opacity:1;fill-rule:nonzero;stroke:none"
       id="path524"
       inkscape:connector-curvature="0" /><path
       d="m 51.66,433.22 h 233.82 v -0.96 H 51.66 Z"
       style="fill:#000000;fill-opacity:1;fill-rule:nonzero;stroke:none"
       id="path526"
       inkscape:connector-curvature="0" /><path
       d="m 284.52,433.22 h 0.96 v -0.96 h -0.96 z"
       style="fill:#000000;fill-opacity:1;fill-rule:nonzero;stroke:none"
       id="path528"
       inkscape:connector-curvature="0" /><path
       d="m 51.66,477.92 h 0.96 v -44.7 h -0.96 z"
       style="fill:#000000;fill-opacity:1;fill-rule:nonzero;stroke:none"
       id="path530"
       inkscape:connector-curvature="0" /><path
       d="m 284.52,477.92 h 0.96 v -44.7 h -0.96 z"
       style="fill:#000000;fill-opacity:1;fill-rule:nonzero;stroke:none"
       id="path532"
       inkscape:connector-curvature="0" /><g
       id="g1905"
       transform="translate(0,-33.2401)"><text
         id="text160"
         style="font-variant:normal;font-weight:bold;font-size:9px;font-family:Arial;-inkscape-font-specification:'Arial Bold';writing-mode:lr-tb;fill:#000000;fill-opacity:1;fill-rule:nonzero;stroke:none"
         transform="matrix(1,0,0,-1,308.28,636.8604)"><tspan
           id="tspan158"
           sodipodi:role="line"
           y="0"
           x="0 5.0022001 7.5023999 12.5046 15.0048 20.007 22.5072 25.506001 32.002201 34.502399 39.504601 45.028801 47.528999 52.5672 57.4884 60.010201 67.010399 73.506599 76.006798 83.007004 88.531197 94.055397 96.577202 101.5794 107.1036 112.6278 115.623 119.1222 124.6194 127.1196">5.2.4. Display ON/OFF control </tspan></text>
<text
         id="text168"
         style="font-variant:normal;font-weight:normal;font-size:7.98000002px;font-family:Arial;-inkscape-font-specification:Arial;writing-mode:lr-tb;fill:#000000;fill-opacity:1;fill-rule:nonzero;stroke:none"
         transform="matrix(1,0,0,-1,308.28,558.5603)"><tspan
           id="tspan162"
           sodipodi:role="line"
           y="0"
           x="0 5.771934 7.993566 12.66426 14.885892 19.333145 21.56196 23.783592 29.555527 31.33746 35.337833 39.785088 41.56702 46.062157 49.95879 52.180424 56.627674 61.12281 63.351624 65.573257 71.345192 73.566818 78.237518 80.459145 84.906403 87.135216 89.35685 95.128784 96.910713 100.91109 105.35835 107.14028 111.63541 115.53204 117.75368 122.24881 124.34995 126.57876">D = 1: Display on, D = 0: Display off </tspan><tspan
           id="tspan164"
           sodipodi:role="line"
           y="14.03682"
           x="0 5.7655501 7.9871821 12.651492 14.873124 19.313993 21.536425 23.758057 29.523605 33.964478 36.625805 40.619797 45.060665 47.761894 49.983528 54.424397 58.865269 61.143559 63.365189 69.130737 71.352371 76.016685 78.238312 82.679184 84.901611 87.123245 92.888794 97.329666 99.990997 103.98499 108.48171 111.1191 113.34074 117.78161 119.88434 122.10677">C = 1: Cursor on, C = 0: Cursor off </tspan><tspan
           id="tspan166"
           sodipodi:role="line"
           y="28.01778"
           x="0 5.3370242 7.5586562 12.23334 14.454972 18.906216 21.139021 23.360653 28.697676 30.483601 32.269524 36.720768 40.725132 44.729496 46.951126 51.40237 55.853615 58.086418 60.244213 65.581238 70.25592 72.477554 76.928795 79.161598 81.383232 86.720253 88.50618 90.292107 94.743347 98.747711 102.75208 104.97371 109.42495 111.52209 113.68308">B = 1: Blinks on, B= 0: Blinks off </tspan></text>
<path
         inkscape:connector-curvature="0"
         id="path622"
         style="fill:#ffffff;fill-opacity:1;fill-rule:nonzero;stroke:none"
         d="m 308.46,627.38 h 234.9 v -44.7 h -234.9 z" /><text
         id="text630"
         style="font-variant:normal;font-weight:normal;font-size:6.74980021px;font-family:Arial;-inkscape-font-specification:Arial;writing-mode:lr-tb;fill:#000000;fill-opacity:1;fill-rule:nonzero;stroke:none"
         transform="matrix(1,0,0,-0.99210347,388.62,612.1403)"><tspan
           id="tspan624"
           sodipodi:role="line"
           y="0"
           x="0 4.8733554 9.3754721">DB7</tspan><tspan
           id="tspan626"
           sodipodi:role="line"
           y="13.607597"
           x="-65.581055 -60.707703 -56.954811 -53.201923">Code</tspan><tspan
           id="tspan628"
           sodipodi:role="line"
           y="0"
           x="-35.15971 -30.286352 -18.123213 -13.249857 -11.373413">RSR/W</tspan></text>
<path
         inkscape:connector-curvature="0"
         id="path632"
         style="fill:none;stroke:#000000;stroke-width:0.56400001;stroke-linecap:round;stroke-linejoin:round;stroke-miterlimit:10;stroke-dasharray:none;stroke-opacity:1"
         d="M 512.88,591.5 H 531 v 18.18 h -18.12 z" /><text
         id="text638"
         style="font-variant:normal;font-weight:normal;font-size:6.74980021px;font-family:Arial;-inkscape-font-specification:Arial;writing-mode:lr-tb;fill:#000000;fill-opacity:1;fill-rule:nonzero;stroke:none"
         transform="matrix(1,0,0,-0.99210347,519.72,598.6403)"><tspan
           id="tspan634"
           y="0"
           x="0">B</tspan><tspan
           id="tspan636"
           sodipodi:role="line"
           y="-13.607597"
           x="-113.34264 -108.46928 -103.96717 -94.861687 -89.988335 -85.486214 -76.745224 -71.871872 -67.369751 -58.628761 -53.755405 -49.253292 -40.512299 -35.638943 -31.136827 -22.395836 -17.52248 -13.020364 -4.2793732 0.5939824 5.0960989">DB6DB5DB4DB3DB2DB1DB0</tspan></text>
<path
         inkscape:connector-curvature="0"
         id="path640"
         style="fill:none;stroke:#000000;stroke-width:0.56400001;stroke-linecap:round;stroke-linejoin:round;stroke-miterlimit:10;stroke-dasharray:none;stroke-opacity:1"
         d="m 349.8,591.5 h 18.12 v 18.18 H 349.8 Z" /><text
         id="text644"
         style="font-variant:normal;font-weight:normal;font-size:6.74980021px;font-family:Arial;-inkscape-font-specification:Arial;writing-mode:lr-tb;fill:#000000;fill-opacity:1;fill-rule:nonzero;stroke:none"
         transform="matrix(1,0,0,-0.99210347,357,598.6403)"><tspan
           id="tspan642"
           y="0"
           x="0">0</tspan></text>
<path
         inkscape:connector-curvature="0"
         id="path646"
         style="fill:none;stroke:#000000;stroke-width:0.56400001;stroke-linecap:round;stroke-linejoin:round;stroke-miterlimit:10;stroke-dasharray:none;stroke-opacity:1"
         d="m 367.92,591.5 h 18.12 v 18.18 h -18.12 z" /><text
         id="text650"
         style="font-variant:normal;font-weight:normal;font-size:6.74980021px;font-family:Arial;-inkscape-font-specification:Arial;writing-mode:lr-tb;fill:#000000;fill-opacity:1;fill-rule:nonzero;stroke:none"
         transform="matrix(1,0,0,-0.99210347,375.12,598.6403)"><tspan
           id="tspan648"
           y="0"
           x="0">0</tspan></text>
<path
         inkscape:connector-curvature="0"
         id="path652"
         style="fill:none;stroke:#000000;stroke-width:0.56400001;stroke-linecap:round;stroke-linejoin:round;stroke-miterlimit:10;stroke-dasharray:none;stroke-opacity:1"
         d="m 386.04,591.5 h 18.12 v 18.18 h -18.12 z" /><text
         id="text656"
         style="font-variant:normal;font-weight:normal;font-size:6.74980021px;font-family:Arial;-inkscape-font-specification:Arial;writing-mode:lr-tb;fill:#000000;fill-opacity:1;fill-rule:nonzero;stroke:none"
         transform="matrix(1,0,0,-0.99210347,393.24,598.6403)"><tspan
           id="tspan654"
           y="0"
           x="0">0</tspan></text>
<path
         inkscape:connector-curvature="0"
         id="path658"
         style="fill:none;stroke:#000000;stroke-width:0.56400001;stroke-linecap:round;stroke-linejoin:round;stroke-miterlimit:10;stroke-dasharray:none;stroke-opacity:1"
         d="m 404.16,591.5 h 18.12 v 18.18 h -18.12 z" /><text
         id="text662"
         style="font-variant:normal;font-weight:normal;font-size:6.74980021px;font-family:Arial;-inkscape-font-specification:Arial;writing-mode:lr-tb;fill:#000000;fill-opacity:1;fill-rule:nonzero;stroke:none"
         transform="matrix(1,0,0,-0.99210347,411.36,598.6403)"><tspan
           id="tspan660"
           y="0"
           x="0">0</tspan></text>
<path
         inkscape:connector-curvature="0"
         id="path664"
         style="fill:none;stroke:#000000;stroke-width:0.56400001;stroke-linecap:round;stroke-linejoin:round;stroke-miterlimit:10;stroke-dasharray:none;stroke-opacity:1"
         d="m 422.28,591.5 h 18.12 v 18.18 h -18.12 z" /><text
         id="text668"
         style="font-variant:normal;font-weight:normal;font-size:6.74980021px;font-family:Arial;-inkscape-font-specification:Arial;writing-mode:lr-tb;fill:#000000;fill-opacity:1;fill-rule:nonzero;stroke:none"
         transform="matrix(1,0,0,-0.99210347,429.48,598.6403)"><tspan
           id="tspan666"
           y="0"
           x="0">0</tspan></text>
<path
         inkscape:connector-curvature="0"
         id="path670"
         style="fill:none;stroke:#000000;stroke-width:0.56400001;stroke-linecap:round;stroke-linejoin:round;stroke-miterlimit:10;stroke-dasharray:none;stroke-opacity:1"
         d="m 440.4,591.5 h 18.12 v 18.18 H 440.4 Z" /><text
         id="text674"
         style="font-variant:normal;font-weight:normal;font-size:6.74980021px;font-family:Arial;-inkscape-font-specification:Arial;writing-mode:lr-tb;fill:#000000;fill-opacity:1;fill-rule:nonzero;stroke:none"
         transform="matrix(1,0,0,-0.99210347,447.6,598.6403)"><tspan
           id="tspan672"
           y="0"
           x="0">0</tspan></text>
<path
         inkscape:connector-curvature="0"
         id="path676"
         style="fill:none;stroke:#000000;stroke-width:0.56400001;stroke-linecap:round;stroke-linejoin:round;stroke-miterlimit:10;stroke-dasharray:none;stroke-opacity:1"
         d="m 458.52,591.5 h 18.12 v 18.18 h -18.12 z" /><text
         id="text680"
         style="font-variant:normal;font-weight:normal;font-size:6.74980021px;font-family:Arial;-inkscape-font-specification:Arial;writing-mode:lr-tb;fill:#000000;fill-opacity:1;fill-rule:nonzero;stroke:none"
         transform="matrix(1,0,0,-0.99210347,465.72,598.6403)"><tspan
           id="tspan678"
           y="0"
           x="0">1</tspan></text>
<path
         inkscape:connector-curvature="0"
         id="path682"
         style="fill:none;stroke:#000000;stroke-width:0.56400001;stroke-linecap:round;stroke-linejoin:round;stroke-miterlimit:10;stroke-dasharray:none;stroke-opacity:1"
         d="m 476.64,591.5 h 18.12 v 18.18 h -18.12 z" /><text
         id="text686"
         style="font-variant:normal;font-weight:normal;font-size:6.74980021px;font-family:Arial;-inkscape-font-specification:Arial;writing-mode:lr-tb;fill:#000000;fill-opacity:1;fill-rule:nonzero;stroke:none"
         transform="matrix(1,0,0,-0.99210347,483.24,598.6403)"><tspan
           id="tspan684"
           y="0"
           x="0">D</tspan></text>
<path
         inkscape:connector-curvature="0"
         id="path688"
         style="fill:none;stroke:#000000;stroke-width:0.56400001;stroke-linecap:round;stroke-linejoin:round;stroke-miterlimit:10;stroke-dasharray:none;stroke-opacity:1"
         d="m 494.76,591.5 h 18.12 v 18.18 h -18.12 z" /><text
         id="text692"
         style="font-variant:normal;font-weight:normal;font-size:6.74980021px;font-family:Arial;-inkscape-font-specification:Arial;writing-mode:lr-tb;fill:#000000;fill-opacity:1;fill-rule:nonzero;stroke:none"
         transform="matrix(1,0,0,-0.99210347,501.36,598.6403)"><tspan
           id="tspan690"
           y="0"
           x="0">C</tspan></text>
<path
         inkscape:connector-curvature="0"
         id="path694"
         style="fill:#000000;fill-opacity:1;fill-rule:nonzero;stroke:none"
         d="m 307.5,628.34 h 0.96 v -0.96 h -0.96 z" /><path
         inkscape:connector-curvature="0"
         id="path696"
         style="fill:#000000;fill-opacity:1;fill-rule:nonzero;stroke:none"
         d="m 307.5,628.34 h 0.96 v -0.96 h -0.96 z" /><path
         inkscape:connector-curvature="0"
         id="path698"
         style="fill:#000000;fill-opacity:1;fill-rule:nonzero;stroke:none"
         d="m 308.46,628.34 h 234.9 v -0.96 h -234.9 z" /><path
         inkscape:connector-curvature="0"
         id="path700"
         style="fill:#000000;fill-opacity:1;fill-rule:nonzero;stroke:none"
         d="m 543.36,628.34 h 0.96 v -0.96 h -0.96 z" /><path
         inkscape:connector-curvature="0"
         id="path702"
         style="fill:#000000;fill-opacity:1;fill-rule:nonzero;stroke:none"
         d="m 543.36,628.34 h 0.96 v -0.96 h -0.96 z" /><path
         inkscape:connector-curvature="0"
         id="path704"
         style="fill:#000000;fill-opacity:1;fill-rule:nonzero;stroke:none"
         d="m 307.5,582.68 h 0.96 v -0.96 h -0.96 z" /><path
         inkscape:connector-curvature="0"
         id="path706"
         style="fill:#000000;fill-opacity:1;fill-rule:nonzero;stroke:none"
         d="m 307.5,582.68 h 0.96 v -0.96 h -0.96 z" /><path
         inkscape:connector-curvature="0"
         id="path708"
         style="fill:#000000;fill-opacity:1;fill-rule:nonzero;stroke:none"
         d="m 308.46,582.68 h 234.9 v -0.96 h -234.9 z" /><path
         inkscape:connector-curvature="0"
         id="path710"
         style="fill:#000000;fill-opacity:1;fill-rule:nonzero;stroke:none"
         d="m 543.36,582.68 h 0.96 v -0.96 h -0.96 z" /><path
         inkscape:connector-curvature="0"
         id="path712"
         style="fill:#000000;fill-opacity:1;fill-rule:nonzero;stroke:none"
         d="m 543.36,582.68 h 0.96 v -0.96 h -0.96 z" /><path
         inkscape:connector-curvature="0"
         id="path714"
         style="fill:#000000;fill-opacity:1;fill-rule:nonzero;stroke:none"
         d="m 307.5,627.38 h 0.96 v -44.7 h -0.96 z" /><path
         inkscape:connector-curvature="0"
         id="path716"
         style="fill:#000000;fill-opacity:1;fill-rule:nonzero;stroke:none"
         d="m 543.36,627.38 h 0.96 v -44.7 h -0.96 z" /></g><flowRoot
       xml:space="preserve"
       id="flowRoot1907"
       style="font-style:normal;font-variant:normal;font-weight:normal;font-stretch:normal;font-size:16px;line-height:1.25;font-family:'Fira Sans';-inkscape-font-specification:'Fira Sans';letter-spacing:0px;word-spacing:0px;fill:#000000;fill-opacity:1;stroke:none"
       transform="matrix(0.75000002,0,0,-0.75000002,0,842.00005)"><flowRegion
         id="flowRegion1909"><rect
           id="rect1911"
           width="32"
           height="64"
           x="87"
           y="598.66675" /></flowRegion><flowPara
         id="flowPara1913"></flowPara></flowRoot></g></svg>