<?xml version="1.0" encoding="UTF-8" standalone="no"?>
<!-- Generator: Adobe Illustrator 12.0.0, SVG Export Plug-In . SVG Version: 6.00 Build 51448)  -->

<svg
   xmlns:dc="http://purl.org/dc/elements/1.1/"
   xmlns:cc="http://creativecommons.org/ns#"
   xmlns:rdf="http://www.w3.org/1999/02/22-rdf-syntax-ns#"
   xmlns:svg="http://www.w3.org/2000/svg"
   xmlns="http://www.w3.org/2000/svg"
   xmlns:sodipodi="http://sodipodi.sourceforge.net/DTD/sodipodi-0.dtd"
   xmlns:inkscape="http://www.inkscape.org/namespaces/inkscape"
   version="1.0"
   id="Layer_1"
   width="370.49661"
   height="231.23364"
   viewBox="0 0 370.49661 231.23366"
   overflow="visible"
   enable-background="new 0 0 164.033 107.219"
   xml:space="preserve"
   inkscape:version="0.92.5 (2060ec1f9f, 2020-04-08)"
   sodipodi:docname="tmp36-pinout.svg"
   style="overflow:visible"><metadata
   id="metadata3565"><rdf:RDF><cc:Work
       rdf:about=""><dc:format>image/svg+xml</dc:format><dc:type
         rdf:resource="http://purl.org/dc/dcmitype/StillImage" /><dc:title></dc:title></cc:Work></rdf:RDF></metadata><defs
   id="defs3563"><inkscape:perspective
     sodipodi:type="inkscape:persp3d"
     inkscape:vp_x="0 : 53.609505 : 1"
     inkscape:vp_y="0 : 1000 : 0"
     inkscape:vp_z="164.033 : 53.609505 : 1"
     inkscape:persp3d-origin="82.016504 : 35.739669 : 1"
     id="perspective3567" /><inkscape:perspective
     id="perspective5121"
     inkscape:persp3d-origin="0.50000001 : 0.33333336 : 1"
     inkscape:vp_z="1 : 0.50000004 : 1"
     inkscape:vp_y="0 : 1000 : 0"
     inkscape:vp_x="0 : 0.50000004 : 1"
     sodipodi:type="inkscape:persp3d" /></defs><sodipodi:namedview
   pagecolor="#ffffff"
   bordercolor="#666666"
   borderopacity="1"
   objecttolerance="10"
   gridtolerance="10"
   guidetolerance="10"
   inkscape:pageopacity="0"
   inkscape:pageshadow="2"
   inkscape:window-width="1848"
   inkscape:window-height="1016"
   id="namedview3561"
   showgrid="false"
   inkscape:zoom="1.734375"
   inkscape:cx="49.159927"
   inkscape:cy="147.3159"
   inkscape:window-x="1992"
   inkscape:window-y="27"
   inkscape:window-maximized="1"
   inkscape:current-layer="g3555"
   fit-margin-top="0"
   fit-margin-left="0"
   fit-margin-right="0"
   fit-margin-bottom="0" />

<g
   id="g3571"
   transform="translate(33.447403,-43.164314)"><g
     transform="matrix(2,0,0,2,8.9838285,43.171497)"
     id="XMLID_1_">
	<g
   id="g3325">
		<path
   style="fill:#555753"
   id="path3327"
   d="m 123.02,63.129 c 3.38,-1.97 5.45,-6.35 4.99,-13.24 0,-0.01 0,-0.03 0,-0.04 l 35.46,-20.42 c 0.3,4.87 -0.57,10.52 -5.07,13.3 l -0.029,-0.04 -35.34,20.45 z"
   inkscape:connector-curvature="0" />
		
		<path
   style="fill:#555753"
   id="path3331"
   d="m 128.01,49.85 c -0.21,-4.24 -1.7,-8.6 -3.42,-12.44 l -0.03,-0.02 35.431,-20.44 c 1.85,3.92 3.09,8.15 3.479,12.48 z"
   inkscape:connector-curvature="0" />
		<path
   style="fill:#555753"
   id="path3333"
   d="m 120.99,45.83 6.989,4.04 0.03,0.02 c 0.46,6.89 -1.61,11.27 -4.99,13.24 -4.34,2.53 -10.84,1.07 -16.85,-4.18 l -0.01,-0.021 5.05,-2.92 V 55.11 l 9.78,-5.76 v -3.52 z"
   inkscape:connector-curvature="0" />
		<polygon
   style="fill:#efeeef"
   id="polygon3335"
   points="120.93,45.79 120.99,45.83 120.99,49.35 111.21,55.11 111.21,52.47 111.21,52.41 111.16,52.439 110.39,51.979 120.92,45.79 " />
		<polygon
   style="fill:#efeeef"
   id="polygon3337"
   points="106.16,58.929 105.51,59.31 105.51,55.709 111.16,52.439 111.21,52.47 111.21,55.11 111.21,56.009 " />
		<polygon
   style="fill:#efeeef"
   id="polygon3339"
   points="104.67,55.169 104.67,55.23 104.67,58.77 21.81,106.709 21.81,103.11 " />
		<path
   style="fill:#555753"
   id="path3341"
   d="m 92.729,29.47 c 0.271,-3.06 1.24,-6.23 3.48,-8.44 l 0.01,-0.02 28.34,16.38 0.03,0.02 c 1.72,3.84 3.21,8.2 3.42,12.44 l -0.03,0.02 -6.989,-4.04 v -0.02 l -0.051,-0.03 -3.22,-1.87 -0.02,0.01 h -0.011 l -5.64,-3.27 -0.048,-0.03 -3.28,-1.93 -0.03,0.01 -5.64,-3.26 V 35.43 L 103,35.4 h -0.01 l -3.21,-1.87 -0.021,0.01 z"
   inkscape:connector-curvature="0" />
		<polygon
   style="fill:#efeeef"
   id="polygon3343"
   points="100.04,52.089 96.569,54.15 96.569,50.55 102.16,47.22 102.21,47.25 102.21,49.89 102.21,50.79 " />
		<polygon
   style="fill:#efeeef"
   id="polygon3345"
   points="101.39,46.76 111.99,40.629 112.05,40.66 112.05,44.189 102.21,49.89 102.21,47.25 102.21,47.189 102.16,47.22 " />
		<polygon
   style="fill:#636362"
   id="polygon3347"
   points="106.24,49.57 106.229,49.589 100.59,52.859 100.569,52.859 100.05,52.109 100.04,52.089 102.21,50.79 102.21,49.89 112.05,44.189 112.05,40.66 117.689,43.919 107.13,50.07 " />
		<polygon
   style="fill:#efeeef"
   id="polygon3349"
   points="104.67,55.23 104.67,55.169 21.81,103.11 18.57,101.19 100.59,53.799 101.38,53.339 100.59,52.89 100.59,52.859 106.229,49.589 106.24,49.57 107.13,50.07 117.689,43.919 120.62,45.609 120.92,45.79 110.39,51.979 111.16,52.439 105.51,55.709 " />
		<polygon
   style="fill:#636362"
   id="polygon3351"
   points="97.29,44.43 96.02,45.14 95.31,43.53 103.05,38.97 103.05,35.459 108.68,38.709 98.13,44.91 97.3,44.41 " />
		<polygon
   style="fill:#efeeef"
   id="polygon3353"
   points="95.729,50.07 95.729,53.61 12.81,101.49 12.81,97.889 95.729,50.01 " />
		<polygon
   style="fill:#636362"
   id="polygon3355"
   points="93.38,37.229 92.97,35.25 92.729,33.27 92.67,31.35 92.729,29.49 99.75,33.55 " />
		<polygon
   style="fill:#efeeef"
   id="polygon3357"
   points="93.27,42.089 93.27,44.729 93.27,45.629 87.569,48.99 87.569,45.39 93.22,42.06 " />
		<polygon
   style="fill:#efeeef"
   id="polygon3359"
   points="103.05,35.459 103.05,38.97 95.31,43.53 93.27,44.729 93.27,42.089 93.27,42.03 93.22,42.06 92.39,41.6 102.97,35.41 " />
		<polygon
   style="fill:#efeeef"
   id="polygon3361"
   points="9.57,96.03 91.59,48.58 92.38,48.12 91.59,47.669 91.59,47.629 96.02,45.149 96.02,45.14 97.29,44.43 97.3,44.41 98.13,44.91 108.68,38.709 111.99,40.629 101.39,46.76 102.16,47.22 96.569,50.55 95.729,50.07 95.729,50.01 12.81,97.889 " />
		<polygon
   style="fill:#efeeef"
   id="polygon3363"
   points="86.729,44.79 86.729,44.85 86.729,48.39 3.87,96.33 3.87,92.73 " />
		<polygon
   style="fill:#efeeef"
   id="polygon3365"
   points="0.57,90.87 82.649,43.419 83.439,42.959 82.649,42.51 82.649,42.479 88.29,39.209 88.3,39.189 89.13,39.689 93.38,37.229 99.75,33.55 102.97,35.41 92.39,41.6 93.22,42.06 87.569,45.39 86.729,44.85 86.729,44.79 3.87,92.73 " />
	<polygon
   style="fill:#555753"
   id="polygon3329"
   points="131.68,0.55 159.99,16.95 124.56,37.39 96.22,21.01 96.2,21 131.67,0.57 " /></g>
	<g
   id="g3367">
		
			<polyline
   style="fill:none;stroke:#000000;stroke-width:1.01999998;stroke-linecap:round;stroke-linejoin:round;stroke-miterlimit:10"
   id="polyline3369"
   points="    102.21,47.25 102.16,47.22 101.39,46.76 101.31,46.709   "
   stroke-miterlimit="10" />
		
			<polyline
   style="fill:none;stroke:#000000;stroke-width:1.01999998;stroke-linecap:round;stroke-linejoin:round;stroke-miterlimit:10"
   id="polyline3371"
   points="    96.569,50.55 102.16,47.22 102.21,47.189   "
   stroke-miterlimit="10" />
		
			<polyline
   style="fill:none;stroke:#000000;stroke-width:1.01999998;stroke-linecap:round;stroke-linejoin:round;stroke-miterlimit:10"
   id="polyline3373"
   points="    102.21,50.85 102.21,50.79 102.21,49.89 102.21,47.25 102.21,47.189   "
   stroke-miterlimit="10" />
		
			<polyline
   style="fill:none;stroke:#000000;stroke-width:1.01999998;stroke-linecap:round;stroke-linejoin:round;stroke-miterlimit:10"
   id="polyline3375"
   points="    96.569,54.15 96.569,50.55 96.569,50.49   "
   stroke-miterlimit="10" />
		
			<polyline
   style="fill:none;stroke:#000000;stroke-width:1.01999998;stroke-linecap:round;stroke-linejoin:round;stroke-miterlimit:10"
   id="polyline3377"
   points="    96.569,54.15 100.04,52.089 102.21,50.79   "
   stroke-miterlimit="10" />
		
			<line
   style="fill:none;stroke:#000000;stroke-width:1.01999998;stroke-linecap:round;stroke-linejoin:round;stroke-miterlimit:10"
   id="line3379"
   y2="54.150002"
   x2="96.569"
   y1="53.668999"
   x1="95.728996"
   stroke-miterlimit="10" />
		
			<polyline
   style="fill:none;stroke:#000000;stroke-width:1.01999998;stroke-linecap:round;stroke-linejoin:round;stroke-miterlimit:10"
   id="polyline3381"
   points="    96.02,45.149 91.59,47.629 91.52,47.669   "
   stroke-miterlimit="10" />
		
			<line
   style="fill:none;stroke:#000000;stroke-width:1.01999998;stroke-linecap:round;stroke-linejoin:round;stroke-miterlimit:10"
   id="line3383"
   y2="45.139999"
   x2="96.019997"
   y1="44.43"
   x1="97.290001"
   stroke-miterlimit="10" />
		
			<polyline
   style="fill:none;stroke:#000000;stroke-width:1.01999998;stroke-linecap:round;stroke-linejoin:round;stroke-miterlimit:10"
   id="polyline3385"
   points="    98.13,44.91 97.3,44.41 97.229,44.37   "
   stroke-miterlimit="10" />
		
			<polyline
   style="fill:none;stroke:#000000;stroke-width:1.01999998;stroke-linecap:round;stroke-linejoin:round;stroke-miterlimit:10"
   id="polyline3387"
   points="    91.59,48.689 91.59,48.58 91.59,47.669 91.59,47.629 91.59,47.609   "
   stroke-miterlimit="10" />
		
			<polyline
   style="fill:none;stroke:#000000;stroke-width:1.01999998;stroke-linecap:round;stroke-linejoin:round;stroke-miterlimit:10"
   id="polyline3389"
   points="    91.59,47.669 92.38,48.12 92.43,48.149   "
   stroke-miterlimit="10" />
		
			<polyline
   style="fill:none;stroke:#000000;stroke-width:1.01999998;stroke-linecap:round;stroke-linejoin:round;stroke-miterlimit:10"
   id="polyline3391"
   points="    95.729,53.669 95.729,53.61 95.729,50.07 95.729,50.01   "
   stroke-miterlimit="10" />
		
			<polyline
   style="fill:none;stroke:#000000;stroke-width:1.01999998;stroke-linecap:round;stroke-linejoin:round;stroke-miterlimit:10"
   id="polyline3393"
   points="    112.05,40.649 112.05,40.66 112.05,44.189 112.05,44.25   "
   stroke-miterlimit="10" />
		
			<line
   style="fill:none;stroke:#000000;stroke-width:1.01999998;stroke-linecap:round;stroke-linejoin:round;stroke-miterlimit:10"
   id="line3395"
   y2="97.889"
   x2="12.81"
   y1="96.029999"
   x1="9.5699997"
   stroke-miterlimit="10" />
		
			<polyline
   style="fill:none;stroke:#000000;stroke-width:1.01999998;stroke-linecap:round;stroke-linejoin:round;stroke-miterlimit:10"
   id="polyline3397"
   points="    101.37,46.77 101.39,46.76 111.99,40.629 112,40.62 112.05,40.589   "
   stroke-miterlimit="10" />
		
			<line
   style="fill:none;stroke:#000000;stroke-width:1.01999998;stroke-linecap:round;stroke-linejoin:round;stroke-miterlimit:10"
   id="line3399"
   y2="101.49"
   x2="12.81"
   y1="97.889"
   x1="12.81"
   stroke-miterlimit="10" />
		
			<polyline
   style="fill:none;stroke:#000000;stroke-width:1.01999998;stroke-linecap:round;stroke-linejoin:round;stroke-miterlimit:10"
   id="polyline3401"
   points="    12.81,101.49 9.57,99.599 9.51,99.57   "
   stroke-miterlimit="10" />
		
			<line
   style="fill:none;stroke:#000000;stroke-width:1.01999998;stroke-linecap:round;stroke-linejoin:round;stroke-miterlimit:10"
   id="line3403"
   y2="53.610001"
   x2="95.728996"
   y1="101.49"
   x1="12.81"
   stroke-miterlimit="10" />
		
			<line
   style="fill:none;stroke:#000000;stroke-width:1.01999998;stroke-linecap:round;stroke-linejoin:round;stroke-miterlimit:10"
   id="line3405"
   y2="44.188999"
   x2="112.05"
   y1="49.889999"
   x1="102.21"
   stroke-miterlimit="10" />
		
			<line
   style="fill:none;stroke:#000000;stroke-width:1.01999998;stroke-linecap:round;stroke-linejoin:round;stroke-miterlimit:10"
   id="line3407"
   y2="50.549999"
   x2="96.569"
   y1="50.07"
   x1="95.728996"
   stroke-miterlimit="10" />
		
			<line
   style="fill:none;stroke:#000000;stroke-width:1.01999998;stroke-linecap:round;stroke-linejoin:round;stroke-miterlimit:10"
   id="line3409"
   y2="50.009998"
   x2="95.728996"
   y1="97.889"
   x1="12.81"
   stroke-miterlimit="10" />
		
			<polyline
   style="fill:none;stroke:#000000;stroke-width:1.01999998;stroke-linecap:round;stroke-linejoin:round;stroke-miterlimit:10"
   id="polyline3411"
   points="    9.57,96.03 91.59,48.58 92.38,48.12 92.43,48.089   "
   stroke-miterlimit="10" />
		
			<polyline
   style="fill:none;stroke:#000000;stroke-width:1.01999998;stroke-linecap:round;stroke-linejoin:round;stroke-miterlimit:10"
   id="polyline3413"
   points="    98.13,44.91 108.68,38.709 108.689,38.7 108.72,38.689 108.75,38.669   "
   stroke-miterlimit="10" />
		
			<polyline
   style="fill:none;stroke:#000000;stroke-width:1.01999998;stroke-linecap:round;stroke-linejoin:round;stroke-miterlimit:10"
   id="polyline3415"
   points="    9.57,99.629 9.57,99.599 9.57,96.03 9.57,95.969   "
   stroke-miterlimit="10" />
		
			<polyline
   style="fill:none;stroke:#000000;stroke-width:1.01999998;stroke-linecap:round;stroke-linejoin:round;stroke-miterlimit:10"
   id="polyline3417"
   points="    105.51,59.31 106.16,58.929 111.21,56.009   "
   stroke-miterlimit="10" />
		
			<polyline
   style="fill:none;stroke:#000000;stroke-width:1.01999998;stroke-linecap:round;stroke-linejoin:round;stroke-miterlimit:10"
   id="polyline3419"
   points="    111.21,52.47 111.16,52.439 110.39,51.979 110.31,51.93   "
   stroke-miterlimit="10" />
		
			<line
   style="fill:none;stroke:#000000;stroke-width:1.01999998;stroke-linecap:round;stroke-linejoin:round;stroke-miterlimit:10"
   id="line3421"
   y2="55.168999"
   x2="104.67"
   y1="103.11"
   x1="21.809999"
   stroke-miterlimit="10" />
		
			<polyline
   style="fill:none;stroke:#000000;stroke-width:1.01999998;stroke-linecap:round;stroke-linejoin:round;stroke-miterlimit:10"
   id="polyline3423"
   points="    111.21,56.07 111.21,56.009 111.21,55.11 111.21,52.47 111.21,52.41   "
   stroke-miterlimit="10" />
		
			<line
   style="fill:none;stroke:#000000;stroke-width:1.01999998;stroke-linecap:round;stroke-linejoin:round;stroke-miterlimit:10"
   id="line3425"
   y2="49.349998"
   x2="120.99"
   y1="55.110001"
   x1="111.21"
   stroke-miterlimit="10" />
		
			<polyline
   style="fill:none;stroke:#000000;stroke-width:1.01999998;stroke-linecap:round;stroke-linejoin:round;stroke-miterlimit:10"
   id="polyline3427"
   points="    107.13,50.07 106.24,49.57 106.17,49.53   "
   stroke-miterlimit="10" />
		
			<polyline
   style="fill:none;stroke:#000000;stroke-width:1.01999998;stroke-linecap:round;stroke-linejoin:round;stroke-miterlimit:10"
   id="polyline3429"
   points="    120.93,45.79 120.939,45.78 120.99,45.75   "
   stroke-miterlimit="10" />
		
			<polyline
   style="fill:none;stroke:#000000;stroke-width:1.01999998;stroke-linecap:round;stroke-linejoin:round;stroke-miterlimit:10"
   id="polyline3431"
   points="    110.37,51.99 110.39,51.979 120.92,45.79   "
   stroke-miterlimit="10" />
		
			<polyline
   style="fill:none;stroke:#000000;stroke-width:1.01999998;stroke-linecap:round;stroke-linejoin:round;stroke-miterlimit:10"
   id="polyline3433"
   points="    120.99,45.81 120.99,45.83 120.99,49.35 120.99,49.41   "
   stroke-miterlimit="10" />
		
			<polyline
   style="fill:none;stroke:#000000;stroke-width:1.01999998;stroke-linecap:round;stroke-linejoin:round;stroke-miterlimit:10"
   id="polyline3435"
   points="    120.99,45.81 120.939,45.78 117.72,43.91 117.68,43.89   "
   stroke-miterlimit="10" />
		
			<polyline
   style="fill:none;stroke:#000000;stroke-width:1.01999998;stroke-linecap:round;stroke-linejoin:round;stroke-miterlimit:10"
   id="polyline3437"
   points="    93.27,45.689 93.27,45.629 93.27,44.729 93.27,42.089 93.27,42.03   "
   stroke-miterlimit="10" />
		
			<polyline
   style="fill:none;stroke:#000000;stroke-width:1.01999998;stroke-linecap:round;stroke-linejoin:round;stroke-miterlimit:10"
   id="polyline3439"
   points="    87.569,48.99 87.569,45.39 87.569,45.33   "
   stroke-miterlimit="10" />
		
			<line
   style="fill:none;stroke:#000000;stroke-width:1.01999998;stroke-linecap:round;stroke-linejoin:round;stroke-miterlimit:10"
   id="line3441"
   y2="45.629002"
   x2="93.269997"
   y1="48.990002"
   x1="87.569"
   stroke-miterlimit="10" />
		
			<line
   style="fill:none;stroke:#000000;stroke-width:1.01999998;stroke-linecap:round;stroke-linejoin:round;stroke-miterlimit:10"
   id="line3443"
   y2="48.990002"
   x2="87.569"
   y1="48.450001"
   x1="86.728996"
   stroke-miterlimit="10" />
		
			<polyline
   style="fill:none;stroke:#000000;stroke-width:1.01999998;stroke-linecap:round;stroke-linejoin:round;stroke-miterlimit:10"
   id="polyline3445"
   points="    112,40.62 108.72,38.689 108.68,38.669   "
   stroke-miterlimit="10" />
		
			<polyline
   style="fill:none;stroke:#000000;stroke-width:1.01999998;stroke-linecap:round;stroke-linejoin:round;stroke-miterlimit:10"
   id="polyline3447"
   points="    82.649,43.47 82.649,43.419 82.649,42.51 82.649,42.479 82.649,42.45   "
   stroke-miterlimit="10" />
		
			<line
   style="fill:none;stroke:#000000;stroke-width:1.01999998;stroke-linecap:round;stroke-linejoin:round;stroke-miterlimit:10"
   id="line3449"
   y2="48.389999"
   x2="86.728996"
   y1="96.330002"
   x1="3.8699999"
   stroke-miterlimit="10" />
		
			<line
   style="fill:none;stroke:#000000;stroke-width:1.01999998;stroke-linecap:round;stroke-linejoin:round;stroke-miterlimit:10"
   id="line3451"
   y2="96.330002"
   x2="3.8699999"
   y1="92.730003"
   x1="3.8699999"
   stroke-miterlimit="10" />
		
			<polyline
   style="fill:none;stroke:#000000;stroke-width:1.01999998;stroke-linecap:round;stroke-linejoin:round;stroke-miterlimit:10"
   id="polyline3453"
   points="    86.729,48.45 86.729,48.39 86.729,44.85 86.729,44.79   "
   stroke-miterlimit="10" />
		
			<polyline
   style="fill:none;stroke:#000000;stroke-width:1.01999998;stroke-linecap:round;stroke-linejoin:round;stroke-miterlimit:10"
   id="polyline3455"
   points="    3.87,96.33 0.57,94.44 0.51,94.41   "
   stroke-miterlimit="10" />
		
			<polyline
   style="fill:none;stroke:#000000;stroke-width:1.01999998;stroke-linecap:round;stroke-linejoin:round;stroke-miterlimit:10"
   id="polyline3457"
   points="    0.57,90.87 82.649,43.419 83.439,42.959 83.49,42.93   "
   stroke-miterlimit="10" />
		
			<polyline
   style="fill:none;stroke:#000000;stroke-width:1.01999998;stroke-linecap:round;stroke-linejoin:round;stroke-miterlimit:10"
   id="polyline3459"
   points="    82.649,42.51 83.439,42.959 83.49,42.99   "
   stroke-miterlimit="10" />
		
			<polyline
   style="fill:none;stroke:#000000;stroke-width:1.01999998;stroke-linecap:round;stroke-linejoin:round;stroke-miterlimit:10"
   id="polyline3461"
   points="    88.29,39.209 82.649,42.479 82.59,42.51   "
   stroke-miterlimit="10" />
		
			<polyline
   style="fill:none;stroke:#000000;stroke-width:1.01999998;stroke-linecap:round;stroke-linejoin:round;stroke-miterlimit:10"
   id="polyline3463"
   points="    0.57,94.469 0.57,94.44 0.57,90.87 0.57,90.81   "
   stroke-miterlimit="10" />
		
			<polyline
   style="fill:none;stroke:#000000;stroke-width:1.01999998;stroke-linecap:round;stroke-linejoin:round;stroke-miterlimit:10"
   id="polyline3465"
   points="    93.27,42.089 93.22,42.06 92.39,41.6 92.31,41.55   "
   stroke-miterlimit="10" />
		
			<polyline
   style="fill:none;stroke:#000000;stroke-width:1.01999998;stroke-linecap:round;stroke-linejoin:round;stroke-miterlimit:10"
   id="polyline3467"
   points="    87.569,45.39 93.22,42.06 93.27,42.03   "
   stroke-miterlimit="10" />
		
			<line
   style="fill:none;stroke:#000000;stroke-width:1.01999998;stroke-linecap:round;stroke-linejoin:round;stroke-miterlimit:10"
   id="line3469"
   y2="45.389999"
   x2="87.569"
   y1="44.849998"
   x1="86.728996"
   stroke-miterlimit="10" />
		
			<line
   style="fill:none;stroke:#000000;stroke-width:1.01999998;stroke-linecap:round;stroke-linejoin:round;stroke-miterlimit:10"
   id="line3471"
   y2="44.790001"
   x2="86.728996"
   y1="92.730003"
   x1="3.8699999"
   stroke-miterlimit="10" />
		
			<line
   style="fill:none;stroke:#000000;stroke-width:1.01999998;stroke-linecap:round;stroke-linejoin:round;stroke-miterlimit:10"
   id="line3473"
   y2="92.730003"
   x2="3.8699999"
   y1="90.870003"
   x1="0.56999999"
   stroke-miterlimit="10" />
		
			<polyline
   style="fill:none;stroke:#000000;stroke-width:1.01999998;stroke-linecap:round;stroke-linejoin:round;stroke-miterlimit:10"
   id="polyline3475"
   points="    89.13,39.689 88.3,39.189 88.229,39.149   "
   stroke-miterlimit="10" />
		
			<polyline
   style="fill:none;stroke:#000000;stroke-width:1.01999998;stroke-linecap:round;stroke-linejoin:round;stroke-miterlimit:10"
   id="polyline3477"
   points="    89.13,39.689 93.38,37.229 99.75,33.55 99.76,33.54 99.78,33.53 99.81,33.51   "
   stroke-miterlimit="10" />
		
			<line
   style="fill:none;stroke:#000000;stroke-width:1.01999998;stroke-linecap:round;stroke-linejoin:round;stroke-miterlimit:10"
   id="line3479"
   y2="35.369999"
   x2="103.05"
   y1="35.398998"
   x1="103"
   stroke-miterlimit="10" />
		
			<polyline
   style="fill:none;stroke:#000000;stroke-width:1.01999998;stroke-linecap:round;stroke-linejoin:round;stroke-miterlimit:10"
   id="polyline3481"
   points="    92.37,41.609 92.39,41.6 102.97,35.41 102.99,35.399   "
   stroke-miterlimit="10" />
		
			<polyline
   style="fill:none;stroke:#000000;stroke-width:1.01999998;stroke-linecap:round;stroke-linejoin:round;stroke-miterlimit:10"
   id="polyline3483"
   points="    93.27,44.729 95.31,43.53 103.05,38.97   "
   stroke-miterlimit="10" />
		
			<polyline
   style="fill:none;stroke:#000000;stroke-width:1.01999998;stroke-linecap:round;stroke-linejoin:round;stroke-miterlimit:10"
   id="polyline3485"
   points="    103.05,35.43 103,35.399 102.99,35.399 99.78,33.53 99.75,33.51   "
   stroke-miterlimit="10" />
		
			<polyline
   style="fill:none;stroke:#000000;stroke-width:1.01999998;stroke-linecap:round;stroke-linejoin:round;stroke-miterlimit:10"
   id="polyline3487"
   points="    103.05,35.43 103.05,35.439 103.05,35.459 103.05,38.97 103.05,39.03   "
   stroke-miterlimit="10" />
		
			<polyline
   style="fill:none;stroke:#000000;stroke-width:1.01999998;stroke-linecap:round;stroke-linejoin:round;stroke-miterlimit:10"
   id="polyline3489"
   points="    117.7,43.919 117.72,43.91 117.75,43.89   "
   stroke-miterlimit="10" />
		
			<line
   style="fill:none;stroke:#000000;stroke-width:1.01999998;stroke-linecap:round;stroke-linejoin:round;stroke-miterlimit:10"
   id="line3491"
   y2="43.918999"
   x2="117.689"
   y1="50.07"
   x1="107.13"
   stroke-miterlimit="10" />
		
			<line
   style="fill:none;stroke:#000000;stroke-width:1.01999998;stroke-linecap:round;stroke-linejoin:round;stroke-miterlimit:10"
   id="line3493"
   y2="58.77"
   x2="104.67"
   y1="106.709"
   x1="21.809999"
   stroke-miterlimit="10" />
		
			<polyline
   style="fill:none;stroke:#000000;stroke-width:1.01999998;stroke-linecap:round;stroke-linejoin:round;stroke-miterlimit:10"
   id="polyline3495"
   points="    21.81,106.709 18.57,104.77 18.51,104.73   "
   stroke-miterlimit="10" />
		
			<polyline
   style="fill:none;stroke:#000000;stroke-width:1.01999998;stroke-linecap:round;stroke-linejoin:round;stroke-miterlimit:10"
   id="polyline3497"
   points="    18.57,104.79 18.57,104.77 18.57,101.19 18.57,101.129   "
   stroke-miterlimit="10" />
		
			<polyline
   style="fill:none;stroke:#000000;stroke-width:1.01999998;stroke-linecap:round;stroke-linejoin:round;stroke-miterlimit:10"
   id="polyline3499"
   points="    100.59,53.849 100.59,53.799 100.59,52.89 100.59,52.859 100.59,52.83   "
   stroke-miterlimit="10" />
		
			<polyline
   style="fill:none;stroke:#000000;stroke-width:1.01999998;stroke-linecap:round;stroke-linejoin:round;stroke-miterlimit:10"
   id="polyline3501"
   points="    18.57,101.19 100.59,53.799 101.38,53.339 101.43,53.31   "
   stroke-miterlimit="10" />
		
			<polyline
   style="fill:none;stroke:#000000;stroke-width:1.01999998;stroke-linecap:round;stroke-linejoin:round;stroke-miterlimit:10"
   id="polyline3503"
   points="    100.59,52.89 101.38,53.339 101.43,53.37   "
   stroke-miterlimit="10" />
		
			<line
   style="fill:none;stroke:#000000;stroke-width:1.01999998;stroke-linecap:round;stroke-linejoin:round;stroke-miterlimit:10"
   id="line3505"
   y2="52.889999"
   x2="100.53"
   y1="52.869999"
   x1="100.569"
   stroke-miterlimit="10" />
		
			<polyline
   style="fill:none;stroke:#000000;stroke-width:1.01999998;stroke-linecap:round;stroke-linejoin:round;stroke-miterlimit:10"
   id="polyline3507"
   points="    106.229,49.589 100.59,52.859 100.569,52.859   "
   stroke-miterlimit="10" />
		
			<line
   style="fill:none;stroke:#000000;stroke-width:1.01999998;stroke-linecap:round;stroke-linejoin:round;stroke-miterlimit:10"
   id="line3509"
   y2="106.709"
   x2="21.809999"
   y1="103.11"
   x1="21.809999"
   stroke-miterlimit="10" />
		
			<polyline
   style="fill:none;stroke:#000000;stroke-width:1.01999998;stroke-linecap:round;stroke-linejoin:round;stroke-miterlimit:10"
   id="polyline3511"
   points="    104.67,58.83 104.67,58.77 104.67,55.23 104.67,55.169   "
   stroke-miterlimit="10" />
		
			<polyline
   style="fill:none;stroke:#000000;stroke-width:1.01999998;stroke-linecap:round;stroke-linejoin:round;stroke-miterlimit:10"
   id="polyline3513"
   points="    105.51,55.709 111.16,52.439 111.21,52.41   "
   stroke-miterlimit="10" />
		
			<line
   style="fill:none;stroke:#000000;stroke-width:1.01999998;stroke-linecap:round;stroke-linejoin:round;stroke-miterlimit:10"
   id="line3515"
   y2="103.11"
   x2="21.809999"
   y1="101.19"
   x1="18.57"
   stroke-miterlimit="10" />
		
			<line
   style="fill:none;stroke:#000000;stroke-width:1.01999998;stroke-linecap:round;stroke-linejoin:round;stroke-miterlimit:10"
   id="line3517"
   y2="55.709"
   x2="105.51"
   y1="55.23"
   x1="104.67"
   stroke-miterlimit="10" />
		
			<polyline
   style="fill:none;stroke:#000000;stroke-width:1.01999998;stroke-linecap:round;stroke-linejoin:round;stroke-miterlimit:10"
   id="polyline3519"
   points="    105.51,59.31 105.51,55.709 105.51,55.65   "
   stroke-miterlimit="10" />
		
			<line
   style="fill:none;stroke:#000000;stroke-width:1.01999998;stroke-linecap:round;stroke-linejoin:round;stroke-miterlimit:10"
   id="line3521"
   y2="59.310001"
   x2="105.51"
   y1="58.830002"
   x1="104.67"
   stroke-miterlimit="10" />
		
			<polyline
   style="fill:none;stroke:#000000;stroke-width:1.01999998;stroke-linecap:round;stroke-linejoin:round;stroke-miterlimit:10"
   id="polyline3523"
   points="    122.91,63.209 123.03,63.139 158.37,42.689   "
   stroke-miterlimit="10" />
		
			<path
   style="fill:none;stroke:#000000;stroke-width:1.01999998;stroke-linecap:round;stroke-linejoin:round;stroke-miterlimit:10"
   id="path3525"
   d="m 106.17,58.95 c 6.01,5.25 12.51,6.71 16.85,4.18 3.38,-1.97 5.45,-6.35 4.99,-13.24"
   stroke-miterlimit="10"
   inkscape:connector-curvature="0" />
		
			<polyline
   style="fill:none;stroke:#000000;stroke-width:1.01999998;stroke-linecap:round;stroke-linejoin:round;stroke-miterlimit:10"
   id="polyline3527"
   points="    100.05,52.109 100.569,52.859 100.569,52.87 100.59,52.89   "
   stroke-miterlimit="10" />
		
			<polyline
   style="fill:none;stroke:#000000;stroke-width:1.01999998;stroke-linecap:round;stroke-linejoin:round;stroke-miterlimit:10"
   id="polyline3529"
   points="    95.31,43.53 96.02,45.14 96.02,45.149   "
   stroke-miterlimit="10" />
		
			<polyline
   style="fill:none;stroke:#000000;stroke-width:1.01999998;stroke-linecap:round;stroke-linejoin:round;stroke-miterlimit:10"
   id="polyline3531"
   points="    92.729,29.49 92.67,31.35 92.729,33.27 92.97,35.25 93.38,37.229 93.39,37.29   "
   stroke-miterlimit="10" />
		
			<path
   style="fill:none;stroke:#000000;stroke-width:1.01999998;stroke-linecap:round;stroke-linejoin:round;stroke-miterlimit:10"
   id="path3533"
   d="m 158.37,42.75 c 0.01,-0.01 0.02,-0.01 0.029,-0.02 4.5,-2.78 5.37,-8.43 5.07,-13.3"
   stroke-miterlimit="10"
   inkscape:connector-curvature="0" />
		
			<polyline
   style="fill:none;stroke:#000000;stroke-width:1.01999998;stroke-linecap:round;stroke-linejoin:round;stroke-miterlimit:10"
   id="polyline3535"
   points="    120.62,45.609 117.7,43.919 117.689,43.919 112.05,40.649 112,40.62 108.689,38.7 103.05,35.439 102.99,35.399 99.76,33.54     92.729,29.47 92.67,29.43   "
   stroke-miterlimit="10" />
		
			<polyline
   style="fill:none;stroke:#000000;stroke-width:1.01999998;stroke-linecap:round;stroke-linejoin:round;stroke-miterlimit:10"
   id="polyline3537"
   points="    159.99,16.95 131.68,0.55 131.609,0.51   "
   stroke-miterlimit="10" />
		
			<path
   style="fill:none;stroke:#000000;stroke-width:1.01999998;stroke-linecap:round;stroke-linejoin:round;stroke-miterlimit:10"
   id="path3539"
   d="m 96.21,21.03 c -2.24,2.21 -3.21,5.38 -3.48,8.44 0,0.01 0,0.01 0,0.02"
   stroke-miterlimit="10"
   inkscape:connector-curvature="0" />
		
			<polyline
   style="fill:none;stroke:#000000;stroke-width:1.01999998;stroke-linecap:round;stroke-linejoin:round;stroke-miterlimit:10"
   id="polyline3541"
   points="    124.59,37.41 124.56,37.39 96.22,21.01 96.2,21 96.149,20.97   "
   stroke-miterlimit="10" />
		
			<path
   style="fill:none;stroke:#000000;stroke-width:1.01999998;stroke-linecap:round;stroke-linejoin:round;stroke-miterlimit:10"
   id="path3543"
   d="m 128.01,49.89 c 0,-0.01 0,-0.03 0,-0.04 -0.21,-4.24 -1.7,-8.6 -3.42,-12.44"
   stroke-miterlimit="10"
   inkscape:connector-curvature="0" />
		
			<polyline
   style="fill:none;stroke:#000000;stroke-width:1.01999998;stroke-linecap:round;stroke-linejoin:round;stroke-miterlimit:10"
   id="polyline3545"
   points="    163.47,29.43 128.01,49.85 127.979,49.87 127.939,49.89   "
   stroke-miterlimit="10" />
		
			<path
   style="fill:none;stroke:#000000;stroke-width:1.01999998;stroke-linecap:round;stroke-linejoin:round;stroke-miterlimit:10"
   id="path3547"
   d="m 163.47,29.43 c -0.39,-4.33 -1.63,-8.56 -3.479,-12.48"
   stroke-miterlimit="10"
   inkscape:connector-curvature="0" />
		
			<polyline
   style="fill:none;stroke:#000000;stroke-width:1.01999998;stroke-linecap:round;stroke-linejoin:round;stroke-miterlimit:10"
   id="polyline3549"
   points="    131.67,0.57 96.2,21 96.149,21.03   "
   stroke-miterlimit="10" />
		
			<polyline
   style="fill:none;stroke:#000000;stroke-width:1.01999998;stroke-linecap:round;stroke-linejoin:round;stroke-miterlimit:10"
   id="polyline3551"
   points="    92.729,29.49 99.75,33.55 102.97,35.41 103.05,35.459 108.68,38.709 111.99,40.629 112.05,40.66 117.689,43.919 120.62,45.609     120.92,45.79 120.93,45.79 120.99,45.83 127.979,49.87 128.01,49.89   "
   stroke-miterlimit="10" />
		
			<polyline
   style="fill:none;stroke:#000000;stroke-width:1.01999998;stroke-linecap:round;stroke-linejoin:round;stroke-miterlimit:10"
   id="polyline3553"
   points="    159.99,16.95 124.56,37.39 124.53,37.41   "
   stroke-miterlimit="10" />
	</g>
</g><g
     transform="matrix(2,0,0,2,8.9838285,29.171497)"
     id="g3555">
	<text
   style="font-style:normal;font-variant:normal;font-weight:normal;font-stretch:normal;font-size:10px;line-height:0%;font-family:'DejaVu Sans';-inkscape-font-specification:'DejaVu Sans';text-align:center;writing-mode:lr-tb;text-anchor:middle;fill:#ffffff"
   id="text3557"
   font-size="8"
   transform="matrix(0.93059121,0.53729285,-0.93059121,0.53729285,0,0)"
   x="91.424263"
   y="-46.648815"><tspan
     style="font-size:7.33333349px"
     id="tspan943"> ▶TMP</tspan></text>


	
<text
   transform="matrix(0.93059121,0.53729285,-0.93059121,0.53729285,0,0)"
   font-size="8"
   id="text3694"
   style="font-style:normal;font-variant:normal;font-weight:normal;font-stretch:normal;font-size:10px;line-height:0%;font-family:'DejaVu Sans';-inkscape-font-specification:'DejaVu Sans';text-align:center;writing-mode:lr-tb;text-anchor:middle;fill:#ffffff"
   x="92.496056"
   y="-36.48608"><tspan
     style="font-size:7.33333349px"
     id="tspan941">36GZ</tspan></text>

<text
   xml:space="preserve"
   style="font-style:normal;font-variant:normal;font-weight:normal;font-stretch:normal;font-size:8px;line-height:1.25;font-family:'Fira Sans';-inkscape-font-specification:'Fira Sans';letter-spacing:0px;word-spacing:0px;fill:#000000;fill-opacity:1;stroke:none;stroke-width:0.5"
   x="118.76842"
   y="84.686073"
   id="text939"><tspan
     sodipodi:role="line"
     id="tspan937"
     x="118.76842"
     y="91.919403"
     style="stroke-width:0.5"></tspan></text>
<text
   xml:space="preserve"
   style="font-style:normal;font-variant:normal;font-weight:normal;font-stretch:normal;font-size:8px;line-height:1.25;font-family:'Fira Sans';-inkscape-font-specification:'Fira Sans';letter-spacing:0px;word-spacing:0px;fill:#000000;fill-opacity:1;stroke:none;stroke-width:0.5"
   x="-22.204548"
   y="102.84823"
   id="text947"><tspan
     sodipodi:role="line"
     id="tspan945"
     x="-22.204548"
     y="102.84823"
     style="font-style:normal;font-variant:normal;font-weight:normal;font-stretch:normal;font-family:'DejaVu Sans';-inkscape-font-specification:'DejaVu Sans';stroke-width:0.5"><tspan
       style="font-size:9.33333302px"
       id="tspan989">+V</tspan><tspan
       style="font-size:5.33333349px"
       id="tspan987">S</tspan></tspan></text>
<text
   xml:space="preserve"
   style="font-style:normal;font-variant:normal;font-weight:normal;font-stretch:normal;font-size:8px;line-height:1.25;font-family:'Fira Sans';-inkscape-font-specification:'Fira Sans';letter-spacing:0px;word-spacing:0px;overflow:visible;fill:#000000;fill-opacity:1;stroke:none;stroke-width:0.5"
   x="-10.460796"
   y="112.69102"
   id="text947-3"><tspan
     sodipodi:role="line"
     id="tspan945-3"
     x="-10.460796"
     y="112.69102"
     style="font-style:normal;font-variant:normal;font-weight:normal;font-stretch:normal;font-family:'DejaVu Sans';-inkscape-font-specification:'DejaVu Sans';stroke-width:0.5"><tspan
       style="font-size:9.33333302px"
       id="tspan991">V</tspan><tspan
       style="font-size:5.33333349px"
       id="tspan985">OUT</tspan></tspan></text>
<text
   xml:space="preserve"
   style="font-style:normal;font-variant:normal;font-weight:normal;font-stretch:normal;font-size:8px;line-height:1.25;font-family:'Fira Sans';-inkscape-font-specification:'Fira Sans';letter-spacing:0px;word-spacing:0px;overflow:visible;fill:#000000;fill-opacity:1;stroke:none;stroke-width:0.5"
   x="-3.360992"
   y="122.48107"
   id="text947-3-8"><tspan
     sodipodi:role="line"
     id="tspan945-3-9"
     x="-3.360992"
     y="122.48107"
     style="font-style:normal;font-variant:normal;font-weight:normal;font-stretch:normal;font-size:9.33333302px;font-family:'DejaVu Sans';-inkscape-font-specification:'DejaVu Sans';stroke-width:0.5">GND</tspan></text>
</g></g>
</svg>